<svg width="82" height="82" viewBox="0 0 82 82" fill="none" xmlns="http://www.w3.org/2000/svg">
<g filter="url(#filter0_d_423_605)">
<circle cx="41" cy="37" r="25" fill="#FFFEFB"/>
</g>
<mask id="mask0_423_605" style="mask-type:alpha" maskUnits="userSpaceOnUse" x="29" y="25" width="24" height="24">
<rect x="29" y="25" width="24" height="24" fill="#D9D9D9"/>
</mask>
<g mask="url(#mask0_423_605)">
<path d="M41.0004 45C40.7171 45 40.4797 44.904 40.2884 44.712C40.0964 44.5207 40.0004 44.2834 40.0004 44V32.825L35.1254 37.7C34.9254 37.9 34.6877 38 34.4124 38C34.1377 38 33.9004 37.9 33.7004 37.7C33.5004 37.5 33.4004 37.2667 33.4004 37C33.4004 36.7334 33.5004 36.5 33.7004 36.3L40.3004 29.7C40.4004 29.6 40.5087 29.529 40.6254 29.487C40.7421 29.4457 40.8671 29.425 41.0004 29.425C41.1337 29.425 41.2631 29.4457 41.3884 29.487C41.5131 29.529 41.6171 29.6 41.7004 29.7L48.3004 36.3C48.5004 36.5 48.6004 36.7334 48.6004 37C48.6004 37.2667 48.5004 37.5 48.3004 37.7C48.1004 37.9 47.8627 38 47.5874 38C47.3127 38 47.0754 37.9 46.8754 37.7L42.0004 32.825V44C42.0004 44.2834 41.9047 44.5207 41.7134 44.712C41.5214 44.904 41.2837 45 41.0004 45Z" fill="#9B9B9B"/>
</g>
<defs>
<filter id="filter0_d_423_605" x="0" y="0" width="82" height="82" filterUnits="userSpaceOnUse" color-interpolation-filters="sRGB">
<feFlood flood-opacity="0" result="BackgroundImageFix"/>
<feColorMatrix in="SourceAlpha" type="matrix" values="0 0 0 0 0 0 0 0 0 0 0 0 0 0 0 0 0 0 127 0" result="hardAlpha"/>
<feOffset dy="4"/>
<feGaussianBlur stdDeviation="8"/>
<feComposite in2="hardAlpha" operator="out"/>
<feColorMatrix type="matrix" values="0 0 0 0 0.286275 0 0 0 0 0.27451 0 0 0 0 0.27451 0 0 0 0.2 0"/>
<feBlend mode="normal" in2="BackgroundImageFix" result="effect1_dropShadow_423_605"/>
<feBlend mode="normal" in="SourceGraphic" in2="effect1_dropShadow_423_605" result="shape"/>
</filter>
</defs>
</svg>
