<svg width="48" height="48" viewBox="0 0 48 48" fill="none" xmlns="http://www.w3.org/2000/svg">
<g filter="url(#filter0_d_433_831)">
<circle cx="24" cy="22" r="20" fill="#E5F1F7"/>
<g clip-path="url(#clip0_433_831)">
<mask id="mask0_433_831" style="mask-type:alpha" maskUnits="userSpaceOnUse" x="14" y="12" width="30" height="30">
<rect x="14" y="12" width="30" height="30" fill="#D9D9D9"/>
</mask>
<g mask="url(#mask0_433_831)">
<path d="M17.4375 30.4375C16.9219 30.4375 16.4803 30.2541 16.1128 29.8872C15.7459 29.5197 15.5625 29.0781 15.5625 28.5625V15.4375C15.5625 14.9219 15.7459 14.4803 16.1128 14.1128C16.4803 13.7459 16.9219 13.5625 17.4375 13.5625H30.5625C31.0781 13.5625 31.5197 13.7459 31.8872 14.1128C32.2541 14.4803 32.4375 14.9219 32.4375 15.4375V28.5625C32.4375 29.0781 32.2541 29.5197 31.8872 29.8872C31.5197 30.2541 31.0781 30.4375 30.5625 30.4375H17.4375ZM18.375 26.6875H29.625L26.1094 22L23.2969 25.75L21.1875 22.9375L18.375 26.6875Z" fill="#E06437"/>
</g>
</g>
</g>
<defs>
<filter id="filter0_d_433_831" x="0" y="0" width="48" height="48" filterUnits="userSpaceOnUse" color-interpolation-filters="sRGB">
<feFlood flood-opacity="0" result="BackgroundImageFix"/>
<feColorMatrix in="SourceAlpha" type="matrix" values="0 0 0 0 0 0 0 0 0 0 0 0 0 0 0 0 0 0 127 0" result="hardAlpha"/>
<feOffset dy="2"/>
<feGaussianBlur stdDeviation="2"/>
<feComposite in2="hardAlpha" operator="out"/>
<feColorMatrix type="matrix" values="0 0 0 0 0.286275 0 0 0 0 0.27451 0 0 0 0 0.27451 0 0 0 0.1 0"/>
<feBlend mode="normal" in2="BackgroundImageFix" result="effect1_dropShadow_433_831"/>
<feBlend mode="normal" in="SourceGraphic" in2="effect1_dropShadow_433_831" result="shape"/>
</filter>
<clipPath id="clip0_433_831">
<rect width="30" height="30" fill="white" transform="translate(9 7)"/>
</clipPath>
</defs>
</svg>
