<svg width="40" height="40" viewBox="0 0 40 40" fill="none" xmlns="http://www.w3.org/2000/svg">
<mask id="mask0_394_672" style="mask-type:alpha" maskUnits="userSpaceOnUse" x="0" y="0" width="40" height="40">
<rect width="40" height="40" fill="#D9D9D9"/>
</mask>
<g mask="url(#mask0_394_672)">
<path d="M11.6667 29.9167L20 26.3333L28.3333 29.9167V9.37499C28.3333 9.09721 28.2289 8.85443 28.02 8.64666C27.8122 8.43777 27.5694 8.33332 27.2917 8.33332H12.7083C12.4306 8.33332 12.1878 8.43777 11.98 8.64666C11.7711 8.85443 11.6667 9.09721 11.6667 9.37499V29.9167ZM11.875 31.7083C11.4306 31.9028 11.0072 31.8678 10.605 31.6033C10.2017 31.34 10 30.9583 10 30.4583V9.37499C10 8.59721 10.2572 7.95166 10.7717 7.43832C11.285 6.92388 11.9306 6.66666 12.7083 6.66666H27.2917C28.0694 6.66666 28.7156 6.92388 29.23 7.43832C29.7433 7.95166 30 8.59721 30 9.37499V30.4583C30 30.9583 29.7989 31.34 29.3967 31.6033C28.9933 31.8678 28.5694 31.9028 28.125 31.7083L20 28.2083L11.875 31.7083Z" fill="#666666"/>
</g>
</svg>
