<svg width="40" height="40" viewBox="0 0 40 40" fill="none" xmlns="http://www.w3.org/2000/svg">
<mask id="mask0_395_686" style="mask-type:alpha" maskUnits="userSpaceOnUse" x="0" y="0" width="40" height="40">
<rect width="40" height="40" fill="#D9D9D9"/>
</mask>
<g mask="url(#mask0_395_686)">
<path d="M11.875 31.7084C11.4306 31.9029 11.0072 31.8679 10.605 31.6034C10.2017 31.3401 10 30.9584 10 30.4584V9.37508C10 8.5973 10.2572 7.95175 10.7717 7.43841C11.285 6.92397 11.9306 6.66675 12.7083 6.66675H27.2917C28.0694 6.66675 28.7156 6.92397 29.23 7.43841C29.7433 7.95175 30 8.5973 30 9.37508V30.4584C30 30.9584 29.7989 31.3401 29.3967 31.6034C28.9933 31.8679 28.5694 31.9029 28.125 31.7084L20 28.2084L11.875 31.7084Z" fill="#494646"/>
</g>
</svg>
