<svg width="20" height="20" viewBox="0 0 20 20" fill="none" xmlns="http://www.w3.org/2000/svg">
<mask id="mask0_1007_79" style="mask-type:alpha" maskUnits="userSpaceOnUse" x="0" y="0" width="20" height="20">
<rect x="0.5" y="0.5" width="19" height="19" fill="#FFFEFB" stroke="#E06437"/>
</mask>
<g mask="url(#mask0_1007_79)">
<path d="M8.00122 8.33341H4.27206C3.86928 8.33341 3.60206 8.52786 3.47039 8.91675C3.33817 9.30564 3.43872 9.61814 3.77206 9.85425L8.00122 8.33341ZM8.00122 8.33341L9.20956 4.33341C9.279 4.13897 9.38678 3.98953 9.53289 3.88508C9.67845 3.78119 9.83456 3.72925 10.0012 3.72925C10.1679 3.72925 10.324 3.78119 10.4696 3.88508C10.6157 3.98953 10.7234 4.13897 10.7929 4.33341L12.0012 8.33341M8.00122 8.33341H12.0012M12.0012 8.33341H15.7304C16.1332 8.33341 16.4007 8.52786 16.5329 8.91675C16.6646 9.30564 16.5637 9.61814 16.2304 9.85425M12.0012 8.33341L16.2304 9.85425M16.2304 9.85425L13.2096 12.0001M16.2304 9.85425L13.2096 12.0001M13.2096 12.0001L14.3971 15.8542C14.5082 16.2431 14.3971 16.5556 14.0637 16.7917C13.7304 17.0279 13.404 17.0209 13.0846 16.7709M13.2096 12.0001L13.0846 16.7709M13.0846 16.7709L10.0012 14.4167L13.0846 16.7709ZM6.61446 16.3735L6.61444 16.3735L6.60974 16.3772C6.51413 16.452 6.45413 16.4631 6.42288 16.4637C6.39123 16.4644 6.32921 16.4556 6.22773 16.3837C6.12538 16.3112 6.09027 16.2515 6.0765 16.2128C6.06306 16.175 6.05307 16.1099 6.08492 15.996L7.27072 12.1473L7.37717 11.8018L7.08244 11.5925L4.06161 9.44662L4.06107 9.44624C3.96072 9.37516 3.93239 9.32003 3.92261 9.28963C3.91273 9.25893 3.90344 9.19634 3.94378 9.0777L3.94398 9.07709C3.98478 8.95659 4.03208 8.90659 4.06374 8.88354C4.0946 8.86109 4.1528 8.83341 4.27206 8.83341H8.00122H8.3725L8.47986 8.478L9.68415 4.4914C9.72401 4.38471 9.77402 4.32732 9.82366 4.29184L9.5329 3.88509L9.82336 4.29205C9.89068 4.244 9.94646 4.22925 10.0012 4.22925C10.056 4.22925 10.1118 4.244 10.1791 4.29205L10.4696 3.88509L10.1788 4.29184C10.2284 4.32732 10.2784 4.38471 10.3183 4.4914L11.5226 8.478L11.6299 8.83341H12.0012H15.7304C15.8496 8.83341 15.908 8.86108 15.9391 8.88369C15.971 8.90689 16.0185 8.9571 16.0595 9.0777C16.0994 9.19588 16.0901 9.25841 16.0802 9.28925C16.0703 9.31987 16.0418 9.37512 15.9414 9.44624L15.9408 9.44662L12.92 11.5925L12.6253 11.8018L12.7317 12.1473L13.9175 15.9959C13.9494 16.1099 13.9394 16.175 13.926 16.2128C13.9122 16.2515 13.8771 16.3112 13.7747 16.3837C13.6732 16.4556 13.6112 16.4644 13.5796 16.4637C13.5483 16.4631 13.4883 16.452 13.3927 16.3772L13.3927 16.3771L13.388 16.3735L10.3046 14.0193L10.0012 13.7877L9.6978 14.0193L6.61446 16.3735Z" fill="#FFFEFB" stroke="#E06437"/>
</g>
</svg>
