<svg width="20" height="20" viewBox="0 0 20 20" fill="none" xmlns="http://www.w3.org/2000/svg">
<mask id="mask0_423_686" style="mask-type:alpha" maskUnits="userSpaceOnUse" x="0" y="0" width="20" height="20">
<rect width="20" height="20" fill="#D9D9D9"/>
</mask>
<g mask="url(#mask0_423_686)">
<path d="M6.91789 16.7708C6.59845 17.0208 6.27206 17.0278 5.93872 16.7917C5.60539 16.5555 5.49428 16.243 5.60539 15.8542L6.79289 12L3.77206 9.85416C3.43872 9.61805 3.33817 9.30555 3.47039 8.91666C3.60206 8.52777 3.86928 8.33332 4.27206 8.33332H8.00122L9.20956 4.33332C9.279 4.13888 9.38678 3.98943 9.53289 3.88499C9.67845 3.7811 9.83456 3.72916 10.0012 3.72916C10.1679 3.72916 10.324 3.7811 10.4696 3.88499C10.6157 3.98943 10.7234 4.13888 10.7929 4.33332L12.0012 8.33332H15.7304C16.1332 8.33332 16.4007 8.52777 16.5329 8.91666C16.6646 9.30555 16.5637 9.61805 16.2304 9.85416L13.2096 12L14.3971 15.8542C14.5082 16.243 14.3971 16.5555 14.0637 16.7917C13.7304 17.0278 13.404 17.0208 13.0846 16.7708L10.0012 14.4167L6.91789 16.7708Z" fill="#E06437"/>
</g>
</svg>
