<svg width="711" height="12" viewBox="0 0 711 12" fill="none" xmlns="http://www.w3.org/2000/svg">
<path d="M42.9154 1C42.9154 6.52285 33.5323 11 21.9577 11C10.3831 11 1 6.52285 1 1" stroke="#DBDE50" stroke-opacity="0.6" stroke-width="2" stroke-linecap="round" stroke-linejoin="round"/>
<path d="M83.8099 1C83.8099 6.52285 74.4268 11 62.8522 11C51.2776 11 41.8945 6.52285 41.8945 1" stroke="#DBDE50" stroke-opacity="0.6" stroke-width="2" stroke-linecap="round" stroke-linejoin="round"/>
<path d="M125.721 1C125.721 6.52285 116.109 11 104.252 11C92.3951 11 82.7832 6.52285 82.7832 1" stroke="#DBDE50" stroke-opacity="0.6" stroke-width="2" stroke-linecap="round" stroke-linejoin="round"/>
<path d="M166.617 1C166.617 6.52285 157.005 11 145.149 11C133.292 11 123.68 6.52285 123.68 1" stroke="#DBDE50" stroke-opacity="0.6" stroke-width="2" stroke-linecap="round" stroke-linejoin="round"/>
<path d="M207.511 1C207.511 6.52285 198.128 11 186.553 11C174.979 11 165.596 6.52285 165.596 1" stroke="#DBDE50" stroke-opacity="0.6" stroke-width="2" stroke-linecap="round" stroke-linejoin="round"/>
<path d="M248.402 1C248.402 6.52285 239.019 11 227.444 11C215.869 11 206.486 6.52285 206.486 1" stroke="#DBDE50" stroke-opacity="0.6" stroke-width="2" stroke-linecap="round" stroke-linejoin="round"/>
<path d="M290.32 1C290.32 6.52285 280.937 11 269.362 11C257.787 11 248.404 6.52285 248.404 1" stroke="#DBDE50" stroke-opacity="0.6" stroke-width="2" stroke-linecap="round" stroke-linejoin="round"/>
<path d="M332.187 1C332.187 6.52285 322.804 11 311.229 11C299.655 11 290.271 6.52285 290.271 1" stroke="#DBDE50" stroke-opacity="0.6" stroke-width="2" stroke-linecap="round" stroke-linejoin="round"/>
<path d="M374.056 1C374.056 6.52285 364.673 11 353.098 11C341.524 11 332.141 6.52285 332.141 1" stroke="#DBDE50" stroke-opacity="0.6" stroke-width="2" stroke-linecap="round" stroke-linejoin="round"/>
<path d="M415.923 1C415.923 6.52285 406.54 11 394.965 11C383.391 11 374.008 6.52285 374.008 1" stroke="#DBDE50" stroke-opacity="0.6" stroke-width="2" stroke-linecap="round" stroke-linejoin="round"/>
<path d="M457.792 1C457.792 6.52285 448.409 11 436.835 11C425.26 11 415.877 6.52285 415.877 1" stroke="#DBDE50" stroke-opacity="0.6" stroke-width="2" stroke-linecap="round" stroke-linejoin="round"/>
<path d="M499.66 1C499.66 6.52285 490.276 11 478.702 11C467.127 11 457.744 6.52285 457.744 1" stroke="#DBDE50" stroke-opacity="0.6" stroke-width="2" stroke-linecap="round" stroke-linejoin="round"/>
<path d="M541.529 1C541.529 6.52285 532.146 11 520.571 11C508.996 11 499.613 6.52285 499.613 1" stroke="#DBDE50" stroke-opacity="0.6" stroke-width="2" stroke-linecap="round" stroke-linejoin="round"/>
<path d="M583.396 1C583.396 6.52285 574.013 11 562.438 11C550.864 11 541.48 6.52285 541.48 1" stroke="#DBDE50" stroke-opacity="0.6" stroke-width="2" stroke-linecap="round" stroke-linejoin="round"/>
<path d="M625.265 1C625.265 6.52285 615.882 11 604.307 11C592.733 11 583.35 6.52285 583.35 1" stroke="#DBDE50" stroke-opacity="0.6" stroke-width="2" stroke-linecap="round" stroke-linejoin="round"/>
<path d="M667.132 1C667.132 6.52285 657.749 11 646.174 11C634.6 11 625.217 6.52285 625.217 1" stroke="#DBDE50" stroke-opacity="0.6" stroke-width="2" stroke-linecap="round" stroke-linejoin="round"/>
<path d="M709.001 1C709.001 6.52285 699.618 11 688.044 11C676.469 11 667.086 6.52285 667.086 1" stroke="#DBDE50" stroke-opacity="0.6" stroke-width="2" stroke-linecap="round" stroke-linejoin="round"/>
</svg>
