<svg width="116" height="56" viewBox="0 0 116 56" fill="none" xmlns="http://www.w3.org/2000/svg">
<path d="M66.081 1H35.873" stroke="#494646" stroke-width="2" stroke-linecap="round" stroke-linejoin="round"/>
<path d="M50.2214 1L58.5286 33.7042C54.2491 33.9577 45.6902 37.2028 45.6902 48.1549H21.5239C21.5239 43.338 17.8234 33.7042 3.02148 33.7042" stroke="#494646" stroke-width="2" stroke-linecap="round" stroke-linejoin="round"/>
<path d="M66.2114 47.3942C66.2114 51.0491 63.2713 53.9998 59.6594 53.9998C56.0475 53.9998 53.1074 51.0491 53.1074 47.3942C53.1074 43.7393 56.0475 40.7886 59.6594 40.7886C63.2713 40.7886 66.2114 43.7393 66.2114 47.3942Z" stroke="#494646" stroke-width="2" stroke-linecap="round" stroke-linejoin="round"/>
<path d="M14.104 47.3942C14.104 51.0491 11.1639 53.9998 7.55199 53.9998C3.94009 53.9998 1 51.0491 1 47.3942C1 43.7393 3.94009 40.7886 7.55199 40.7886C11.1639 40.7886 14.104 43.7393 14.104 47.3942Z" stroke="#494646" stroke-width="2" stroke-linecap="round" stroke-linejoin="round"/>
<path d="M115 55H92.3438" stroke="#494646" stroke-width="2" stroke-linecap="round" stroke-linejoin="round"/>
</svg>
