<svg width="58" height="58" viewBox="0 0 58 58" fill="none" xmlns="http://www.w3.org/2000/svg">
<g filter="url(#filter0_d_425_885)">
<rect x="4" y="2" width="50" height="50" rx="8" fill="#BDBFC0" fill-opacity="0.8"/>
<mask id="mask0_425_885" style="mask-type:alpha" maskUnits="userSpaceOnUse" x="14" y="12" width="30" height="30">
<rect x="14" y="12" width="30" height="30" fill="#D9D9D9"/>
</mask>
<g mask="url(#mask0_425_885)">
<path d="M21.5 28.25C21.1458 28.25 20.8488 28.13 20.6088 27.89C20.3696 27.6508 20.25 27.3542 20.25 27C20.25 26.6458 20.3696 26.3487 20.6088 26.1087C20.8488 25.8696 21.1458 25.75 21.5 25.75H36.5C36.8542 25.75 37.1508 25.8696 37.39 26.1087C37.63 26.3487 37.75 26.6458 37.75 27C37.75 27.3542 37.63 27.6508 37.39 27.89C37.1508 28.13 36.8542 28.25 36.5 28.25H21.5Z" fill="#FFFEFB"/>
</g>
</g>
<defs>
<filter id="filter0_d_425_885" x="0" y="0" width="58" height="58" filterUnits="userSpaceOnUse" color-interpolation-filters="sRGB">
<feFlood flood-opacity="0" result="BackgroundImageFix"/>
<feColorMatrix in="SourceAlpha" type="matrix" values="0 0 0 0 0 0 0 0 0 0 0 0 0 0 0 0 0 0 127 0" result="hardAlpha"/>
<feOffset dy="2"/>
<feGaussianBlur stdDeviation="2"/>
<feComposite in2="hardAlpha" operator="out"/>
<feColorMatrix type="matrix" values="0 0 0 0 0.286275 0 0 0 0 0.27451 0 0 0 0 0.27451 0 0 0 0.1 0"/>
<feBlend mode="normal" in2="BackgroundImageFix" result="effect1_dropShadow_425_885"/>
<feBlend mode="normal" in="SourceGraphic" in2="effect1_dropShadow_425_885" result="shape"/>
</filter>
</defs>
</svg>
