<svg width="1000" height="440" viewBox="0 0 1000 440" fill="none" xmlns="http://www.w3.org/2000/svg">
<rect width="1000" height="440" fill="#CBE5F2"/>
<g filter="url(#filter0_d_383_971)">
<rect x="732" y="328" width="220" height="70" rx="35" fill="#EA973E"/>
<path d="M841.672 368.44C841.032 368.88 840.279 369.207 839.412 369.42C838.559 369.633 837.679 369.74 836.772 369.74C835.812 369.74 834.952 369.607 834.192 369.34C833.432 369.087 832.785 368.693 832.252 368.16C831.732 367.627 831.325 366.967 831.032 366.18C830.752 365.393 830.612 364.467 830.612 363.4V361.22C830.612 360.167 830.752 359.247 831.032 358.46C831.312 357.673 831.712 357.013 832.232 356.48C832.752 355.947 833.379 355.547 834.112 355.28C834.859 355.013 835.692 354.88 836.612 354.88C837.545 354.88 838.405 355 839.192 355.24C839.979 355.48 840.712 355.867 841.392 356.4L840.372 358C839.745 357.507 839.132 357.167 838.532 356.98C837.932 356.78 837.292 356.68 836.612 356.68C835.359 356.68 834.372 357.067 833.652 357.84C832.945 358.6 832.592 359.813 832.592 361.48V363.14C832.592 364.807 832.972 366.027 833.732 366.8C834.505 367.56 835.539 367.94 836.832 367.94C837.379 367.94 837.892 367.893 838.372 367.8C838.865 367.693 839.305 367.547 839.692 367.36V363.3H836.492V361.6H841.672V368.44ZM848.71 358.38C850.217 358.38 851.403 358.813 852.27 359.68C853.15 360.547 853.59 361.773 853.59 363.36V364.7C853.59 366.287 853.15 367.513 852.27 368.38C851.403 369.247 850.217 369.68 848.71 369.68C847.203 369.68 846.01 369.247 845.13 368.38C844.263 367.513 843.83 366.287 843.83 364.7V363.36C843.83 361.76 844.263 360.533 845.13 359.68C846.01 358.813 847.203 358.38 848.71 358.38ZM848.71 367.98C849.577 367.98 850.277 367.7 850.81 367.14C851.357 366.567 851.63 365.7 851.63 364.54V363.52C851.63 362.36 851.357 361.5 850.81 360.94C850.277 360.367 849.577 360.08 848.71 360.08C847.843 360.08 847.137 360.367 846.59 360.94C846.057 361.5 845.79 362.36 845.79 363.52V364.54C845.79 365.7 846.057 366.567 846.59 367.14C847.137 367.7 847.843 367.98 848.71 367.98Z" fill="#FFFEFB"/>
</g>
<path d="M427.885 107.76H410.525V90.76H427.885V107.76ZM422.885 94.96H415.525V103.56H422.885V94.96ZM438.645 96.96H443.525V101.36H438.645V112.64H433.605V88.56H438.645V96.96ZM426.925 119.6C426.792 119.973 426.378 120.387 425.685 120.84C425.018 121.293 424.138 121.8 423.045 122.36C421.765 123.027 420.418 123.68 419.005 124.32C417.592 124.987 416.205 125.6 414.845 126.16L412.845 122C414.338 121.387 415.858 120.733 417.405 120.04C418.952 119.347 420.312 118.693 421.485 118.08C422.418 117.573 423.112 116.987 423.565 116.32C424.018 115.653 424.245 114.813 424.245 113.8V110.6H429.365V113.8C429.365 114.813 429.565 115.653 429.965 116.32C430.392 116.96 431.098 117.547 432.085 118.08C432.645 118.373 433.285 118.693 434.005 119.04C434.725 119.387 435.458 119.733 436.205 120.08C436.978 120.427 437.752 120.76 438.525 121.08C439.325 121.427 440.072 121.733 440.765 122L438.805 126.04C437.338 125.4 435.925 124.76 434.565 124.12C433.232 123.507 431.925 122.88 430.645 122.24C429.605 121.707 428.765 121.213 428.125 120.76C427.485 120.333 427.098 119.947 426.965 119.6H426.925ZM474.459 109.48V125.8H450.779V109.48H455.779V113.64H469.459V109.48H474.459ZM474.459 107.8H469.419V88.56H474.459V107.8ZM469.459 121.64V117.8H455.779V121.64H469.459ZM445.779 90.6H465.059V94.88H458.099V96.6C458.099 97.0533 458.139 97.4667 458.219 97.84C458.299 98.2133 458.432 98.5733 458.619 98.92C458.832 99.24 459.126 99.5733 459.499 99.92C459.872 100.24 460.352 100.6 460.939 101C461.712 101.533 462.579 102.107 463.539 102.72C464.526 103.333 465.486 103.907 466.419 104.44L463.859 108.08C463.006 107.547 462.152 107.013 461.299 106.48C460.446 105.947 459.606 105.413 458.779 104.88C457.099 103.787 456.139 103.013 455.899 102.56H455.859C455.672 103.013 454.686 103.893 452.899 105.2C452.072 105.813 451.192 106.44 450.259 107.08C449.326 107.72 448.232 108.44 446.979 109.24L444.219 105.44C446.779 103.84 448.979 102.32 450.819 100.88C451.672 100.187 452.259 99.5333 452.579 98.92C452.899 98.3067 453.059 97.5333 453.059 96.6V94.88H445.779V90.6ZM519.273 125.76H514.193V88.56H519.273V125.76ZM495.553 112.64H499.433C501.273 112.64 503.18 112.587 505.153 112.48C507.126 112.347 509.046 112.16 510.913 111.92L511.473 116.16C509.58 116.453 507.513 116.653 505.273 116.76C503.033 116.867 500.686 116.92 498.233 116.92H490.553V101.8H502.553V95.72H490.553V91.44H507.553V105.92H495.553V112.64ZM556.447 116.8V121.08H522.367V116.8H556.447ZM539.527 103.32C539.314 103.773 538.86 104.267 538.167 104.8C537.5 105.307 536.66 105.907 535.647 106.6C534.554 107.32 533.287 108.12 531.847 109C530.407 109.853 528.727 110.827 526.807 111.92L524.327 107.92C525.794 107.093 527.274 106.24 528.767 105.36C530.26 104.453 531.594 103.6 532.767 102.8C533.567 102.267 534.22 101.733 534.727 101.2C535.26 100.667 535.674 100.107 535.967 99.52C536.287 98.9067 536.514 98.2533 536.647 97.56C536.78 96.8667 536.847 96.08 536.847 95.2V91.08H541.967V95.2C541.967 96.08 542.034 96.8667 542.167 97.56C542.3 98.2533 542.514 98.9067 542.807 99.52C543.127 100.107 543.54 100.667 544.047 101.2C544.58 101.733 545.247 102.267 546.047 102.8C547.22 103.6 548.554 104.453 550.047 105.36C551.54 106.24 553.02 107.093 554.487 107.92L552.047 111.84C550.127 110.747 548.447 109.773 547.007 108.92C545.567 108.04 544.3 107.24 543.207 106.52C542.194 105.827 541.38 105.24 540.767 104.76C540.18 104.253 539.78 103.773 539.567 103.32H539.527ZM590.861 116.8V121.08H556.781V116.8H590.861ZM586.501 111.72H561.181V91.32H586.101V95.56H566.181V99.4H585.781V103.64H566.181V107.48H586.501V111.72Z" fill="#1F1818"/>
<path d="M437.355 54.88C437.355 54.2267 437.515 53.64 437.835 53.12C438.155 52.5867 438.589 52.1333 439.135 51.76C439.682 51.3733 440.315 51.08 441.035 50.88C441.769 50.6667 442.549 50.56 443.375 50.56C444.189 50.56 444.955 50.6667 445.675 50.88C446.409 51.08 447.049 51.3733 447.595 51.76C448.155 52.1333 448.595 52.5867 448.915 53.12C449.235 53.64 449.395 54.2267 449.395 54.88V55.86C449.395 56.46 449.255 57.0133 448.975 57.52C448.695 58.0267 448.315 58.4667 447.835 58.84C447.355 59.2 446.795 59.5 446.155 59.74C445.515 59.9667 444.829 60.1067 444.095 60.16V63.92H451.775V65.14H434.975V63.92H442.655V60.16C441.909 60.1067 441.215 59.9667 440.575 59.74C439.935 59.5 439.375 59.2 438.895 58.84C438.415 58.4667 438.035 58.0267 437.755 57.52C437.489 57.0133 437.355 56.46 437.355 55.86V54.88ZM443.375 51.86C442.722 51.86 442.115 51.94 441.555 52.1C440.995 52.2467 440.509 52.46 440.095 52.74C439.682 53.0067 439.355 53.3267 439.115 53.7C438.875 54.0733 438.755 54.4867 438.755 54.94V55.8C438.755 56.2533 438.875 56.6667 439.115 57.04C439.355 57.4133 439.682 57.74 440.095 58.02C440.509 58.2867 440.995 58.5 441.555 58.66C442.115 58.8067 442.722 58.88 443.375 58.88C444.015 58.88 444.615 58.8067 445.175 58.66C445.749 58.5 446.242 58.2867 446.655 58.02C447.069 57.74 447.395 57.4133 447.635 57.04C447.875 56.6667 447.995 56.2533 447.995 55.8V54.94C447.995 54.4867 447.875 54.0733 447.635 53.7C447.395 53.3267 447.069 53.0067 446.655 52.74C446.242 52.46 445.749 52.2467 445.175 52.1C444.615 51.94 444.015 51.86 443.375 51.86ZM468.982 57.16V58.36H452.182V57.16H468.982ZM466.482 60.26V64.62H456.062V66.6H467.022V67.8H454.682V63.44H465.102V61.46H454.582V60.26H466.482ZM456.162 54H466.602V55.24H454.742V49.88H456.162V54ZM484.849 52.38H480.749V55.24C480.749 55.6267 480.763 55.96 480.789 56.24C480.816 56.52 480.869 56.7867 480.949 57.04C481.029 57.2933 481.143 57.5467 481.289 57.8C481.449 58.04 481.663 58.3133 481.929 58.62C482.316 59.0733 482.796 59.5867 483.369 60.16C483.956 60.7333 484.623 61.3533 485.369 62.02L484.449 62.96C483.756 62.32 483.156 61.7467 482.649 61.24C482.156 60.7333 481.709 60.2667 481.309 59.84C481.016 59.5333 480.749 59.24 480.509 58.96C480.269 58.68 480.123 58.4733 480.069 58.34H480.049C480.023 58.4333 479.956 58.5533 479.849 58.7C479.756 58.8467 479.636 59.0067 479.489 59.18C479.356 59.3533 479.209 59.5333 479.049 59.72C478.889 59.8933 478.736 60.06 478.589 60.22C478.456 60.3667 478.276 60.56 478.049 60.8C477.823 61.0267 477.569 61.28 477.289 61.56C477.023 61.8267 476.729 62.1133 476.409 62.42C476.103 62.7133 475.803 62.9867 475.509 63.24L474.569 62.3C475.209 61.74 475.803 61.1867 476.349 60.64C476.909 60.0933 477.423 59.56 477.889 59.04C478.209 58.68 478.463 58.36 478.649 58.08C478.836 57.7867 478.976 57.5 479.069 57.22C479.176 56.94 479.243 56.6533 479.269 56.36C479.309 56.0667 479.329 55.7267 479.329 55.34V52.38H475.129V51.14H484.849V52.38ZM488.109 55.76V49.44H489.529V67.72H488.109V57.04H483.969V55.76H488.109ZM505.336 51.52V49.44H506.716V60.18H505.336V55.82H499.816V54.6H505.336V52.74H499.816V51.52H505.336ZM494.276 50.4V57.86C495.25 57.86 496.103 57.8533 496.836 57.84C497.57 57.8267 498.256 57.8067 498.896 57.78C499.55 57.74 500.19 57.6933 500.816 57.64C501.443 57.5733 502.136 57.4867 502.896 57.38L503.056 58.64C502.27 58.7467 501.55 58.8333 500.896 58.9C500.243 58.9667 499.55 59.02 498.816 59.06C498.083 59.0867 497.243 59.1067 496.296 59.12C495.363 59.1333 494.216 59.14 492.856 59.14V50.4H494.276ZM494.936 61.26H506.716V67.86H505.336V62.52H494.936V61.26ZM525.604 59.06V60.28H508.804V59.06H525.604ZM512.704 66.26H523.504V67.5H511.284V62.12H512.704V66.26ZM517.204 57.38C516.39 57.38 515.63 57.3 514.924 57.14C514.23 56.98 513.624 56.7533 513.104 56.46C512.597 56.1667 512.197 55.8133 511.904 55.4C511.61 54.9733 511.464 54.5067 511.464 54V53.24C511.464 52.7333 511.61 52.2733 511.904 51.86C512.197 51.4333 512.597 51.0733 513.104 50.78C513.624 50.4867 514.23 50.26 514.924 50.1C515.63 49.94 516.39 49.86 517.204 49.86C518.017 49.86 518.77 49.94 519.464 50.1C520.17 50.26 520.777 50.4867 521.284 50.78C521.804 51.0733 522.21 51.4333 522.504 51.86C522.797 52.2733 522.944 52.7333 522.944 53.24V54C522.944 54.5067 522.797 54.9733 522.504 55.4C522.21 55.8133 521.804 56.1667 521.284 56.46C520.777 56.7533 520.17 56.98 519.464 57.14C518.77 57.3 518.017 57.38 517.204 57.38ZM517.204 51.06C516.617 51.06 516.057 51.12 515.524 51.24C515.004 51.3467 514.544 51.5 514.144 51.7C513.744 51.9 513.424 52.14 513.184 52.42C512.944 52.7 512.824 53.0067 512.824 53.34V53.9C512.824 54.2333 512.944 54.54 513.184 54.82C513.424 55.1 513.744 55.34 514.144 55.54C514.544 55.74 515.004 55.9 515.524 56.02C516.057 56.1267 516.617 56.18 517.204 56.18C517.79 56.18 518.344 56.1267 518.864 56.02C519.397 55.9 519.864 55.74 520.264 55.54C520.664 55.34 520.984 55.1 521.224 54.82C521.464 54.54 521.584 54.2333 521.584 53.9V53.34C521.584 53.0067 521.464 52.7 521.224 52.42C520.984 52.14 520.664 51.9 520.264 51.7C519.864 51.5 519.397 51.3467 518.864 51.24C518.344 51.12 517.79 51.06 517.204 51.06ZM546.171 67.74H544.791V60.06H540.371C540.077 61.0733 539.571 61.8533 538.851 62.4C538.144 62.9333 537.251 63.2 536.171 63.2C534.757 63.2 533.651 62.74 532.851 61.82C532.064 60.8867 531.671 59.58 531.671 57.9V56.02C531.671 54.3533 532.064 53.06 532.851 52.14C533.651 51.2067 534.757 50.74 536.171 50.74C537.237 50.74 538.124 51.0133 538.831 51.56C539.551 52.0933 540.064 52.86 540.371 53.86H544.791V49.44H546.171V67.74ZM539.291 56.28C539.291 55.52 539.217 54.8733 539.071 54.34C538.924 53.8067 538.711 53.3733 538.431 53.04C538.164 52.6933 537.837 52.4467 537.451 52.3C537.064 52.14 536.637 52.06 536.171 52.06C535.704 52.06 535.277 52.14 534.891 52.3C534.504 52.4467 534.171 52.6933 533.891 53.04C533.624 53.3733 533.417 53.8067 533.271 54.34C533.124 54.8733 533.051 55.52 533.051 56.28V57.66C533.051 58.42 533.124 59.0733 533.271 59.62C533.417 60.1533 533.624 60.5933 533.891 60.94C534.171 61.2733 534.504 61.52 534.891 61.68C535.277 61.8267 535.704 61.9 536.171 61.9C536.637 61.9 537.064 61.8267 537.451 61.68C537.837 61.52 538.164 61.2733 538.431 60.94C538.711 60.5933 538.924 60.1533 539.071 59.62C539.217 59.0733 539.291 58.42 539.291 57.66V56.28ZM540.671 57.9C540.671 58.0467 540.664 58.1933 540.651 58.34C540.651 58.4867 540.644 58.6333 540.631 58.78H544.791V55.14H540.631C540.644 55.2867 540.651 55.44 540.651 55.6C540.664 55.7467 540.671 55.8933 540.671 56.04V57.9ZM563.258 67.72H561.838V49.44H563.258V67.72ZM549.158 62.42C550.691 61.54 551.911 60.7867 552.818 60.16C553.724 59.52 554.411 58.9267 554.878 58.38C555.344 57.82 555.644 57.26 555.778 56.7C555.924 56.14 555.998 55.4867 555.998 54.74V52.44H549.358V51.16H557.378V54.76C557.378 55.3733 557.344 55.9267 557.278 56.42C557.211 56.9133 557.078 57.38 556.878 57.82C556.691 58.26 556.424 58.6867 556.078 59.1C555.731 59.5133 555.278 59.9467 554.718 60.4C554.171 60.8533 553.498 61.34 552.698 61.86C551.911 62.3667 550.978 62.9333 549.898 63.56L549.158 62.42Z" fill="#1F1818"/>
<path d="M364.081 289H333.873" stroke="#494646" stroke-width="2" stroke-linecap="round" stroke-linejoin="round"/>
<path d="M348.221 289L356.529 321.704C352.249 321.958 343.69 325.203 343.69 336.155H319.524C319.524 331.338 315.823 321.704 301.021 321.704" stroke="#494646" stroke-width="2" stroke-linecap="round" stroke-linejoin="round"/>
<path d="M364.211 335.394C364.211 339.049 361.271 342 357.659 342C354.048 342 351.107 339.049 351.107 335.394C351.107 331.739 354.048 328.789 357.659 328.789C361.271 328.789 364.211 331.739 364.211 335.394Z" stroke="#494646" stroke-width="2" stroke-linecap="round" stroke-linejoin="round"/>
<path d="M312.104 335.394C312.104 339.049 309.164 342 305.552 342C301.94 342 299 339.049 299 335.394C299 331.739 301.94 328.789 305.552 328.789C309.164 328.789 312.104 331.739 312.104 335.394Z" stroke="#494646" stroke-width="2" stroke-linecap="round" stroke-linejoin="round"/>
<path d="M413 343H390.344" stroke="#494646" stroke-width="2" stroke-linecap="round" stroke-linejoin="round"/>
<path d="M634 343H594" stroke="#494646" stroke-width="2" stroke-linecap="round" stroke-linejoin="round"/>
<path d="M509.263 198.242C473.418 198.242 439.92 230.253 439.92 265.047C439.92 295.617 465.778 317.348 496.367 322.174L497.424 331.43C495.239 330.937 489.136 331.515 482.202 337.773C473.534 345.595 501.44 347.498 508.206 340.521C513.741 343.789 526.41 347.802 534.921 339.333C535.85 338.407 536.129 336.972 535.271 335.98C533.231 333.624 528.213 330.9 518.142 331.43L519.622 322.335C550.726 317.194 575.223 289.452 575.223 258.071C575.223 223.277 545.108 198.242 509.263 198.242Z" fill="#E5E792"/>
<g filter="url(#filter1_d_383_971)">
<path d="M496.724 179.56C496.724 177.693 497.017 176.04 497.604 174.6C498.244 173.16 499.017 171.88 499.924 170.76C500.884 169.64 501.897 168.6 502.964 167.64C504.031 166.68 505.017 165.773 505.924 164.92C506.884 164.013 507.657 163.08 508.244 162.12C508.884 161.16 509.204 160.093 509.204 158.92C509.204 157 508.404 155.453 506.804 154.28C505.257 153.107 503.177 152.52 500.564 152.52C498.057 152.52 495.817 153.053 493.844 154.12C491.871 155.133 490.244 156.573 488.964 158.44L479.284 152.76C481.417 149.507 484.377 146.92 488.164 145C491.951 143.027 496.537 142.04 501.924 142.04C505.924 142.04 509.444 142.627 512.484 143.8C515.524 144.92 517.897 146.573 519.604 148.76C521.364 150.947 522.244 153.64 522.244 156.84C522.244 158.92 521.924 160.76 521.284 162.36C520.644 163.96 519.817 165.347 518.804 166.52C517.791 167.693 516.697 168.787 515.524 169.8C514.404 170.813 513.337 171.8 512.324 172.76C511.311 173.72 510.457 174.733 509.764 175.8C509.124 176.867 508.804 178.12 508.804 179.56H496.724ZM502.804 199.64C500.564 199.64 498.724 198.92 497.284 197.48C495.844 196.04 495.124 194.333 495.124 192.36C495.124 190.333 495.844 188.653 497.284 187.32C498.724 185.933 500.564 185.24 502.804 185.24C505.097 185.24 506.937 185.933 508.324 187.32C509.764 188.653 510.484 190.333 510.484 192.36C510.484 194.333 509.764 196.04 508.324 197.48C506.937 198.92 505.097 199.64 502.804 199.64Z" fill="#494646"/>
</g>
<path d="M503.343 319.803L502.286 337.139M502.286 337.139C495.521 344.115 467.614 342.213 476.282 334.39C483.216 328.133 489.319 327.555 491.504 328.048L490.447 318.792C459.858 313.966 434 292.235 434 261.665C434 226.871 467.498 194.859 503.343 194.859C539.188 194.859 569.303 219.894 569.303 254.689C569.303 286.07 544.806 313.812 513.702 318.952L512.222 328.048C522.293 327.518 527.311 330.241 529.351 332.598C530.21 333.589 529.931 335.025 529.001 335.95C520.49 344.42 507.821 340.407 502.286 337.139Z" stroke="#494646" stroke-width="6" stroke-linejoin="round"/>
<path d="M560.425 252.749C560.425 222.525 534.264 200.779 503.124 200.779C454.345 206.068 442.64 241.669 442.885 258.809C442.885 285.363 465.348 304.239 491.921 308.431C495.839 308.844 505.364 309.449 512.123 308.571C539.144 304.106 560.425 280.008 560.425 252.749Z" stroke="#EA973E" stroke-width="6" stroke-linejoin="round"/>
<ellipse cx="515.331" cy="222.812" rx="3.38257" ry="6.34232" transform="rotate(9.44975 515.331 222.812)" fill="#333030"/>
<ellipse cx="491.231" cy="222.812" rx="3.38257" ry="6.34232" transform="rotate(9.44975 491.231 222.812)" fill="#333030"/>
<path d="M460.635 231.64C461.41 231.006 463.806 230.118 467.188 231.64" stroke="#333030" stroke-width="8" stroke-linecap="round"/>
<path d="M535.897 237.343C536.421 236.914 537.684 236.37 539.491 236.531M542.451 237.343C541.353 236.849 540.36 236.608 539.491 236.531M539.491 236.531C539.28 256.183 531.035 295.19 499.746 294.006C460.635 292.526 463.383 245.804 463.806 231.005" stroke="#333030" stroke-width="8" stroke-linecap="round"/>
<ellipse cx="541.186" cy="240.524" rx="12.4732" ry="6.34232" fill="#EA973E"/>
<ellipse cx="464.655" cy="234.605" rx="12.4732" ry="6.34232" fill="#EA973E"/>
<path d="M478.099 373.706C477.232 374.043 476.157 374.179 474.905 374.091C473.645 374.003 472.329 373.698 470.98 373.16C469.472 372.566 468.284 371.836 467.417 371.017C466.55 370.199 466.021 369.348 465.812 368.498C465.612 367.639 465.716 366.82 466.117 366.026C466.526 365.223 467.128 364.653 467.899 364.308C468.669 363.963 469.496 363.843 470.37 363.931C469.889 363.377 469.608 362.743 469.544 362.029C469.472 361.315 469.624 360.609 469.977 359.895C470.346 359.156 470.884 358.594 471.566 358.193C472.256 357.792 473.075 357.599 474.038 357.591C475.001 357.591 476.044 357.816 477.2 358.273C478.018 358.594 478.781 358.988 479.495 359.453C480.209 359.927 480.803 360.432 481.277 360.986C480.835 361.604 480.611 361.909 480.161 362.527C479.174 361.451 477.994 360.665 476.574 360.103C475.394 359.646 474.415 359.485 473.597 359.662C472.778 359.838 472.2 360.264 471.871 360.978C471.542 361.692 471.542 362.35 471.871 362.96C472.2 363.57 472.85 364.084 473.813 364.469C475.314 365.079 476.068 365.36 477.593 365.881C477.344 366.612 477.216 366.981 476.967 367.719C475.37 367.173 474.576 366.876 473.003 366.234C471.879 365.777 470.916 365.584 470.106 365.673C469.295 365.769 468.701 366.186 468.34 366.949C467.979 367.727 468.059 368.506 468.629 369.292C469.191 370.07 470.25 370.801 471.799 371.411C472.874 371.836 473.958 372.077 475.025 372.141C476.1 372.205 477.031 372.085 477.81 371.788C477.914 372.558 477.97 372.943 478.083 373.714L478.099 373.706Z" fill="#9BC558"/>
<path d="M492.392 367.438C493.138 368.417 493.443 369.733 493.275 371.427C492.994 374.163 492.857 375.528 492.576 378.264C491.629 378.168 491.156 378.112 490.209 377.983C490.554 375.359 490.731 374.043 491.076 371.411C491.228 370.263 491.068 369.364 490.61 368.706C490.153 368.048 489.447 367.647 488.46 367.47C487.344 367.27 486.405 367.43 485.611 367.952C484.816 368.482 484.262 369.356 483.973 370.6C483.42 373 483.139 374.195 482.585 376.595C481.654 376.378 481.189 376.266 480.258 376.017C481.478 371.395 482.08 369.083 483.299 364.461C484.062 364.662 484.439 364.758 485.201 364.934C485.041 365.641 484.953 365.986 484.792 366.692C485.346 366.186 485.996 365.849 486.75 365.673C487.505 365.488 488.315 365.48 489.198 365.633C490.602 365.873 491.654 366.459 492.4 367.43L492.392 367.438Z" fill="#9BC558"/>
<path d="M493.306 382.678C492.793 382.509 492.384 382.292 492.062 382.012C492.456 381.378 492.64 381.065 493.026 380.431C493.499 380.848 494.149 381.097 494.968 381.153C495.618 381.201 496.131 381.049 496.492 380.711C496.862 380.374 497.054 379.861 497.086 379.171C497.319 374.163 497.431 371.659 497.664 366.651C498.475 366.691 498.884 366.7 499.694 366.716C499.614 371.707 499.574 374.203 499.494 379.203C499.478 380.431 499.085 381.402 498.306 382.084C497.528 382.766 496.412 383.079 495 382.983C494.39 382.942 493.828 382.838 493.314 382.67L493.306 382.678ZM497.809 363.963C497.568 363.682 497.463 363.345 497.488 362.952C497.504 362.559 497.648 362.238 497.905 361.965C498.162 361.7 498.467 361.571 498.836 361.579C499.205 361.587 499.502 361.732 499.743 361.997C499.983 362.262 500.104 362.591 500.096 362.984C500.096 363.393 499.967 363.73 499.71 364.003C499.454 364.276 499.133 364.412 498.755 364.396C498.37 364.388 498.065 364.236 497.825 363.955L497.809 363.963Z" fill="#9BC558"/>
<path d="M506.09 377.855C505.023 377.397 504.188 376.707 503.586 375.808C502.984 374.901 502.687 373.866 502.655 372.686C502.623 371.515 502.872 370.463 503.361 369.517C503.851 368.578 504.525 367.823 505.384 367.245C506.242 366.668 507.213 366.331 508.321 366.202C509.428 366.082 510.448 366.202 511.411 366.579C512.374 366.956 513.192 367.542 513.874 368.353C514.556 369.163 515.03 370.142 515.255 371.29C515.479 372.438 515.415 373.521 515.022 374.532C514.629 375.543 513.971 376.402 513.032 377.076C512.093 377.75 510.961 378.176 509.661 378.32C508.361 378.465 507.157 378.296 506.09 377.847V377.855ZM511.587 375.648C512.189 375.206 512.614 374.637 512.871 373.954C513.128 373.264 513.184 372.518 513.048 371.699C512.911 370.881 512.622 370.191 512.181 369.613C511.74 369.035 511.21 368.618 510.576 368.361C509.942 368.104 509.268 368.016 508.53 368.096C507.799 368.176 507.157 368.409 506.595 368.802C506.034 369.196 505.6 369.717 505.287 370.375C504.974 371.033 504.838 371.772 504.886 372.598C504.934 373.425 505.151 374.147 505.56 374.757C505.97 375.375 506.515 375.832 507.189 376.129C507.871 376.426 508.626 376.539 509.444 376.442C510.263 376.346 510.985 376.081 511.579 375.64L511.587 375.648Z" fill="#9BC558"/>
<path d="M526.916 361.588C528.48 365.408 529.267 367.318 530.832 371.138C531.626 373.072 531.707 374.709 531.008 376.057C530.31 377.397 528.85 378.481 526.667 379.179C525.471 379.556 524.275 379.749 523.104 379.749C521.932 379.749 520.937 379.54 520.118 379.155C520.439 378.392 520.592 378.015 520.889 377.245C521.579 377.566 522.373 377.742 523.264 377.774C524.155 377.806 525.062 377.678 525.969 377.389C527.397 376.932 528.344 376.258 528.777 375.399C529.219 374.548 529.187 373.481 528.705 372.221C528.585 371.892 528.521 371.723 528.392 371.394C528.151 372.093 527.718 372.727 527.1 373.264C526.482 373.81 525.736 374.219 524.885 374.484C523.2 375.014 521.739 374.958 520.56 374.364C519.38 373.77 518.609 372.622 518.216 370.953C517.638 368.513 517.341 367.294 516.764 364.854C517.558 364.661 517.951 364.565 518.746 364.348C519.372 366.676 519.685 367.831 520.319 370.158C520.616 371.258 521.121 372.028 521.852 372.438C522.582 372.847 523.497 372.895 524.564 372.55C525.736 372.173 526.554 371.523 526.98 370.632C527.413 369.741 527.389 368.706 526.948 367.526C526.169 365.448 525.776 364.412 524.997 362.334C525.768 362.045 526.153 361.893 526.916 361.58V361.588Z" fill="#9BC558"/>
<path d="M535.752 370.528C535.487 370.456 535.302 370.303 535.198 370.07C535.085 369.838 535.085 369.597 535.19 369.348C535.294 369.099 535.471 368.915 535.719 368.786C535.984 368.658 536.249 368.626 536.514 368.69C536.771 368.762 536.963 368.907 537.076 369.139C537.188 369.364 537.204 369.605 537.1 369.862C536.995 370.119 536.811 370.311 536.538 370.448C536.281 370.576 536.016 370.6 535.76 370.528H535.752ZM528.986 356.476C529.412 356.267 529.628 356.163 530.054 355.954C532.004 360.007 532.975 362.037 534.901 366.106C534.572 366.266 534.411 366.347 534.082 366.507C532.028 362.503 531.009 360.496 528.986 356.476V356.476Z" fill="#9BC558"/>
<defs>
<filter id="filter0_d_383_971" x="724" y="322" width="240" height="90" filterUnits="userSpaceOnUse" color-interpolation-filters="sRGB">
<feFlood flood-opacity="0" result="BackgroundImageFix"/>
<feColorMatrix in="SourceAlpha" type="matrix" values="0 0 0 0 0 0 0 0 0 0 0 0 0 0 0 0 0 0 127 0" result="hardAlpha"/>
<feOffset dx="2" dy="4"/>
<feGaussianBlur stdDeviation="5"/>
<feComposite in2="hardAlpha" operator="out"/>
<feColorMatrix type="matrix" values="0 0 0 0 0.917647 0 0 0 0 0.592157 0 0 0 0 0.243137 0 0 0 0.4 0"/>
<feBlend mode="normal" in2="BackgroundImageFix" result="effect1_dropShadow_383_971"/>
<feBlend mode="normal" in="SourceGraphic" in2="effect1_dropShadow_383_971" result="shape"/>
</filter>
<filter id="filter1_d_383_971" x="463.283" y="130.04" width="74.9609" height="89.6001" filterUnits="userSpaceOnUse" color-interpolation-filters="sRGB">
<feFlood flood-opacity="0" result="BackgroundImageFix"/>
<feColorMatrix in="SourceAlpha" type="matrix" values="0 0 0 0 0 0 0 0 0 0 0 0 0 0 0 0 0 0 127 0" result="hardAlpha"/>
<feOffset dy="4"/>
<feGaussianBlur stdDeviation="8"/>
<feComposite in2="hardAlpha" operator="out"/>
<feColorMatrix type="matrix" values="0 0 0 0 0.286275 0 0 0 0 0.27451 0 0 0 0 0.27451 0 0 0 0.2 0"/>
<feBlend mode="normal" in2="BackgroundImageFix" result="effect1_dropShadow_383_971"/>
<feBlend mode="normal" in="SourceGraphic" in2="effect1_dropShadow_383_971" result="shape"/>
</filter>
</defs>
</svg>
