<svg width="50" height="50" viewBox="0 0 50 50" fill="none" xmlns="http://www.w3.org/2000/svg">
<circle cx="25" cy="25" r="25" fill="#D9D9D9"/>
<mask id="mask0_289_641" style="mask-type:alpha" maskUnits="userSpaceOnUse" x="8" y="8" width="34" height="34">
<rect x="8.33398" y="8.33331" width="33.3333" height="33.3333" fill="#D9D9D9"/>
</mask>
<g mask="url(#mask0_289_641)">
<path d="M24.9994 38.8889C21.7587 38.8889 18.9638 37.8241 16.6147 35.6944C14.2647 33.5648 12.9161 30.9259 12.5689 27.7778C12.5226 27.4074 12.6328 27.0833 12.8994 26.8056C13.1652 26.5278 13.4948 26.3889 13.8883 26.3889C14.2587 26.3889 14.5888 26.5218 14.8786 26.7875C15.1675 27.0542 15.3351 27.3843 15.3814 27.7778C15.7054 30.162 16.7703 32.1472 18.5758 33.7333C20.3814 35.3185 22.5226 36.1111 24.9994 36.1111C27.7078 36.1111 30.005 35.1676 31.8911 33.2806C33.7781 31.3944 34.7216 29.0972 34.7216 26.3889C34.7216 23.6806 33.7781 21.3829 31.8911 19.4958C30.005 17.6097 27.7078 16.6667 24.9994 16.6667H24.7911L26.0064 17.8819C26.261 18.1366 26.3883 18.4606 26.3883 18.8542C26.3883 19.2477 26.261 19.5718 26.0064 19.8264C25.7286 20.1042 25.3929 20.2431 24.9994 20.2431C24.6059 20.2431 24.2818 20.1042 24.0272 19.8264L20.4161 16.25C20.2772 16.1111 20.1791 15.9606 20.1216 15.7986C20.0633 15.6366 20.0341 15.463 20.0341 15.2778C20.0341 15.0926 20.0633 14.919 20.1216 14.7569C20.1791 14.5949 20.2772 14.4444 20.4161 14.3056L24.0272 10.6944C24.2818 10.4398 24.6059 10.3125 24.9994 10.3125C25.3929 10.3125 25.7286 10.4398 26.0064 10.6944C26.261 10.9722 26.3883 11.3079 26.3883 11.7014C26.3883 12.0949 26.261 12.419 26.0064 12.6736L24.7911 13.8889H24.9994C26.7355 13.8889 28.3619 14.219 29.8786 14.8792C31.3943 15.5384 32.7138 16.4292 33.8369 17.5514C34.9591 18.6745 35.8503 19.994 36.5105 21.5097C37.1698 23.0264 37.4994 24.6528 37.4994 26.3889C37.4994 28.125 37.1698 29.7509 36.5105 31.2667C35.8503 32.7833 34.9591 34.1028 33.8369 35.225C32.7138 36.3481 31.3943 37.2398 29.8786 37.9C28.3619 38.5593 26.7355 38.8889 24.9994 38.8889Z" fill="#666666"/>
</g>
</svg>
