<svg width="28" height="392" viewBox="0 0 28 392" fill="none" xmlns="http://www.w3.org/2000/svg">
<path d="M17 266L17 391" stroke="#494646" stroke-linecap="round"/>
<path d="M15 187V1" stroke="#494646" stroke-linecap="round"/>
<path d="M17 214.5V256C17.8601 257.667 20.6124 259.5 22.6767 256V223C26.1523 220.274 32.0164 198.263 18.6673 181.904C18.0943 181.202 17 181.621 17 182.527V202.5" stroke="#494646" stroke-linecap="round"/>
<path d="M14.9144 187.032C15.9393 197.873 9.277 210.778 9.277 186C9.277 197.356 4.66461 211.294 3.12714 187.032C0.906363 194.775 -1.48525 210.468 6.71456 211.294V255.688C7.569 258.097 10.5 259.379 12.3528 255.688V211.294C14.0611 210.95 17.3752 208.713 16.9652 202.519" stroke="#494646" stroke-linecap="round" stroke-linejoin="round"/>
</svg>
