<svg width="266" height="18" viewBox="0 0 266 18" fill="none" xmlns="http://www.w3.org/2000/svg">
<path d="M47.0496 3C47.0496 9.62742 37.1887 15 25.0248 15C12.8608 15 3 9.62742 3 3" stroke="#DBDE50" stroke-opacity="0.6" stroke-width="5" stroke-linecap="round" stroke-linejoin="round"/>
<path d="M90.0261 3C90.0261 9.62742 80.1653 15 68.0014 15C55.8374 15 45.9766 9.62742 45.9766 3" stroke="#DBDE50" stroke-opacity="0.6" stroke-width="5" stroke-linecap="round" stroke-linejoin="round"/>
<path d="M134.073 3C134.073 9.62742 123.972 15 111.511 15C99.0506 15 88.9492 9.62742 88.9492 3" stroke="#DBDE50" stroke-opacity="0.6" stroke-width="5" stroke-linecap="round" stroke-linejoin="round"/>
<path d="M177.05 3C177.05 9.62742 166.948 15 154.488 15C142.027 15 131.926 9.62742 131.926 3" stroke="#DBDE50" stroke-opacity="0.6" stroke-width="5" stroke-linecap="round" stroke-linejoin="round"/>
<path d="M220.026 3C220.026 9.62742 210.165 15 198.001 15C185.837 15 175.977 9.62742 175.977 3" stroke="#DBDE50" stroke-opacity="0.6" stroke-width="5" stroke-linecap="round" stroke-linejoin="round"/>
<path d="M262.999 3C262.999 9.62742 253.138 15 240.974 15C228.81 15 218.949 9.62742 218.949 3" stroke="#DBDE50" stroke-opacity="0.6" stroke-width="5" stroke-linecap="round" stroke-linejoin="round"/>
</svg>
