<svg width="252" height="102" viewBox="0 0 252 102" fill="none" xmlns="http://www.w3.org/2000/svg">
<g filter="url(#filter0_d_583_1444)">
<rect x="16" y="12" width="220" height="70" rx="35" fill="#E06437"/>
<path d="M105.026 55.8V37.36H107.006V55.8H105.026ZM97.5059 46.58C97.4126 46.8067 97.2726 47.0333 97.0859 47.26C96.9126 47.4867 96.6659 47.7733 96.3459 48.12C95.9326 48.5733 95.4593 49.0667 94.9259 49.6C94.3926 50.12 93.7859 50.6933 93.1059 51.32L91.8059 49.98C93.0193 48.9 94.0726 47.8667 94.9659 46.88C95.2726 46.5333 95.5259 46.2133 95.7259 45.92C95.9259 45.6267 96.0793 45.34 96.1859 45.06C96.3059 44.7667 96.3859 44.4733 96.4259 44.18C96.4793 43.8733 96.5059 43.54 96.5059 43.18V38.68H98.5059V43.18C98.5059 43.58 98.5326 43.94 98.5859 44.26C98.6393 44.5667 98.7259 44.8667 98.8459 45.16C98.9659 45.44 99.1259 45.7267 99.3259 46.02C99.5393 46.3 99.7993 46.6067 100.106 46.94C100.533 47.4067 100.979 47.8667 101.446 48.32C101.913 48.76 102.446 49.2467 103.046 49.78L101.766 51.14C101.073 50.5 100.486 49.9467 100.006 49.48C99.5393 49 99.1126 48.5533 98.7259 48.14C98.4459 47.8333 98.1926 47.5467 97.9659 47.28C97.7526 47.0133 97.6059 46.78 97.5259 46.58H97.5059ZM114.633 44C114.566 44.1733 114.406 44.4133 114.153 44.72C113.9 45.0133 113.613 45.2933 113.293 45.56C112.866 45.9333 112.386 46.3267 111.853 46.74C111.333 47.1533 110.793 47.5533 110.233 47.94L109.073 46.52C109.713 46.0667 110.313 45.6267 110.873 45.2C111.433 44.76 111.893 44.3667 112.253 44.02C112.493 43.78 112.7 43.5467 112.873 43.32C113.046 43.0933 113.18 42.86 113.273 42.62C113.38 42.3667 113.453 42.1 113.493 41.82C113.546 41.5267 113.573 41.2 113.573 40.84V40.14H109.693V38.44H119.233V40.14H115.573V40.76C115.573 41.08 115.586 41.3667 115.613 41.62C115.64 41.8733 115.686 42.1067 115.753 42.32C115.833 42.5333 115.94 42.74 116.073 42.94C116.206 43.1267 116.386 43.32 116.613 43.52C117.08 43.9467 117.573 44.36 118.093 44.76C118.613 45.1467 119.173 45.5333 119.773 45.92L118.653 47.36C118.133 47 117.646 46.6467 117.193 46.3C116.74 45.9533 116.273 45.58 115.793 45.18C115.486 44.9267 115.233 44.7067 115.033 44.52C114.846 44.32 114.72 44.1467 114.653 44H114.633ZM111.833 49.04H123.493V55.98H121.513V50.74H111.833V49.04ZM126.113 43.48H123.493V48.08H121.533V37.36H123.493V41.76H126.113V43.48ZM131.6 51.68C130.893 51.68 130.267 51.5733 129.72 51.36C129.173 51.1333 128.707 50.84 128.32 50.48C127.933 50.12 127.64 49.7067 127.44 49.24C127.24 48.7733 127.14 48.3 127.14 47.82V46.66C127.14 46.18 127.24 45.7067 127.44 45.24C127.64 44.7733 127.933 44.36 128.32 44C128.707 43.6267 129.173 43.3333 129.72 43.12C130.267 42.8933 130.893 42.78 131.6 42.78C132.293 42.78 132.913 42.8933 133.46 43.12C134.02 43.3333 134.493 43.6267 134.88 44C135.267 44.36 135.56 44.7733 135.76 45.24C135.96 45.7067 136.06 46.18 136.06 46.66V47.82C136.06 48.3 135.96 48.7733 135.76 49.24C135.56 49.7067 135.267 50.12 134.88 50.48C134.493 50.84 134.02 51.1333 133.46 51.36C132.913 51.5733 132.293 51.68 131.6 51.68ZM143.42 46.4H140.58V55.8H138.6V37.36H140.58V44.68H143.42V46.4ZM131.6 44.44C130.8 44.44 130.167 44.6667 129.7 45.12C129.233 45.56 129 46.1467 129 46.88V47.6C129 48.3333 129.233 48.92 129.7 49.36C130.167 49.8 130.8 50.02 131.6 50.02C132.4 50.02 133.033 49.8 133.5 49.36C133.967 48.92 134.2 48.3333 134.2 47.6V46.88C134.2 46.1467 133.967 45.56 133.5 45.12C133.033 44.6667 132.4 44.44 131.6 44.44ZM130.62 40.08V37.48H132.6V40.08H136.88V41.76H126.22V40.08H130.62ZM144.127 50.2C145.194 49.5733 146.094 49.02 146.827 48.54C147.574 48.0467 148.194 47.6 148.687 47.2C149.18 46.7867 149.567 46.4067 149.847 46.06C150.127 45.7 150.334 45.3467 150.467 45C150.614 44.64 150.7 44.2667 150.727 43.88C150.767 43.4933 150.787 43.06 150.787 42.58V40.76H144.487V39.06H152.747V42.6C152.747 43.2 152.727 43.7467 152.687 44.24C152.66 44.72 152.567 45.18 152.407 45.62C152.247 46.0467 152.007 46.4733 151.687 46.9C151.38 47.3133 150.94 47.76 150.367 48.24C149.807 48.72 149.1 49.2467 148.247 49.82C147.407 50.3933 146.38 51.0467 145.167 51.78L144.127 50.2ZM156.647 55.8V37.36H158.627V55.8H156.647Z" fill="#FFFEFB"/>
</g>
<defs>
<filter id="filter0_d_583_1444" x="0" y="0" width="252" height="102" filterUnits="userSpaceOnUse" color-interpolation-filters="sRGB">
<feFlood flood-opacity="0" result="BackgroundImageFix"/>
<feColorMatrix in="SourceAlpha" type="matrix" values="0 0 0 0 0 0 0 0 0 0 0 0 0 0 0 0 0 0 127 0" result="hardAlpha"/>
<feOffset dy="4"/>
<feGaussianBlur stdDeviation="8"/>
<feComposite in2="hardAlpha" operator="out"/>
<feColorMatrix type="matrix" values="0 0 0 0 0.878431 0 0 0 0 0.392157 0 0 0 0 0.215686 0 0 0 0.2 0"/>
<feBlend mode="normal" in2="BackgroundImageFix" result="effect1_dropShadow_583_1444"/>
<feBlend mode="normal" in="SourceGraphic" in2="effect1_dropShadow_583_1444" result="shape"/>
</filter>
</defs>
</svg>
