<svg width="38" height="38" viewBox="0 0 38 38" fill="none" xmlns="http://www.w3.org/2000/svg">
<g filter="url(#filter0_d_722_2186)">
<mask id="mask0_722_2186" style="mask-type:alpha" maskUnits="userSpaceOnUse" x="3" y="2" width="30" height="30">
<rect x="3" y="2" width="30" height="30" fill="#D9D9D9"/>
</mask>
<g mask="url(#mask0_722_2186)">
<circle cx="18" cy="17" r="15" fill="#494646"/>
<mask id="mask1_722_2186" style="mask-type:alpha" maskUnits="userSpaceOnUse" x="6" y="5" width="24" height="24">
<rect x="6" y="5" width="24" height="24" fill="#D9D9D9"/>
</mask>
<g mask="url(#mask1_722_2186)">
<path d="M16.0008 18.6L21.9008 12.7C22.0841 12.5167 22.3174 12.425 22.6008 12.425C22.8841 12.425 23.1174 12.5167 23.3008 12.7C23.4841 12.8834 23.5758 13.1167 23.5758 13.4C23.5758 13.6834 23.4841 13.9167 23.3008 14.1L16.7008 20.7C16.5008 20.9 16.2674 21 16.0008 21C15.7341 21 15.5008 20.9 15.3008 20.7L12.7008 18.1C12.5174 17.9167 12.4258 17.6834 12.4258 17.4C12.4258 17.1167 12.5174 16.8834 12.7008 16.7C12.8841 16.5167 13.1174 16.425 13.4008 16.425C13.6841 16.425 13.9174 16.5167 14.1008 16.7L16.0008 18.6Z" fill="#FFFEFB"/>
</g>
</g>
</g>
<defs>
<filter id="filter0_d_722_2186" x="0.6" y="0.8" width="37.2" height="37.2" filterUnits="userSpaceOnUse" color-interpolation-filters="sRGB">
<feFlood flood-opacity="0" result="BackgroundImageFix"/>
<feColorMatrix in="SourceAlpha" type="matrix" values="0 0 0 0 0 0 0 0 0 0 0 0 0 0 0 0 0 0 127 0" result="hardAlpha"/>
<feOffset dx="1.2" dy="2.4"/>
<feGaussianBlur stdDeviation="1.8"/>
<feComposite in2="hardAlpha" operator="out"/>
<feColorMatrix type="matrix" values="0 0 0 0 0.858824 0 0 0 0 0.870588 0 0 0 0 0.313726 0 0 0 0.1 0"/>
<feBlend mode="normal" in2="BackgroundImageFix" result="effect1_dropShadow_722_2186"/>
<feBlend mode="normal" in="SourceGraphic" in2="effect1_dropShadow_722_2186" result="shape"/>
</filter>
</defs>
</svg>
