<svg width="422" height="22" viewBox="0 0 422 22" fill="none" xmlns="http://www.w3.org/2000/svg">
<path d="M205.538 8.69237L237.462 8.69237M237.462 8.69237C238.744 8.03075 240.154 5.91358 237.462 4.32569L212.077 4.3257C210.005 1.68438 193.454 -2.75026 180.922 7.04499C180.208 7.60311 180.621 8.69237 181.527 8.69237L196.308 8.69237M237.462 8.69237L421 8.69237" stroke="#9B9B9B" stroke-linecap="round"/>
<path d="M184.411 10.2966C192.75 9.50819 202.677 14.6331 183.617 14.6331M183.617 14.6331C192.353 14.6331 203.074 18.1811 184.411 19.3637C190.368 21.072 202.439 22.9117 203.074 16.6042L237.223 16.6042C239.076 15.9469 240.063 13.6923 237.223 12.2671L203.074 12.2671C202.809 10.953 201.089 8.40369 196.324 8.71907M183.617 14.6331L1 14.6331" stroke="#9B9B9B" stroke-linecap="round" stroke-linejoin="round"/>
</svg>
