<svg width="58" height="58" viewBox="0 0 58 58" fill="none" xmlns="http://www.w3.org/2000/svg">
<g filter="url(#filter0_d_738_2436)">
<mask id="mask0_738_2436" style="mask-type:alpha" maskUnits="userSpaceOnUse" x="4" y="1" width="50" height="50">
<rect x="4" y="1" width="50" height="50" fill="#D9D9D9"/>
</mask>
<g mask="url(#mask0_738_2436)">
<path d="M26.0299 30.4798L21.1341 25.584C20.8563 25.3062 20.5091 25.1673 20.0924 25.1673C19.6758 25.1673 19.3112 25.3236 18.9987 25.6361C18.6862 25.9486 18.5299 26.3132 18.5299 26.7298C18.5299 27.1465 18.6862 27.5111 18.9987 27.8236L24.7279 33.5527C25.0751 33.9 25.5091 34.0736 26.0299 34.0736C26.5508 34.0736 27.0022 33.9 27.3841 33.5527L38.9987 21.8861C39.2765 21.6083 39.4154 21.2611 39.4154 20.8444C39.4154 20.4277 39.2591 20.0632 38.9466 19.7507C38.6341 19.4382 38.2695 19.2819 37.8529 19.2819C37.4362 19.2819 37.0716 19.4382 36.7591 19.7507L26.0299 30.4798ZM28.9987 45.7923C26.2556 45.7923 23.6779 45.2715 21.2654 44.2298C18.8515 43.1881 16.7591 41.7819 14.9883 40.0111C13.2174 38.2402 11.8112 36.1479 10.7695 33.734C9.72786 31.3215 9.20703 28.7437 9.20703 26.0007C9.20703 23.2576 9.72786 20.6791 10.7695 18.2652C11.8112 15.8527 13.2174 13.7611 14.9883 11.9902C16.7591 10.2194 18.8515 8.81315 21.2654 7.77148C23.6779 6.72982 26.2556 6.20898 28.9987 6.20898C31.7418 6.20898 34.3202 6.72982 36.7341 7.77148C39.1466 8.81315 41.2383 10.2194 43.0091 11.9902C44.7799 13.7611 46.1862 15.8527 47.2279 18.2652C48.2695 20.6791 48.7904 23.2576 48.7904 26.0007C48.7904 28.7437 48.2695 31.3215 47.2279 33.734C46.1862 36.1479 44.7799 38.2402 43.0091 40.0111C41.2383 41.7819 39.1466 43.1881 36.7341 44.2298C34.3202 45.2715 31.7418 45.7923 28.9987 45.7923Z" fill="#E06437"/>
<path d="M26.0299 30.4798L21.1341 25.584C20.8563 25.3062 20.5091 25.1673 20.0924 25.1673C19.6758 25.1673 19.3112 25.3236 18.9987 25.6361C18.6862 25.9486 18.5299 26.3132 18.5299 26.7298C18.5299 27.1465 18.6862 27.5111 18.9987 27.8236L24.7279 33.5527C25.0751 33.9 25.5091 34.0736 26.0299 34.0736C26.5508 34.0736 27.0022 33.9 27.3841 33.5527L38.9987 21.8861C39.2765 21.6083 39.4154 21.2611 39.4154 20.8444C39.4154 20.4277 39.2591 20.0632 38.9466 19.7507C38.6341 19.4382 38.2695 19.2819 37.8529 19.2819C37.4362 19.2819 37.0716 19.4382 36.7591 19.7507L26.0299 30.4798Z" fill="#FFFEFB"/>
</g>
</g>
<defs>
<filter id="filter0_d_738_2436" x="-5" y="-5" width="68" height="68" filterUnits="userSpaceOnUse" color-interpolation-filters="sRGB">
<feFlood flood-opacity="0" result="BackgroundImageFix"/>
<feColorMatrix in="SourceAlpha" type="matrix" values="0 0 0 0 0 0 0 0 0 0 0 0 0 0 0 0 0 0 127 0" result="hardAlpha"/>
<feOffset dy="3"/>
<feGaussianBlur stdDeviation="4.5"/>
<feComposite in2="hardAlpha" operator="out"/>
<feColorMatrix type="matrix" values="0 0 0 0 0.878431 0 0 0 0 0.392157 0 0 0 0 0.215686 0 0 0 0.2 0"/>
<feBlend mode="normal" in2="BackgroundImageFix" result="effect1_dropShadow_738_2436"/>
<feBlend mode="normal" in="SourceGraphic" in2="effect1_dropShadow_738_2436" result="shape"/>
</filter>
</defs>
</svg>
