<svg width="43" height="43" viewBox="0 0 43 43" fill="none" xmlns="http://www.w3.org/2000/svg">
<g filter="url(#filter0_d_631_1336)">
<circle cx="21.5" cy="19.5" r="17.5" fill="#FFFEFB"/>
<mask id="mask0_631_1336" style="mask-type:alpha" maskUnits="userSpaceOnUse" x="12" y="10" width="19" height="19">
<rect x="12.168" y="10.167" width="18.6667" height="18.6667" fill="#D9D9D9"/>
</mask>
<g mask="url(#mask0_631_1336)">
<path d="M27.1797 17.1094L23.8742 13.8428L24.9631 12.7539C25.2612 12.4557 25.6275 12.3066 26.0621 12.3066C26.4961 12.3066 26.8621 12.4557 27.1603 12.7539L28.2492 13.8428C28.5473 14.1409 28.7029 14.5008 28.7158 14.9223C28.7288 15.3433 28.5862 15.7029 28.2881 16.0011L27.1797 17.1094ZM15.2797 26.5011C15.0594 26.5011 14.8748 26.4264 14.726 26.2771C14.5766 26.1283 14.502 25.9437 14.502 25.7233V23.5261C14.502 23.4224 14.5214 23.322 14.5603 23.2251C14.5992 23.1276 14.6575 23.04 14.7353 22.9622L22.7464 14.9511L26.052 18.2566L18.0408 26.2678C17.9631 26.3455 17.8757 26.4039 17.7787 26.4428C17.6812 26.4816 17.5807 26.5011 17.477 26.5011H15.2797Z" fill="#9B9B9B"/>
</g>
</g>
<defs>
<filter id="filter0_d_631_1336" x="0" y="0" width="43" height="43" filterUnits="userSpaceOnUse" color-interpolation-filters="sRGB">
<feFlood flood-opacity="0" result="BackgroundImageFix"/>
<feColorMatrix in="SourceAlpha" type="matrix" values="0 0 0 0 0 0 0 0 0 0 0 0 0 0 0 0 0 0 127 0" result="hardAlpha"/>
<feOffset dy="2"/>
<feGaussianBlur stdDeviation="2"/>
<feComposite in2="hardAlpha" operator="out"/>
<feColorMatrix type="matrix" values="0 0 0 0 0.286275 0 0 0 0 0.27451 0 0 0 0 0.27451 0 0 0 0.1 0"/>
<feBlend mode="normal" in2="BackgroundImageFix" result="effect1_dropShadow_631_1336"/>
<feBlend mode="normal" in="SourceGraphic" in2="effect1_dropShadow_631_1336" result="shape"/>
</filter>
</defs>
</svg>
