<svg width="50" height="50" viewBox="0 0 50 50" fill="none" xmlns="http://www.w3.org/2000/svg">
<mask id="mask0_556_1264" style="mask-type:alpha" maskUnits="userSpaceOnUse" x="0" y="0" width="50" height="50">
<rect width="50" height="50" fill="#D9D9D9"/>
</mask>
<g mask="url(#mask0_556_1264)">
<path d="M24.9987 27.9168L14.7904 38.1252C14.4084 38.5071 13.9223 38.6981 13.332 38.6981C12.7418 38.6981 12.2556 38.5071 11.8737 38.1252C11.4918 37.7432 11.3008 37.2571 11.3008 36.6668C11.3008 36.0766 11.4918 35.5904 11.8737 35.2085L22.082 25.0002L11.8737 14.7918C11.4918 14.4099 11.3008 13.9238 11.3008 13.3335C11.3008 12.7432 11.4918 12.2571 11.8737 11.8752C12.2556 11.4932 12.7418 11.3022 13.332 11.3022C13.9223 11.3022 14.4084 11.4932 14.7904 11.8752L24.9987 22.0835L35.207 11.8752C35.589 11.4932 36.0751 11.3022 36.6654 11.3022C37.2556 11.3022 37.7418 11.4932 38.1237 11.8752C38.5056 12.2571 38.6966 12.7432 38.6966 13.3335C38.6966 13.9238 38.5056 14.4099 38.1237 14.7918L27.9154 25.0002L38.1237 35.2085C38.5056 35.5904 38.6966 36.0766 38.6966 36.6668C38.6966 37.2571 38.5056 37.7432 38.1237 38.1252C37.7418 38.5071 37.2556 38.6981 36.6654 38.6981C36.0751 38.6981 35.589 38.5071 35.207 38.1252L24.9987 27.9168Z" fill="#666666"/>
</g>
</svg>
