<svg width="78" height="128" viewBox="0 0 78 128" fill="none" xmlns="http://www.w3.org/2000/svg">
<line x1="41" y1="32" x2="41" y2="126" stroke="#E9E9E9" stroke-width="4" stroke-linecap="round"/>
<g filter="url(#filter0_d_722_1555)">
<circle cx="39" cy="37" r="34" fill="#E4E5AC" stroke="#FFFEFB" stroke-width="2"/>
<path d="M39.3448 35.985C37.9865 29.8632 36.3152 17.7998 40.509 17.7998C45.1992 17.7998 43.6138 26.4422 44.778 34.9046C45.4895 36.225 48.1025 37.9049 50.2113 40.3062C54.4805 45.1675 51.5696 54.5302 44.778 56.1507C37.9865 57.7711 33.1354 55.9706 30.0308 49.8489C27.5729 47.8683 24.7919 41.9266 25.5681 40.4862C26.3443 39.0458 28.0514 39.0098 29.4485 39.586C29.2545 38.0255 29.8366 35.1207 33.7175 35.985C30.6128 32.384 25.5677 20.6806 30.0308 19.2402C33.6012 18.0879 37.7278 29.9232 39.3448 35.985Z" fill="#9BC558"/>
</g>
<defs>
<filter id="filter0_d_722_1555" x="0" y="0" width="78" height="78" filterUnits="userSpaceOnUse" color-interpolation-filters="sRGB">
<feFlood flood-opacity="0" result="BackgroundImageFix"/>
<feColorMatrix in="SourceAlpha" type="matrix" values="0 0 0 0 0 0 0 0 0 0 0 0 0 0 0 0 0 0 127 0" result="hardAlpha"/>
<feOffset dy="2"/>
<feGaussianBlur stdDeviation="2"/>
<feComposite in2="hardAlpha" operator="out"/>
<feColorMatrix type="matrix" values="0 0 0 0 0.286275 0 0 0 0 0.27451 0 0 0 0 0.27451 0 0 0 0.1 0"/>
<feBlend mode="normal" in2="BackgroundImageFix" result="effect1_dropShadow_722_1555"/>
<feBlend mode="normal" in="SourceGraphic" in2="effect1_dropShadow_722_1555" result="shape"/>
</filter>
</defs>
</svg>
