<svg width="78" height="134" viewBox="0 0 78 134" fill="none" xmlns="http://www.w3.org/2000/svg">
<g filter="url(#filter0_d_722_1562)">
<line x1="41" y1="32" x2="41" y2="126" stroke="#E9E9E9" stroke-width="4" stroke-linecap="round"/>
<circle cx="39" cy="37" r="34" fill="#E4E5AC" stroke="#FFFEFB" stroke-width="2"/>
<path d="M37.9995 24.2721C38.1434 23.0876 38.7319 22.2066 39.9969 21.9033C43.1322 21.1518 45.35 24.6282 46.601 27.9163C47.9426 27.9163 51.0344 30.5887 52.4126 31.9249C57.2552 37.5734 54.7775 49.5993 42.9532 52.1502C33.4937 54.191 29.0267 47.3391 27.9757 43.658C25.694 42.7433 23.3803 39.9176 23.0489 35.9335C22.5759 30.2486 25.6538 30.1282 27.2518 30.7786C27.708 27.0093 30.4734 27.2489 31.917 27.9163C32.2323 22.9374 36.1034 23.4123 37.9995 24.2721Z" fill="#9BC558"/>
</g>
<defs>
<filter id="filter0_d_722_1562" x="0" y="0" width="78" height="134" filterUnits="userSpaceOnUse" color-interpolation-filters="sRGB">
<feFlood flood-opacity="0" result="BackgroundImageFix"/>
<feColorMatrix in="SourceAlpha" type="matrix" values="0 0 0 0 0 0 0 0 0 0 0 0 0 0 0 0 0 0 127 0" result="hardAlpha"/>
<feOffset dy="2"/>
<feGaussianBlur stdDeviation="2"/>
<feComposite in2="hardAlpha" operator="out"/>
<feColorMatrix type="matrix" values="0 0 0 0 0.286275 0 0 0 0 0.27451 0 0 0 0 0.27451 0 0 0 0.1 0"/>
<feBlend mode="normal" in2="BackgroundImageFix" result="effect1_dropShadow_722_1562"/>
<feBlend mode="normal" in="SourceGraphic" in2="effect1_dropShadow_722_1562" result="shape"/>
</filter>
</defs>
</svg>
