<svg width="78" height="128" viewBox="0 0 78 128" fill="none" xmlns="http://www.w3.org/2000/svg">
<line x1="41" y1="32" x2="41" y2="126" stroke="#E9E9E9" stroke-width="4" stroke-linecap="round"/>
<g filter="url(#filter0_d_722_1547)">
<circle cx="39" cy="37" r="34" fill="#E4E5AC" stroke="#FFFEFB" stroke-width="2"/>
<path d="M48.8127 35.2065C50.5127 32.7129 53.298 29.6556 54.9979 31.0167C56.6978 32.3777 54.9979 34.7708 51.5617 39.0612C51.2181 39.5082 50.5308 40.9048 50.5308 42.9159C50.5308 45.4299 47.9537 57.3292 35.4116 52.4689C34.0943 51.7985 31.1163 49.184 29.7418 44.0891C28.0237 37.7205 21.3009 31.9924 23.403 29.488C24.9675 27.6242 26.8386 29.4878 27.8698 30.9963C28.7635 32.3038 30.948 36.0037 31.4022 37.4028C30.8174 34.6315 27.2692 24.8677 28.5391 23.4749C29.8958 21.9869 31.4599 22.8045 32.4908 25.6536C33.3155 27.9329 35.0107 33.4189 35.7552 35.8769C35.0107 31.7988 33.8835 24.2925 34.2089 22.1341C34.5343 19.9757 36.4606 19.5998 37.6451 21.1285C38.8295 22.6573 39.9931 30.1787 40.5658 34.201C40.5658 34.201 40.0686 24.1249 40.5658 22.4693C41.0631 20.8136 43.1612 19.5999 44.5175 22.1341C45.8738 24.6683 44.8793 34.5159 45.0329 35.8769C45.1865 37.238 47.1128 37.7002 48.8127 35.2065Z" fill="#9BC558"/>
</g>
<defs>
<filter id="filter0_d_722_1547" x="0" y="0" width="78" height="78" filterUnits="userSpaceOnUse" color-interpolation-filters="sRGB">
<feFlood flood-opacity="0" result="BackgroundImageFix"/>
<feColorMatrix in="SourceAlpha" type="matrix" values="0 0 0 0 0 0 0 0 0 0 0 0 0 0 0 0 0 0 127 0" result="hardAlpha"/>
<feOffset dy="2"/>
<feGaussianBlur stdDeviation="2"/>
<feComposite in2="hardAlpha" operator="out"/>
<feColorMatrix type="matrix" values="0 0 0 0 0.286275 0 0 0 0 0.27451 0 0 0 0 0.27451 0 0 0 0.1 0"/>
<feBlend mode="normal" in2="BackgroundImageFix" result="effect1_dropShadow_722_1547"/>
<feBlend mode="normal" in="SourceGraphic" in2="effect1_dropShadow_722_1547" result="shape"/>
</filter>
</defs>
</svg>
