<svg width="60" height="60" viewBox="0 0 60 60" fill="none" xmlns="http://www.w3.org/2000/svg">
<circle cx="30" cy="30" r="29" fill="#9B9B9B" stroke="#FFFEFB" stroke-width="2"/>
<path d="M29.6246 19.3635C29.7504 18.327 30.2654 17.5561 31.3723 17.2908C34.1157 16.6332 36.0562 19.675 37.1508 22.5521C38.3248 22.5521 41.0301 24.8905 42.236 26.0597C46.4733 31.0021 44.3053 41.5248 33.959 43.7568C25.682 45.5425 21.7734 39.5471 20.8537 36.3261C18.8573 35.5257 16.8328 33.0533 16.5427 29.5672C16.1289 24.5929 18.822 24.4875 20.2203 25.0566C20.6195 21.7585 23.0392 21.9682 24.3024 22.5521C24.5783 18.1955 27.9655 18.6111 29.6246 19.3635Z" fill="#FFFEFB"/>
</svg>
