<svg width="60" height="60" viewBox="0 0 60 60" fill="none" xmlns="http://www.w3.org/2000/svg">
<circle cx="30" cy="30" r="29" fill="#9B9B9B" stroke="#FFFEFB" stroke-width="2"/>
<path d="M39.0862 28.9304C40.5736 26.7484 43.0107 24.0733 44.4982 25.2642C45.9856 26.4551 44.4982 28.5491 41.4915 32.3032C41.1908 32.6943 40.5895 33.9163 40.5895 35.6761C40.5895 37.8758 38.3345 48.2877 27.3601 44.0349C26.2076 43.4483 23.6018 41.1607 22.3991 36.7026C20.8958 31.1301 15.0133 26.118 16.8526 23.9266C18.2215 22.2958 19.8588 23.9265 20.761 25.2464C21.5431 26.3904 23.4545 29.6279 23.8519 30.8521C23.3402 28.4272 20.2356 19.8839 21.3467 18.6651C22.5338 17.3631 23.9024 18.0785 24.8044 20.5715C25.526 22.5659 27.0093 27.3661 27.6608 29.5169C27.0093 25.9486 26.023 19.3805 26.3078 17.492C26.5925 15.6034 28.278 15.2744 29.3144 16.6121C30.3508 17.9497 31.369 24.531 31.8701 28.0505C31.8701 28.0505 31.435 19.234 31.8701 17.7853C32.3052 16.3365 34.1411 15.2745 35.3278 17.492C36.5145 19.7094 35.6444 28.326 35.7788 29.5169C35.9132 30.7079 37.5987 31.1123 39.0862 28.9304Z" fill="#FFFEFB"/>
</svg>
