<svg width="60" height="60" viewBox="0 0 60 60" fill="none" xmlns="http://www.w3.org/2000/svg">
<circle cx="30" cy="30" r="29" fill="#9B9B9B" stroke="#FFFEFB" stroke-width="2"/>
<path d="M30.7018 29.6122C29.52 24.2557 28.0658 13.7002 31.7148 13.7002C35.7956 13.7002 34.4162 21.2623 35.4292 28.6669C36.0483 29.8222 38.3217 31.2921 40.1566 33.3933C43.8711 37.647 41.3384 45.8393 35.4292 47.2572C29.52 48.6751 25.2992 47.0996 22.5978 41.7431C20.4593 40.0101 18.0396 34.8112 18.715 33.5508C19.3903 32.2904 20.8757 32.2589 22.0913 32.7631C21.9224 31.3977 22.4289 28.856 25.8056 29.6122C23.1043 26.4613 18.7146 16.2209 22.5978 14.9605C25.7044 13.9522 29.2949 24.3082 30.7018 29.6122Z" fill="#FFFEFB"/>
</svg>
