<svg width="252" height="102" viewBox="0 0 252 102" fill="none" xmlns="http://www.w3.org/2000/svg">
<g filter="url(#filter0_d_556_1709)">
<rect x="16" y="12" width="220" height="70" rx="35" fill="#E06437"/>
<path d="M118.333 40.74H111.833V49.22H112.893C114.2 49.22 115.42 49.18 116.553 49.1C117.7 49.0067 118.84 48.8733 119.973 48.7L120.233 50.36C119.046 50.5733 117.826 50.7267 116.573 50.82C115.333 50.9 113.966 50.94 112.473 50.94H109.853V39.02H118.333V40.74ZM126.213 45.74H123.373V55.8H121.393V37.36H123.373V44.02H126.213V45.74ZM140.64 55.78H128.56V49.44H140.64V55.78ZM138.68 51.1H130.52V54.12H138.68V51.1ZM143.06 46.1V47.78H126.14V46.1H143.06ZM134.6 37.62C135.48 37.62 136.28 37.7 137 37.86C137.733 38.0067 138.36 38.2267 138.88 38.52C139.4 38.8 139.8 39.1533 140.08 39.58C140.373 39.9933 140.52 40.46 140.52 40.98V41.54C140.52 42.06 140.373 42.5333 140.08 42.96C139.8 43.3733 139.4 43.7267 138.88 44.02C138.36 44.3 137.733 44.52 137 44.68C136.28 44.8267 135.48 44.9 134.6 44.9C133.72 44.9 132.913 44.8267 132.18 44.68C131.46 44.52 130.84 44.3 130.32 44.02C129.8 43.7267 129.393 43.3733 129.1 42.96C128.82 42.5333 128.68 42.06 128.68 41.54V40.98C128.68 40.46 128.82 39.9933 129.1 39.58C129.393 39.1533 129.8 38.8 130.32 38.52C130.84 38.2267 131.46 38.0067 132.18 37.86C132.913 37.7 133.72 37.62 134.6 37.62ZM134.6 43.26C135.173 43.26 135.707 43.22 136.2 43.14C136.693 43.0467 137.113 42.92 137.46 42.76C137.807 42.6 138.08 42.4133 138.28 42.2C138.48 41.9733 138.58 41.7267 138.58 41.46V41.06C138.58 40.7933 138.48 40.5533 138.28 40.34C138.08 40.1133 137.807 39.92 137.46 39.76C137.113 39.6 136.693 39.48 136.2 39.4C135.707 39.3067 135.173 39.26 134.6 39.26C134.013 39.26 133.473 39.3067 132.98 39.4C132.5 39.48 132.087 39.6 131.74 39.76C131.393 39.92 131.12 40.1133 130.92 40.34C130.72 40.5533 130.62 40.7933 130.62 41.06V41.46C130.62 41.7267 130.72 41.9733 130.92 42.2C131.12 42.4133 131.393 42.6 131.74 42.76C132.087 42.92 132.5 43.0467 132.98 43.14C133.473 43.22 134.013 43.26 134.6 43.26Z" fill="#FFFEFB"/>
</g>
<defs>
<filter id="filter0_d_556_1709" x="0" y="0" width="252" height="102" filterUnits="userSpaceOnUse" color-interpolation-filters="sRGB">
<feFlood flood-opacity="0" result="BackgroundImageFix"/>
<feColorMatrix in="SourceAlpha" type="matrix" values="0 0 0 0 0 0 0 0 0 0 0 0 0 0 0 0 0 0 127 0" result="hardAlpha"/>
<feOffset dy="4"/>
<feGaussianBlur stdDeviation="8"/>
<feComposite in2="hardAlpha" operator="out"/>
<feColorMatrix type="matrix" values="0 0 0 0 0.878431 0 0 0 0 0.392157 0 0 0 0 0.215686 0 0 0 0.2 0"/>
<feBlend mode="normal" in2="BackgroundImageFix" result="effect1_dropShadow_556_1709"/>
<feBlend mode="normal" in="SourceGraphic" in2="effect1_dropShadow_556_1709" result="shape"/>
</filter>
</defs>
</svg>
