<svg width="48" height="48" viewBox="0 0 48 48" fill="none" xmlns="http://www.w3.org/2000/svg">
<g filter="url(#filter0_d_556_1711)">
<circle cx="24" cy="22" r="20" fill="#EA973E"/>
<mask id="mask0_556_1711" style="mask-type:alpha" maskUnits="userSpaceOnUse" x="8" y="6" width="32" height="32">
<rect x="8" y="6" width="32" height="32" fill="#D9D9D9"/>
</mask>
<g mask="url(#mask0_556_1711)">
<path d="M24 30C24.4533 30 24.8336 29.8464 25.1408 29.5392C25.4469 29.2331 25.6 28.8533 25.6 28.4V23.6H30.44C30.8933 23.6 31.2667 23.4464 31.56 23.1392C31.8533 22.8331 32 22.4533 32 22C32 21.5467 31.8464 21.1664 31.5392 20.8592C31.2331 20.5531 30.8533 20.4 30.4 20.4H25.6V15.56C25.6 15.1067 25.4469 14.7333 25.1408 14.44C24.8336 14.1467 24.4533 14 24 14C23.5467 14 23.1669 14.1531 22.8608 14.4592C22.5536 14.7664 22.4 15.1467 22.4 15.6V20.4H17.56C17.1067 20.4 16.7333 20.5531 16.44 20.8592C16.1467 21.1664 16 21.5467 16 22C16 22.4533 16.1531 22.8331 16.4592 23.1392C16.7664 23.4464 17.1467 23.6 17.6 23.6H22.4V28.44C22.4 28.8933 22.5536 29.2667 22.8608 29.56C23.1669 29.8533 23.5467 30 24 30Z" fill="#FFFEFB"/>
</g>
</g>
<defs>
<filter id="filter0_d_556_1711" x="0" y="0" width="48" height="48" filterUnits="userSpaceOnUse" color-interpolation-filters="sRGB">
<feFlood flood-opacity="0" result="BackgroundImageFix"/>
<feColorMatrix in="SourceAlpha" type="matrix" values="0 0 0 0 0 0 0 0 0 0 0 0 0 0 0 0 0 0 127 0" result="hardAlpha"/>
<feOffset dy="2"/>
<feGaussianBlur stdDeviation="2"/>
<feComposite in2="hardAlpha" operator="out"/>
<feColorMatrix type="matrix" values="0 0 0 0 0.490196 0 0 0 0 0.360784 0 0 0 0 0.360784 0 0 0 0.2 0"/>
<feBlend mode="normal" in2="BackgroundImageFix" result="effect1_dropShadow_556_1711"/>
<feBlend mode="normal" in="SourceGraphic" in2="effect1_dropShadow_556_1711" result="shape"/>
</filter>
</defs>
</svg>
