<svg width="220" height="28" viewBox="0 0 220 28" fill="none" xmlns="http://www.w3.org/2000/svg">
<g clip-path="url(#clip0_602_2167)">
<path d="M83.179 20.2598C82.649 21.1498 81.849 21.9798 80.779 22.8098C79.709 23.6298 78.469 24.3698 77.039 25.0398C75.529 25.7598 74.179 26.2398 72.939 26.4598C71.699 26.6798 70.649 26.6598 69.759 26.3698C68.869 26.0798 68.179 25.5598 67.699 24.7798C67.169 23.9198 67.039 22.9998 67.329 21.9998C67.619 21.0098 68.249 20.0798 69.219 19.2398C68.179 19.4598 67.239 19.4398 66.399 19.1598C65.559 18.8798 64.899 18.3698 64.439 17.5998C63.999 16.8898 63.889 16.0598 64.119 15.1198C64.349 14.1798 64.969 13.1898 65.989 12.1798C67.009 11.1698 68.399 10.2198 70.169 9.39981C71.469 8.78981 72.789 8.33981 74.119 8.03981C75.449 7.73981 76.629 7.63981 77.659 7.71981C77.569 8.35981 77.529 8.66981 77.459 9.30981C75.309 9.22981 73.099 9.69981 70.899 10.7298C68.969 11.6298 67.639 12.6598 66.929 13.7098C66.209 14.7698 66.109 15.7098 66.569 16.5298C67.029 17.3498 67.769 17.7698 68.769 17.8098C69.769 17.8498 70.959 17.5098 72.359 16.8298C74.289 15.8898 75.259 15.4598 77.229 14.6498C77.459 15.2198 77.579 15.4998 77.809 16.0698C75.839 16.8698 74.869 17.3098 72.949 18.2498C71.389 19.0098 70.299 19.8898 69.669 20.8298C69.039 21.7698 68.999 22.6898 69.509 23.5798C70.009 24.4498 70.869 24.8798 72.059 24.8998C73.249 24.9198 74.699 24.4798 76.479 23.6398C77.719 23.0498 78.819 22.3898 79.789 21.6198C80.759 20.8598 81.499 20.0798 81.999 19.2598C82.479 19.6498 82.719 19.8498 83.199 20.2598H83.179Z" fill="#666666"/>
<path d="M96.3504 7.32054C97.6704 8.06054 98.4204 9.32054 98.6404 11.0705C99.0004 13.9805 99.1804 15.4305 99.5504 18.3305C98.8004 18.4205 98.4204 18.4805 97.6704 18.5905C97.2404 15.7605 97.0304 14.3505 96.6004 11.5205C96.4004 10.2205 95.8504 9.29054 94.9204 8.75054C93.9904 8.21054 92.7404 8.08054 91.2104 8.40054C89.5004 8.76054 88.2404 9.49054 87.4704 10.5305C86.7004 11.5705 86.5304 12.7805 86.9204 14.1505C87.6404 16.7005 87.9904 17.9805 88.7104 20.5305C87.9704 20.7405 87.6104 20.8405 86.8804 21.0705C85.3904 16.2505 84.6404 13.8305 83.1504 9.01054C83.9704 8.76054 84.3804 8.64054 85.2104 8.40054C85.4604 9.30054 85.5904 9.74054 85.8404 10.6405C86.2004 9.74054 86.8504 8.94054 87.7904 8.27054C88.7304 7.60054 89.9004 7.10054 91.3004 6.82054C93.3304 6.40054 95.0404 6.60054 96.3704 7.33054L96.3504 7.32054Z" fill="#666666"/>
<path d="M101.421 22.7198C100.921 22.6398 100.491 22.4798 100.141 22.2498C100.331 21.6998 100.421 21.4298 100.621 20.8898C101.201 21.2598 101.911 21.3998 102.781 21.3298C103.491 21.2698 104.021 21.0298 104.381 20.6098C104.741 20.1898 104.911 19.5898 104.861 18.7998C104.571 13.3798 104.431 10.6798 104.151 5.2598C105.041 5.2098 105.481 5.1998 106.371 5.1698C106.521 10.5898 106.591 13.2998 106.741 18.7298C106.771 19.9098 106.451 20.8598 105.801 21.5698C105.151 22.2798 104.231 22.6798 103.001 22.7798C102.451 22.8298 101.931 22.8098 101.421 22.7198ZM103.951 2.1198C103.611 1.8998 103.431 1.6198 103.411 1.2798C103.391 0.959799 103.541 0.669799 103.861 0.409799C104.181 0.149799 104.581 0.00979893 105.061 -0.0102011C105.551 -0.0302011 105.961 0.0697989 106.291 0.299799C106.631 0.519799 106.801 0.799799 106.801 1.1198C106.801 1.4698 106.651 1.7698 106.331 2.0198C106.011 2.2698 105.621 2.3998 105.151 2.4198C104.681 2.4398 104.281 2.3398 103.941 2.1198H103.951Z" fill="#666666"/>
<path d="M114.111 17.25C113.061 16.62 112.221 15.82 111.611 14.82C111.001 13.82 110.691 12.71 110.721 11.48C110.751 10.25 111.121 9.14995 111.861 8.19995C112.601 7.24995 113.621 6.53995 114.921 6.08995C116.221 5.63995 117.671 5.49995 119.251 5.68995C120.821 5.87995 122.211 6.36995 123.361 7.11995C124.511 7.86995 125.331 8.80995 125.811 9.90995C126.291 11.01 126.381 12.16 126.111 13.36C125.841 14.56 125.281 15.57 124.451 16.3899C123.621 17.2099 122.621 17.79 121.441 18.15C120.261 18.5099 119.021 18.6 117.681 18.43C116.341 18.27 115.161 17.88 114.101 17.25H114.111ZM120.681 16.7099C121.551 16.4399 122.281 15.9799 122.881 15.32C123.481 14.67 123.881 13.87 124.061 12.93C124.241 11.99 124.171 11.1 123.821 10.27C123.471 9.43995 122.871 8.73995 122.041 8.19995C121.211 7.64995 120.211 7.29995 119.071 7.15995C117.931 7.01995 116.881 7.11995 115.941 7.44995C115.001 7.77995 114.261 8.30995 113.701 9.02995C113.151 9.74995 112.861 10.59 112.811 11.55C112.761 12.51 112.961 13.38 113.391 14.15C113.821 14.9299 114.421 15.55 115.201 16.03C115.981 16.51 116.861 16.8 117.871 16.92C118.881 17.04 119.811 16.97 120.681 16.7V16.7099Z" fill="#666666"/>
<path d="M145.96 13.5695C144.05 17.5695 143.1 19.5795 141.19 23.5795C140.27 25.5195 139.08 26.6995 137.7 27.2095C136.31 27.7195 134.69 27.5695 132.74 26.8495C131.65 26.4495 130.67 25.9295 129.78 25.2895C128.89 24.6495 128.21 23.9595 127.74 23.1895C128.24 22.7895 128.49 22.5895 129 22.1995C129.42 22.8895 130 23.5095 130.72 24.0595C131.45 24.6195 132.27 25.0595 133.19 25.3995C134.66 25.9395 135.87 26.0395 136.86 25.6595C137.85 25.2695 138.67 24.3795 139.31 22.9495C139.55 22.4095 139.67 22.1495 139.91 21.6095C139.13 22.0695 138.25 22.3095 137.28 22.3395C136.3 22.3695 135.31 22.1895 134.27 21.8095C132.51 21.1695 131.26 20.2895 130.48 19.0995C129.69 17.8995 129.51 16.4595 129.98 14.7495C130.7 12.1595 131.05 10.8595 131.77 8.26953C132.63 8.50953 133.06 8.62953 133.92 8.88953C133.16 11.3995 132.78 12.6495 132.01 15.1595C131.62 16.4295 131.71 17.5095 132.23 18.3995C132.75 19.2895 133.66 19.9495 134.99 20.4395C136.43 20.9695 137.71 21.0595 138.86 20.6695C140.01 20.2795 140.9 19.4495 141.48 18.1295C142.46 15.9295 142.95 14.8295 143.93 12.6295C144.76 12.9995 145.17 13.1895 145.99 13.5795L145.96 13.5695Z" fill="#666666"/>
<path d="M145.339 27.18C145.209 26.82 145.229 26.5 145.389 26.21C145.559 25.9 145.829 25.72 146.189 25.65C146.549 25.59 146.919 25.67 147.299 25.89C147.659 26.1 147.899 26.38 148.029 26.73C148.149 27.08 148.119 27.4 147.939 27.7C147.759 27.99 147.489 28.16 147.129 28.23C146.759 28.3 146.409 28.23 146.059 28.03C145.709 27.83 145.469 27.55 145.349 27.19L145.339 27.18ZM153.379 12.71C154.369 13.27 154.859 13.56 155.839 14.15C153.219 18.06 151.929 20.03 149.349 23.97C148.789 23.64 148.509 23.47 147.949 23.15C150.139 18.99 151.229 16.9 153.379 12.71Z" fill="#666666"/>
</g>
<defs>
<clipPath id="clip0_602_2167">
<rect width="220" height="28" fill="white"/>
</clipPath>
</defs>
</svg>
