<svg width="220" height="20" viewBox="0 0 220 20" fill="none" xmlns="http://www.w3.org/2000/svg">
<path d="M49.5 4C49.5 10.6274 40.5457 16 29.5 16C18.4543 16 9.5 10.6274 9.5 4" stroke="#DBDE50" stroke-opacity="0.6" stroke-width="5" stroke-linecap="round" stroke-linejoin="round"/>
<path d="M89.5 4C89.5 10.6274 80.5457 16 69.5 16C58.4543 16 49.5 10.6274 49.5 4" stroke="#DBDE50" stroke-opacity="0.6" stroke-width="5" stroke-linecap="round" stroke-linejoin="round"/>
<path d="M129.5 4C129.5 10.6274 120.546 16 109.5 16C98.4543 16 89.5 10.6274 89.5 4" stroke="#DBDE50" stroke-opacity="0.6" stroke-width="5" stroke-linecap="round" stroke-linejoin="round"/>
<path d="M169.5 4C169.5 10.6274 160.546 16 149.5 16C138.454 16 129.5 10.6274 129.5 4" stroke="#DBDE50" stroke-opacity="0.6" stroke-width="5" stroke-linecap="round" stroke-linejoin="round"/>
<path d="M209.5 4C209.5 10.6274 200.546 16 189.5 16C178.454 16 169.5 10.6274 169.5 4" stroke="#DBDE50" stroke-opacity="0.6" stroke-width="5" stroke-linecap="round" stroke-linejoin="round"/>
</svg>
