<svg width="268" height="137" viewBox="0 0 268 137" fill="none" xmlns="http://www.w3.org/2000/svg">
<g filter="url(#filter0_i_556_1064)">
<path d="M47.2889 23.7314C45.6005 16.0793 43.5231 1 48.736 1C54.5658 0.999999 52.5951 11.803 54.0423 22.381C54.9267 24.0315 58.1745 26.1313 60.7957 29.1329C66.1022 35.2097 62.484 46.913 54.0423 48.9386C45.6006 50.9641 39.5708 48.7135 35.7117 41.0613C32.6566 38.5856 29.2 31.1585 30.1648 29.358C31.1296 27.5575 33.2515 27.5125 34.9881 28.2327C34.7469 26.2822 35.4704 22.6512 40.2943 23.7314C36.4352 19.2302 30.1642 4.60098 35.7117 2.80047C40.1497 1.36006 45.279 16.1543 47.2889 23.7314Z" fill="#B8D28E"/>
</g>
<g filter="url(#filter1_i_556_1064)">
<path d="M132.749 42.0904C132.929 40.6097 133.665 39.5085 135.246 39.1294C139.165 38.19 141.937 42.5355 143.501 46.6456C145.178 46.6456 149.043 49.9861 150.766 51.6564C156.819 58.717 153.722 73.7494 138.941 76.9381C127.117 79.489 121.533 70.9241 120.22 66.3228C117.368 65.1794 114.475 61.6473 114.061 56.6672C113.47 49.561 117.317 49.4105 119.315 50.2235C119.885 45.5119 123.342 45.8114 125.146 46.6456C125.54 40.4219 130.379 41.0156 132.749 42.0904Z" fill="#B8D28E"/>
</g>
<g filter="url(#filter2_i_556_1064)">
<path d="M224.266 109.758C226.391 106.641 229.872 102.819 231.997 104.521C234.122 106.222 231.997 109.213 227.702 114.576C227.273 115.135 226.414 116.881 226.414 119.395C226.414 122.537 223.192 137.411 207.514 131.336C205.868 130.498 202.145 127.23 200.427 120.861C198.28 112.9 189.876 105.74 192.504 102.61C194.459 100.28 196.798 102.61 198.087 104.495C199.204 106.129 201.935 110.754 202.503 112.503C201.772 109.039 197.337 96.8344 198.924 95.0933C200.62 93.2333 202.575 94.2553 203.863 97.8167C204.894 100.666 207.013 107.523 207.944 110.596C207.013 105.498 205.604 96.1153 206.011 93.4174C206.418 90.7194 208.826 90.2495 210.306 92.1604C211.787 94.0713 213.241 103.473 213.957 108.501C213.957 108.501 213.336 95.9059 213.957 93.8364C214.579 91.7668 217.201 90.2496 218.897 93.4174C220.592 96.5851 219.349 108.895 219.541 110.596C219.733 112.297 222.141 112.875 224.266 109.758Z" fill="#B8D28E"/>
</g>
<path d="M10.7346 109.321C12.3697 106.648 13.8092 104.326 15 102.358C16.1908 100.368 17.186 98.6062 17.9502 97.0518C18.7145 95.4974 19.3009 94.1295 19.7097 92.9275C20.1007 91.7254 20.3318 90.5855 20.4028 89.5285C20.4562 88.4715 20.3851 87.4145 20.154 86.3782C19.923 85.342 19.6031 84.2228 19.1943 83.0622C18.4301 80.9067 18.0391 79.8497 17.2749 77.6943C10.7879 80.8446 7.58886 82.5648 1.27962 86.2953L0 83.3523C7.73104 78.7927 11.6588 76.7202 19.6209 73.0104L22.5355 81.5285C23.282 83.7047 23.7263 85.6736 23.8863 87.4767C24.0462 89.2591 23.7796 91.2073 23.122 93.2798C22.4645 95.3731 21.327 97.7772 19.7453 100.554C18.1813 103.332 16.0486 106.793 13.4716 111C12.3874 110.316 11.8365 109.984 10.7346 109.321ZM36.8424 80.057C39.7749 78.9171 41.25 78.399 44.218 77.3834C44.5379 78.6269 44.6801 79.2487 45 80.4922C42.0675 81.487 40.628 82.0259 37.7133 83.1451C40.4858 92.9689 41.8898 97.8601 44.6623 107.684C43.436 108.161 42.8318 108.389 41.6054 108.886C36.2915 91.1036 33.6434 82.2332 28.3472 64.4508C29.8045 63.8497 30.5332 63.5596 32.0083 63C33.9455 69.8187 34.9052 73.2383 36.8424 80.057Z" fill="#494646"/>
<path d="M88.3556 77.8095C85.8832 78.391 83.4313 78.9724 80.9997 79.5338C78.5478 80.0952 75.8506 80.7168 72.8878 81.4386C74.2569 87.7544 74.9311 90.9023 76.3002 97.218C74.829 97.5188 74.0934 97.6792 72.6426 98C71.1919 91.7644 70.4563 88.6566 69.0056 82.4211C67.0644 82.9023 64.9598 83.4035 62.7122 83.985C60.4646 84.5664 57.9922 85.2281 55.3155 85.99C54.9681 84.807 54.7842 84.2055 54.4368 83.0226C58.36 81.9198 61.9358 80.9774 65.205 80.1554C68.4743 79.3333 71.4371 78.6316 74.1343 78.01C76.8314 77.3885 79.2834 76.8271 81.4901 76.3258C83.7173 75.8246 85.7402 75.3233 87.5587 74.8622C87.8652 76.0451 88.0287 76.6266 88.3352 77.8296L88.3556 77.8095ZM69.1486 74.4411C67.3505 74.8221 65.6137 75.0025 63.9382 74.9825C62.2423 74.9624 60.7302 74.7218 59.3408 74.2807C57.9718 73.8396 56.7866 73.198 55.8059 72.3759C54.8251 71.5338 54.1508 70.5113 53.8034 69.2882C53.5787 68.4862 53.4561 68.0852 53.2313 67.2632C52.8839 66.0401 52.9248 64.8371 53.3743 63.614C53.8034 62.391 54.5594 61.2481 55.622 60.2055C56.664 59.1429 57.9922 58.2206 59.6064 57.3985C61.2002 56.5965 62.9778 55.9749 64.8985 55.5539C66.8192 55.1328 68.6991 54.9724 70.4972 55.0326C72.2953 55.1128 73.8891 55.4135 75.2989 55.9348C76.7088 56.4561 77.8531 57.198 78.7725 58.1203C79.692 59.0426 80.2437 60.1253 80.4685 61.3684C80.6115 62.1905 80.6728 62.6115 80.8158 63.4336C81.0202 64.6767 80.8567 65.8797 80.3255 67.0426C79.7942 68.2055 78.9973 69.2682 77.9552 70.2306C76.8927 71.193 75.6259 72.0351 74.0934 72.7569C72.5813 73.4787 70.9263 74.0201 69.1282 74.4211L69.1486 74.4411ZM65.5933 58.6416C64.2856 58.9223 63.0596 59.3434 61.9358 59.8847C60.8119 60.4261 59.872 61.0677 59.116 61.7494C58.36 62.4511 57.8083 63.213 57.4609 64.0351C57.1136 64.8571 57.0523 65.6792 57.2566 66.4812C57.4201 67.1028 57.5018 67.4035 57.6653 68.0251C57.89 68.8672 58.3396 69.5489 59.0343 70.0902C59.729 70.6316 60.5667 71.0526 61.5271 71.3133C62.5079 71.594 63.5908 71.7343 64.7964 71.7343C66.0019 71.7343 67.2279 71.614 68.4743 71.3534C69.7207 71.0927 70.8854 70.6917 71.9684 70.1905C73.0513 69.6892 73.9708 69.1078 74.7268 68.4461C75.4828 67.7845 76.0754 67.0827 76.4636 66.3008C76.8518 65.5188 76.9744 64.7168 76.811 63.8546C76.6884 63.2331 76.6271 62.9123 76.5249 62.2907C76.3819 61.4687 75.9732 60.7669 75.2989 60.1654C74.6246 59.5639 73.8073 59.1028 72.8265 58.782C71.8458 58.4612 70.7219 58.2807 69.4551 58.2406C68.2087 58.2005 66.9214 58.3208 65.6137 58.6216L65.5933 58.6416ZM98 95.213C96.5493 95.3734 95.8137 95.4737 94.3629 95.6541C91.9314 77.609 90.7054 68.5865 88.2739 50.5414C90.0107 50.3208 90.8893 50.2005 92.6261 50C94.7716 68.0852 95.8545 77.1278 98 95.213Z" fill="#494646"/>
<path d="M129.484 82.8248C121.038 82.7615 116.796 82.9302 108.369 83.7312C107.414 71.336 106.936 65.1383 106 52.7431C107.586 52.5955 108.389 52.5323 109.975 52.4058C110.261 57.0856 110.414 59.4256 110.701 64.1054C116.739 63.6416 119.758 63.5152 125.796 63.4519C125.758 58.751 125.739 56.4111 125.701 51.7312C127.287 51.7312 128.089 51.7312 129.675 51.7312C129.599 64.1686 129.561 70.3874 129.465 82.8248H129.484ZM111.694 80.0843C117.369 79.6416 120.217 79.5362 125.911 79.473C125.873 74.3926 125.854 71.8419 125.815 66.7404C119.854 66.8037 116.853 66.9302 110.892 67.3729C111.217 72.4532 111.369 74.9829 111.694 80.0632V80.0843ZM142.783 66.0026C146.07 66.2134 147.713 66.361 151 66.6983C150.885 68.0053 150.828 68.6588 150.713 69.9868C147.465 69.6495 145.86 69.502 142.611 69.2912C142.019 79.9789 141.732 85.3123 141.14 96C139.783 95.9157 139.096 95.8735 137.72 95.8103C138.503 76.6904 138.885 67.1199 139.669 48C141.312 48.0843 142.115 48.1265 143.758 48.2319C143.357 55.336 143.166 58.8986 142.783 66.0026Z" fill="#494646"/>
<path d="M190.487 80.8138C188.123 80.481 185.798 80.1286 183.473 79.7762C181.147 79.4238 178.593 79.0322 175.773 78.6406C174.743 84.8468 174.21 87.9597 173.18 94.1658C171.808 93.9309 171.122 93.8134 169.731 93.5981C170.665 87.4311 171.122 84.3378 172.056 78.1708C170.207 77.9163 168.206 77.6422 166.071 77.3681C163.936 77.094 161.573 76.8199 159 76.5654C159.114 75.3712 159.172 74.7642 159.286 73.57C163.041 73.942 166.452 74.3531 169.559 74.7642C172.666 75.1754 175.487 75.5865 178.041 75.9585C180.595 76.35 182.92 76.7024 185.017 77.0353C187.113 77.3485 189.057 77.6422 190.811 77.8575C190.677 79.0518 190.601 79.6391 190.449 80.8138H190.487ZM175.01 70.9466C173.314 70.6725 171.77 70.2222 170.321 69.5957C168.873 68.9692 167.634 68.2253 166.605 67.3443C165.576 66.4633 164.775 65.4648 164.222 64.3489C163.67 63.2329 163.46 62.0778 163.593 60.8444C163.689 60.0418 163.727 59.6306 163.803 58.8084C163.936 57.575 164.394 56.4982 165.194 55.5389C165.995 54.5796 167.043 53.816 168.32 53.2287C169.597 52.6414 171.065 52.2694 172.723 52.0932C174.381 51.917 176.135 51.9953 177.945 52.289C179.756 52.5826 181.433 53.0916 182.977 53.7964C184.502 54.5012 185.779 55.3431 186.827 56.3024C187.856 57.2813 188.619 58.3385 189.076 59.5132C189.553 60.6682 189.648 61.8625 189.4 63.0567C189.229 63.8594 189.152 64.251 188.981 65.0537C188.733 66.2675 188.161 67.2855 187.285 68.1665C186.408 69.0475 185.36 69.7132 184.102 70.2222C182.844 70.7312 181.433 71.0249 179.87 71.1424C178.307 71.2598 176.687 71.1815 174.991 70.8878L175.01 70.9466ZM177.488 55.3431C176.249 55.1277 175.048 55.0886 173.886 55.1865C172.723 55.2844 171.694 55.5193 170.779 55.8913C169.883 56.2632 169.14 56.7527 168.549 57.3792C167.958 58.0057 167.615 58.73 167.52 59.5327C167.443 60.1592 167.405 60.4529 167.329 61.0794C167.234 61.9212 167.386 62.7043 167.787 63.4483C168.187 64.1922 168.759 64.8579 169.502 65.4452C170.245 66.0326 171.141 66.5612 172.17 66.9919C173.199 67.4226 174.305 67.7358 175.487 67.9316C176.668 68.1274 177.812 68.1861 178.917 68.1078C180.023 68.0295 181.033 67.8337 181.929 67.5205C182.825 67.2072 183.568 66.7569 184.178 66.1892C184.788 65.6214 185.188 64.9166 185.341 64.0944C185.455 63.4874 185.512 63.1742 185.645 62.5673C185.798 61.7646 185.703 60.9815 185.341 60.1984C184.978 59.4153 184.426 58.7105 183.682 58.0644C182.939 57.4183 182.024 56.8702 180.957 56.3807C179.889 55.9108 178.727 55.5584 177.488 55.3627V55.3431ZM192.774 100C191.44 99.628 190.773 99.4518 189.457 99.119C193.689 81.871 195.804 73.2568 200.017 56.0283C201.618 56.4394 202.418 56.6548 204 57.0855C199.502 74.2552 197.272 82.8303 192.774 100Z" fill="#494646"/>
<path d="M257 79.1597C253.538 87.3024 251.808 91.3837 248.328 99.5263C243.618 97.0377 241.245 95.8631 236.445 93.6931C235.125 97.3165 234.464 99.1282 233.144 102.771C239.942 105.837 243.297 107.55 249.898 111.312C249.399 112.387 249.167 112.925 248.667 114C234.446 105.917 227.042 102.672 212 97.7744C212.303 96.6197 212.446 96.0423 212.749 94.8677C219.744 97.1373 223.205 98.4513 230.039 101.398C231.306 97.7545 231.931 95.9229 233.197 92.2596C228.38 90.1692 225.935 89.2136 221.046 87.4616C223.527 78.881 224.758 74.5807 227.238 66C228.648 66.4977 229.361 66.7764 230.771 67.2941C229.843 70.36 229.379 71.893 228.433 74.9788C237.426 78.3633 241.851 80.3343 250.577 84.754C251.79 81.8075 252.379 80.3343 253.592 77.3679C254.966 78.0647 255.644 78.4231 257 79.1398V79.1597ZM246.294 95.246C247.561 92.1601 248.186 90.6072 249.452 87.5015C240.834 83.1215 236.445 81.1904 227.577 77.8258C226.596 81.051 226.114 82.6636 225.132 85.8888C233.715 89.134 237.962 91.0054 246.294 95.246Z" fill="#494646"/>
<defs>
<filter id="filter0_i_556_1064" x="27" y="1" width="36.2832" height="49.644" filterUnits="userSpaceOnUse" color-interpolation-filters="sRGB">
<feFlood flood-opacity="0" result="BackgroundImageFix"/>
<feBlend mode="normal" in="SourceGraphic" in2="BackgroundImageFix" result="shape"/>
<feColorMatrix in="SourceAlpha" type="matrix" values="0 0 0 0 0 0 0 0 0 0 0 0 0 0 0 0 0 0 127 0" result="hardAlpha"/>
<feOffset dx="-3" dy="1"/>
<feGaussianBlur stdDeviation="2"/>
<feComposite in2="hardAlpha" operator="arithmetic" k2="-1" k3="1"/>
<feColorMatrix type="matrix" values="0 0 0 0 0.472375 0 0 0 0 0.629167 0 0 0 0 0.228073 0 0 0 0.3 0"/>
<feBlend mode="normal" in2="shape" result="effect1_innerShadow_556_1064"/>
</filter>
<filter id="filter1_i_556_1064" x="111" y="39" width="42.6836" height="39.4028" filterUnits="userSpaceOnUse" color-interpolation-filters="sRGB">
<feFlood flood-opacity="0" result="BackgroundImageFix"/>
<feBlend mode="normal" in="SourceGraphic" in2="BackgroundImageFix" result="shape"/>
<feColorMatrix in="SourceAlpha" type="matrix" values="0 0 0 0 0 0 0 0 0 0 0 0 0 0 0 0 0 0 127 0" result="hardAlpha"/>
<feOffset dx="-3" dy="1"/>
<feGaussianBlur stdDeviation="2"/>
<feComposite in2="hardAlpha" operator="arithmetic" k2="-1" k3="1"/>
<feColorMatrix type="matrix" values="0 0 0 0 0.472375 0 0 0 0 0.629167 0 0 0 0 0.228073 0 0 0 0.3 0"/>
<feBlend mode="normal" in2="shape" result="effect1_innerShadow_556_1064"/>
</filter>
<filter id="filter2_i_556_1064" x="189" y="91" width="43.8301" height="42.7793" filterUnits="userSpaceOnUse" color-interpolation-filters="sRGB">
<feFlood flood-opacity="0" result="BackgroundImageFix"/>
<feBlend mode="normal" in="SourceGraphic" in2="BackgroundImageFix" result="shape"/>
<feColorMatrix in="SourceAlpha" type="matrix" values="0 0 0 0 0 0 0 0 0 0 0 0 0 0 0 0 0 0 127 0" result="hardAlpha"/>
<feOffset dx="-3" dy="1"/>
<feGaussianBlur stdDeviation="2"/>
<feComposite in2="hardAlpha" operator="arithmetic" k2="-1" k3="1"/>
<feColorMatrix type="matrix" values="0 0 0 0 0.472375 0 0 0 0 0.629167 0 0 0 0 0.228073 0 0 0 0.3 0"/>
<feBlend mode="normal" in2="shape" result="effect1_innerShadow_556_1064"/>
</filter>
</defs>
</svg>
