<svg width="58" height="58" viewBox="0 0 58 58" fill="none" xmlns="http://www.w3.org/2000/svg">
<g filter="url(#filter0_d_602_2162)">
<circle cx="29" cy="27" r="25" fill="#9B9B9B" fill-opacity="0.5"/>
<mask id="mask0_602_2162" style="mask-type:alpha" maskUnits="userSpaceOnUse" x="16" y="14" width="26" height="26">
<rect x="16.5" y="14.5" width="25" height="25" fill="#D9D9D9"/>
</mask>
<g mask="url(#mask0_602_2162)">
<path d="M35.25 37.4163C34.3819 37.4163 33.6441 37.1125 33.0365 36.5049C32.4288 35.8972 32.125 35.1594 32.125 34.2913C32.125 34.1698 32.1337 34.0438 32.151 33.9132C32.1684 33.7834 32.1944 33.6663 32.2292 33.5622L24.8854 29.2913C24.5903 29.5518 24.2604 29.7556 23.8958 29.9028C23.5312 30.0507 23.1493 30.1247 22.75 30.1247C21.8819 30.1247 21.1441 29.8209 20.5365 29.2132C19.9288 28.6056 19.625 27.8677 19.625 26.9997C19.625 26.1316 19.9288 25.3938 20.5365 24.7861C21.1441 24.1785 21.8819 23.8747 22.75 23.8747C23.1493 23.8747 23.5312 23.9483 23.8958 24.0955C24.2604 24.2434 24.5903 24.4476 24.8854 24.708L32.2292 20.4372C32.1944 20.333 32.1684 20.216 32.151 20.0861C32.1337 19.9556 32.125 19.8295 32.125 19.708C32.125 18.84 32.4288 18.1021 33.0365 17.4945C33.6441 16.8868 34.3819 16.583 35.25 16.583C36.1181 16.583 36.8559 16.8868 37.4635 17.4945C38.0712 18.1021 38.375 18.84 38.375 19.708C38.375 20.5761 38.0712 21.3139 37.4635 21.9215C36.8559 22.5292 36.1181 22.833 35.25 22.833C34.8507 22.833 34.4687 22.7591 34.1042 22.6111C33.7396 22.4639 33.4097 22.2601 33.1146 21.9997L25.7708 26.2705C25.8056 26.3747 25.8316 26.4917 25.849 26.6216C25.8663 26.7521 25.875 26.8781 25.875 26.9997C25.875 27.1212 25.8663 27.2469 25.849 27.3768C25.8316 27.5073 25.8056 27.6247 25.7708 27.7288L33.1146 31.9997C33.4097 31.7393 33.7396 31.5351 34.1042 31.3872C34.4687 31.24 34.8507 31.1663 35.25 31.1663C36.1181 31.1663 36.8559 31.4702 37.4635 32.0778C38.0712 32.6854 38.375 33.4233 38.375 34.2913C38.375 35.1594 38.0712 35.8972 37.4635 36.5049C36.8559 37.1125 36.1181 37.4163 35.25 37.4163Z" fill="#FFFEFB"/>
</g>
</g>
<defs>
<filter id="filter0_d_602_2162" x="0" y="0" width="58" height="58" filterUnits="userSpaceOnUse" color-interpolation-filters="sRGB">
<feFlood flood-opacity="0" result="BackgroundImageFix"/>
<feColorMatrix in="SourceAlpha" type="matrix" values="0 0 0 0 0 0 0 0 0 0 0 0 0 0 0 0 0 0 127 0" result="hardAlpha"/>
<feOffset dy="2"/>
<feGaussianBlur stdDeviation="2"/>
<feComposite in2="hardAlpha" operator="out"/>
<feColorMatrix type="matrix" values="0 0 0 0 0.286275 0 0 0 0 0.27451 0 0 0 0 0.27451 0 0 0 0.1 0"/>
<feBlend mode="normal" in2="BackgroundImageFix" result="effect1_dropShadow_602_2162"/>
<feBlend mode="normal" in="SourceGraphic" in2="effect1_dropShadow_602_2162" result="shape"/>
</filter>
</defs>
</svg>
