<svg width="78" height="176" viewBox="0 0 78 176" fill="none" xmlns="http://www.w3.org/2000/svg">
<line x1="1" y1="-1" x2="6.77778" y2="-1" transform="matrix(5.46394e-08 1 1 -3.49692e-08 12.5 0)" stroke="#52AADD" stroke-width="2" stroke-linecap="round"/>
<line x1="1" y1="-1" x2="7.75" y2="-1" transform="matrix(1 0 0 -1 0 8.88867)" stroke="#52AADD" stroke-width="2" stroke-linecap="round"/>
<line x1="1" y1="-1" x2="5.25" y2="-1" transform="matrix(1 0 0 -1 13.75 8.88867)" stroke="#52AADD" stroke-width="2" stroke-linecap="round"/>
<line x1="1" y1="-1" x2="6.77778" y2="-1" transform="matrix(-1.34155e-08 1 1 1.05999e-08 12.5 12.2227)" stroke="#52AADD" stroke-width="2" stroke-linecap="round"/>
<line x1="1" y1="-1" x2="6.77778" y2="-1" transform="matrix(5.46394e-08 1 1 -3.49692e-08 70.5 156)" stroke="#52AADD" stroke-width="2" stroke-linecap="round"/>
<line x1="1" y1="-1" x2="7.75" y2="-1" transform="matrix(1 0 0 -1 58 164.889)" stroke="#52AADD" stroke-width="2" stroke-linecap="round"/>
<line x1="1" y1="-1" x2="5.25" y2="-1" transform="matrix(1 0 0 -1 71.75 164.889)" stroke="#52AADD" stroke-width="2" stroke-linecap="round"/>
<line x1="1" y1="-1" x2="6.77778" y2="-1" transform="matrix(-1.34155e-08 1 1 1.05999e-08 70.5 168.223)" stroke="#52AADD" stroke-width="2" stroke-linecap="round"/>
</svg>
