<svg width="42" height="62" viewBox="0 0 42 62" fill="none" xmlns="http://www.w3.org/2000/svg">
<path d="M21.8171 28.9719C19.6866 19.219 17.0651 0 23.6433 0C31 -1.18348e-06 28.5132 13.7688 30.3394 27.2507C31.4554 29.3543 35.5539 32.0306 38.8616 35.8562C45.558 43.6012 40.9922 58.5174 30.3394 61.099C19.6867 63.6807 12.0776 60.8122 7.20775 51.0593C3.35248 47.9039 -1.00951 38.4379 0.207947 36.1431C1.4254 33.8483 4.10311 33.7909 6.29453 34.7088C5.99017 32.2228 6.90326 27.595 12.9905 28.9719C8.12072 23.2349 0.207254 4.58955 7.20775 2.29475C12.8082 0.458908 19.2808 19.3146 21.8171 28.9719Z" fill="#93BA55"/>
</svg>
