<svg width="52" height="54" viewBox="0 0 52 54" fill="none" xmlns="http://www.w3.org/2000/svg">
<path d="M41.0929 24.2449C43.7991 20.2161 48.2333 15.2765 50.9395 17.4755C53.6456 19.6745 50.9395 23.5409 45.4692 30.4727C44.9221 31.1948 43.8281 33.4512 43.8281 36.7005C43.8281 40.7621 39.7253 59.9871 19.7587 52.1347C17.6618 51.0516 12.9208 46.8275 10.7327 38.5959C7.99757 28.3065 -2.70492 19.052 0.641585 15.0058C3.13213 11.9945 6.11097 15.0055 7.75249 17.4426C9.17534 19.5551 12.6529 25.5328 13.376 27.7932C12.445 23.3159 6.79646 7.54106 8.8181 5.29067C10.9778 2.88662 13.4679 4.20757 15.1089 8.81074C16.4218 12.4933 19.1205 21.3566 20.3057 25.328C19.1205 18.7391 17.326 6.61162 17.8441 3.12447C18.3622 -0.362684 21.4288 -0.970096 23.3144 1.49982C25.2 3.96974 27.0524 16.1217 27.9642 22.6202C27.9642 22.6202 27.1726 6.34099 27.9642 3.66603C28.7557 0.991064 32.0959 -0.969923 34.255 3.12447C36.4141 7.21886 34.831 23.129 35.0756 25.328C35.3201 27.527 38.3867 28.2737 41.0929 24.2449Z" fill="#93BA55"/>
</svg>
