<svg width="496" height="432" viewBox="0 0 496 432" fill="none" xmlns="http://www.w3.org/2000/svg">
<g filter="url(#filter0_d_788_1540)">
<rect x="16" y="12" width="464" height="400" rx="24" fill="#DCEDF5"/>
</g>
<rect x="148" y="309" width="200" height="30" rx="15" fill="#52AADD" fill-opacity="0.3"/>
<path d="M253.709 148.303C266.9 131.263 302.425 94.7271 318.091 111.285C336.992 131.263 283.833 153.591 253.709 148.303Z" fill="#52AADD" fill-opacity="0.4"/>
<path d="M198.293 173.474C212.272 164.268 242.238 146.445 250.271 148.795C260.312 151.733 211.287 175.824 198.293 173.474Z" fill="#52AADD" fill-opacity="0.4"/>
<path d="M141 166.046C157.538 154.294 164.626 161.933 170.533 168.984C176.44 176.035 181.047 179.56 190.025 174.86C190.615 173.293 190.615 169.571 187.662 170.159C184.709 170.747 186.481 178.385 195.341 173.097L243.184 148.419C244.562 146.068 245.074 142.19 236.096 145.481C227.118 148.771 204.201 160.758 192.387 168.984C224.283 156.057 245.547 141.368 248.5 139.017C251.453 136.667 282.758 102 303.431 102C324.695 102 321.742 125.503 303.431 131.966C293.045 135.633 261.691 143.326 246.728 145.481C263.463 133.337 302.601 106.377 308.747 114.927C313.394 121.39 282.168 137.842 246.728 143.13C258.344 131.575 284.931 108.489 298.115 106.7C324.104 103.175 324.104 141.242 318.788 143.13C313.473 145.019 309.929 124.328 330.602 121.39C351.275 118.452 359.544 147.243 351.275 150.769C343.006 154.294 336.154 137.842 356 121.39" stroke="#494646" stroke-linecap="round"/>
<path d="M163.125 312.12H165.045C166.565 312.12 168.165 312.08 169.845 312C171.525 311.893 173.205 311.72 174.885 311.48L175.365 315.64C173.818 315.907 172.058 316.093 170.085 316.2C168.112 316.28 166.085 316.32 164.005 316.32H158.365V301.8H167.245V295.96H158.365V291.76H172.005V305.84H163.125V312.12ZM177.285 305.84H173.605V301.48H177.285V289.32H182.085V323.96H177.285V305.84ZM189.565 325.76H184.765V288.56H189.565V325.76ZM222.859 325.76H217.779V288.56H222.859V325.76ZM208.779 307.36C209.632 308.293 210.566 309.267 211.579 310.28C212.592 311.267 213.619 312.227 214.659 313.16L211.419 316.56C210.512 315.707 209.632 314.867 208.779 314.04C207.926 313.187 207.126 312.373 206.379 311.6C205.606 310.827 204.952 310.133 204.419 309.52C203.886 308.88 203.552 308.387 203.419 308.04H203.339C203.206 308.413 202.832 308.96 202.219 309.68C201.632 310.373 201.006 311.067 200.339 311.76C199.592 312.533 198.806 313.333 197.979 314.16C197.152 314.96 196.166 315.893 195.019 316.96L191.699 313.52C193.966 311.493 195.966 309.533 197.699 307.64C198.286 307 198.766 306.387 199.139 305.8C199.539 305.213 199.859 304.613 200.099 304C200.339 303.387 200.512 302.747 200.619 302.08C200.726 301.413 200.779 300.667 200.779 299.84V291.16H205.939V299.84C205.939 300.64 205.966 301.36 206.019 302C206.099 302.64 206.246 303.253 206.459 303.84C206.672 304.4 206.952 304.973 207.299 305.56C207.672 306.12 208.166 306.72 208.779 307.36ZM230.713 312V295.88H227.073V291.8H249.233V295.88H245.353V311.88C246.1 311.827 246.846 311.773 247.593 311.72C248.366 311.667 249.14 311.613 249.913 311.56L250.273 315.6C248.326 315.813 246.086 315.947 243.553 316C241.046 316.053 238.46 316.08 235.793 316.08H226.673V312H230.713ZM257.273 325.76H252.193V288.56H257.273V325.76ZM240.393 295.88H235.673V312H240.393V295.88ZM270.407 309.12C272.167 309.12 273.807 309.12 275.327 309.12C276.847 309.12 278.274 309.107 279.607 309.08V307.24C277.607 306.947 276.074 306.36 275.007 305.48C273.94 304.6 273.407 303.533 273.407 302.28V301.24C273.407 299.773 274.154 298.56 275.647 297.6C277.14 296.613 279.287 296.12 282.087 296.12C284.887 296.12 287.034 296.613 288.527 297.6C290.02 298.56 290.767 299.773 290.767 301.24V302.28C290.767 303.507 290.234 304.573 289.167 305.48C288.127 306.36 286.607 306.947 284.607 307.24V308.96C286.447 308.907 288.06 308.84 289.447 308.76C290.86 308.68 292.167 308.573 293.367 308.44L293.727 312.48C292.634 312.613 291.367 312.733 289.927 312.84C288.514 312.92 286.86 312.987 284.967 313.04C283.1 313.093 280.967 313.133 278.567 313.16C276.167 313.187 273.447 313.2 270.407 313.2V309.12ZM300.207 299.64H305.127V304.04H300.207V313.28H295.207V288.56H300.207V299.64ZM275.207 314.96H300.207V326.24H295.047V319.08H275.207V314.96ZM279.567 291.2V288H284.607V291.2H292.127V295.28H271.847V291.2H279.567ZM282.087 299.88C280.807 299.88 279.834 300.053 279.167 300.4C278.5 300.747 278.167 301.16 278.167 301.64V301.88C278.167 302.36 278.5 302.773 279.167 303.12C279.834 303.467 280.807 303.64 282.087 303.64C283.367 303.64 284.34 303.467 285.007 303.12C285.674 302.773 286.007 302.36 286.007 301.88V301.64C286.007 301.16 285.674 300.747 285.007 300.4C284.34 300.053 283.367 299.88 282.087 299.88ZM317.101 321.04H336.301V325.36H312.021V312.88H317.101V321.04ZM335.701 315.04H330.661V288.56H335.701V315.04ZM315.541 309.36C314.048 309.36 312.701 309.133 311.501 308.68C310.328 308.2 309.328 307.56 308.501 306.76C307.674 305.96 307.034 305.04 306.581 304C306.154 302.96 305.941 301.88 305.941 300.76V298.52C305.941 297.4 306.154 296.32 306.581 295.28C307.034 294.24 307.674 293.32 308.501 292.52C309.328 291.72 310.328 291.093 311.501 290.64C312.701 290.16 314.048 289.92 315.541 289.92C317.034 289.92 318.368 290.16 319.541 290.64C320.741 291.093 321.754 291.72 322.581 292.52C323.408 293.32 324.034 294.24 324.461 295.28C324.914 296.32 325.141 297.4 325.141 298.52V300.76C325.141 301.88 324.914 302.96 324.461 304C324.034 305.04 323.408 305.96 322.581 306.76C321.754 307.56 320.741 308.2 319.541 308.68C318.368 309.133 317.034 309.36 315.541 309.36ZM315.541 294.28C314.794 294.28 314.114 294.413 313.501 294.68C312.914 294.92 312.408 295.253 311.981 295.68C311.581 296.107 311.261 296.6 311.021 297.16C310.808 297.72 310.701 298.293 310.701 298.88V300.4C310.701 301.013 310.808 301.6 311.021 302.16C311.261 302.693 311.581 303.173 311.981 303.6C312.408 304.027 312.914 304.373 313.501 304.64C314.114 304.88 314.794 305 315.541 305C316.288 305 316.954 304.88 317.541 304.64C318.154 304.373 318.661 304.027 319.061 303.6C319.488 303.173 319.808 302.693 320.021 302.16C320.261 301.6 320.381 301.013 320.381 300.4V298.88C320.381 298.293 320.261 297.72 320.021 297.16C319.808 296.6 319.488 296.107 319.061 295.68C318.661 295.253 318.154 294.92 317.541 294.68C316.954 294.413 316.288 294.28 315.541 294.28Z" fill="#E06437"/>
<path d="M173.949 254.88C173.949 254.227 174.109 253.64 174.429 253.12C174.749 252.587 175.182 252.133 175.729 251.76C176.276 251.373 176.909 251.08 177.629 250.88C178.362 250.667 179.142 250.56 179.969 250.56C180.782 250.56 181.549 250.667 182.269 250.88C183.002 251.08 183.642 251.373 184.189 251.76C184.749 252.133 185.189 252.587 185.509 253.12C185.829 253.64 185.989 254.227 185.989 254.88V255.86C185.989 256.46 185.849 257.013 185.569 257.52C185.289 258.027 184.909 258.467 184.429 258.84C183.949 259.2 183.389 259.5 182.749 259.74C182.109 259.967 181.422 260.107 180.689 260.16V263.92H188.369V265.14H171.569V263.92H179.249V260.16C178.502 260.107 177.809 259.967 177.169 259.74C176.529 259.5 175.969 259.2 175.489 258.84C175.009 258.467 174.629 258.027 174.349 257.52C174.082 257.013 173.949 256.46 173.949 255.86V254.88ZM179.969 251.86C179.316 251.86 178.709 251.94 178.149 252.1C177.589 252.247 177.102 252.46 176.689 252.74C176.276 253.007 175.949 253.327 175.709 253.7C175.469 254.073 175.349 254.487 175.349 254.94V255.8C175.349 256.253 175.469 256.667 175.709 257.04C175.949 257.413 176.276 257.74 176.689 258.02C177.102 258.287 177.589 258.5 178.149 258.66C178.709 258.807 179.316 258.88 179.969 258.88C180.609 258.88 181.209 258.807 181.769 258.66C182.342 258.5 182.836 258.287 183.249 258.02C183.662 257.74 183.989 257.413 184.229 257.04C184.469 256.667 184.589 256.253 184.589 255.8V254.94C184.589 254.487 184.469 254.073 184.229 253.7C183.989 253.327 183.662 253.007 183.249 252.74C182.836 252.46 182.342 252.247 181.769 252.1C181.209 251.94 180.609 251.86 179.969 251.86ZM205.576 257.16V258.36H188.776V257.16H205.576ZM203.076 260.26V264.62H192.656V266.6H203.616V267.8H191.276V263.44H201.696V261.46H191.176V260.26H203.076ZM192.756 254H203.196V255.24H191.336V249.88H192.756V254ZM222.783 259.06V260.28H205.983V259.06H222.783ZM209.883 266.26H220.683V267.5H208.463V262.12H209.883V266.26ZM214.383 257.38C213.57 257.38 212.81 257.3 212.103 257.14C211.41 256.98 210.803 256.753 210.283 256.46C209.777 256.167 209.377 255.813 209.083 255.4C208.79 254.973 208.643 254.507 208.643 254V253.24C208.643 252.733 208.79 252.273 209.083 251.86C209.377 251.433 209.777 251.073 210.283 250.78C210.803 250.487 211.41 250.26 212.103 250.1C212.81 249.94 213.57 249.86 214.383 249.86C215.197 249.86 215.95 249.94 216.643 250.1C217.35 250.26 217.957 250.487 218.463 250.78C218.983 251.073 219.39 251.433 219.683 251.86C219.977 252.273 220.123 252.733 220.123 253.24V254C220.123 254.507 219.977 254.973 219.683 255.4C219.39 255.813 218.983 256.167 218.463 256.46C217.957 256.753 217.35 256.98 216.643 257.14C215.95 257.3 215.197 257.38 214.383 257.38ZM214.383 251.06C213.797 251.06 213.237 251.12 212.703 251.24C212.183 251.347 211.723 251.5 211.323 251.7C210.923 251.9 210.603 252.14 210.363 252.42C210.123 252.7 210.003 253.007 210.003 253.34V253.9C210.003 254.233 210.123 254.54 210.363 254.82C210.603 255.1 210.923 255.34 211.323 255.54C211.723 255.74 212.183 255.9 212.703 256.02C213.237 256.127 213.797 256.18 214.383 256.18C214.97 256.18 215.523 256.127 216.043 256.02C216.577 255.9 217.043 255.74 217.443 255.54C217.843 255.34 218.163 255.1 218.403 254.82C218.643 254.54 218.763 254.233 218.763 253.9V253.34C218.763 253.007 218.643 252.7 218.403 252.42C218.163 252.14 217.843 251.9 217.443 251.7C217.043 251.5 216.577 251.347 216.043 251.24C215.523 251.12 214.97 251.06 214.383 251.06ZM242.35 256.14H245.39V257.4H242.35V267.72H240.93V249.44H242.35V256.14ZM230.87 261.42H233.13C234.09 261.42 235.07 261.387 236.07 261.32C237.084 261.24 238.137 261.107 239.23 260.92L239.41 262.18C238.33 262.367 237.23 262.5 236.11 262.58C234.99 262.66 233.95 262.7 232.99 262.7H229.45V250.94H230.87V261.42ZM259.977 259.28H254.497V263.92H262.197V265.14H245.397V263.92H253.097V259.28H247.817V251.04H259.777V252.26H249.237V258.06H259.977V259.28ZM269.984 254.84C269.984 254.187 270.144 253.6 270.464 253.08C270.784 252.547 271.218 252.093 271.764 251.72C272.311 251.347 272.944 251.06 273.664 250.86C274.398 250.647 275.178 250.54 276.004 250.54C276.818 250.54 277.584 250.647 278.304 250.86C279.038 251.06 279.678 251.347 280.224 251.72C280.784 252.093 281.224 252.547 281.544 253.08C281.864 253.6 282.024 254.187 282.024 254.84V255.82C282.024 256.527 281.838 257.16 281.464 257.72C281.091 258.28 280.591 258.747 279.964 259.12V263.92H284.404V265.14H267.604V263.92H272.044V259.12C271.404 258.747 270.898 258.287 270.524 257.74C270.164 257.18 269.984 256.54 269.984 255.82V254.84ZM276.004 251.84C275.351 251.84 274.744 251.92 274.184 252.08C273.624 252.227 273.138 252.433 272.724 252.7C272.311 252.967 271.984 253.287 271.744 253.66C271.504 254.033 271.384 254.447 271.384 254.9V255.76C271.384 256.213 271.504 256.627 271.744 257C271.984 257.373 272.311 257.7 272.724 257.98C273.138 258.247 273.624 258.453 274.184 258.6C274.744 258.747 275.351 258.82 276.004 258.82C276.644 258.82 277.244 258.747 277.804 258.6C278.378 258.453 278.871 258.247 279.284 257.98C279.698 257.7 280.024 257.373 280.264 257C280.504 256.627 280.624 256.213 280.624 255.76V254.9C280.624 254.447 280.504 254.033 280.264 253.66C280.024 253.287 279.698 252.967 279.284 252.7C278.871 252.433 278.378 252.227 277.804 252.08C277.244 251.92 276.644 251.84 276.004 251.84ZM276.004 260.12C275.538 260.12 275.091 260.087 274.664 260.02C274.238 259.953 273.831 259.86 273.444 259.74V263.92H278.564V259.74C278.178 259.873 277.764 259.973 277.324 260.04C276.898 260.093 276.458 260.12 276.004 260.12ZM299.891 267.72H298.471V249.44H299.891V267.72ZM287.611 261.92H290.351C291.365 261.92 292.391 261.893 293.431 261.84C294.485 261.773 295.478 261.667 296.411 261.52L296.571 262.74C295.505 262.913 294.411 263.033 293.291 263.1C292.185 263.153 291.085 263.18 289.991 263.18H286.211V256.18H292.831V252.16H286.211V250.92H294.231V257.42H287.611V261.92ZM316.178 256.26H319.238V257.52H316.178V267.72H314.758V249.44H316.178V256.26ZM305.218 258.88C305.538 258.52 305.792 258.193 305.978 257.9C306.165 257.607 306.312 257.32 306.418 257.04C306.525 256.747 306.592 256.447 306.618 256.14C306.658 255.833 306.678 255.48 306.678 255.08V250.78H308.138V254.98C308.138 255.367 308.152 255.707 308.178 256C308.205 256.28 308.258 256.553 308.338 256.82C308.418 257.073 308.538 257.327 308.698 257.58C308.858 257.833 309.072 258.113 309.338 258.42C309.738 258.887 310.225 259.413 310.798 260C311.385 260.587 312.058 261.22 312.818 261.9L311.898 262.86C311.258 262.26 310.665 261.693 310.118 261.16C309.585 260.613 309.118 260.127 308.718 259.7C308.412 259.38 308.132 259.073 307.878 258.78C307.638 258.487 307.492 258.273 307.438 258.14H307.418C307.405 258.207 307.352 258.313 307.258 258.46C307.165 258.593 307.045 258.747 306.898 258.92C306.765 259.093 306.618 259.28 306.458 259.48C306.298 259.667 306.145 259.84 305.998 260C305.825 260.187 305.612 260.407 305.358 260.66C305.118 260.913 304.858 261.18 304.578 261.46C304.298 261.74 304.005 262.027 303.698 262.32C303.392 262.613 303.092 262.887 302.798 263.14L301.858 262.16C302.525 261.573 303.132 261.013 303.678 260.48C304.238 259.947 304.752 259.413 305.218 258.88ZM320.865 264.12H322.785V266.08H320.865V264.12ZM321.245 262.04L321.005 250.72H322.645L322.405 262.04H321.245Z" fill="#E06437"/>
<g filter="url(#filter1_d_788_1540)">
<mask id="mask0_788_1540" style="mask-type:alpha" maskUnits="userSpaceOnUse" x="408" y="44" width="40" height="40">
<rect x="408" y="44" width="40" height="40" fill="#D9D9D9"/>
</mask>
<g mask="url(#mask0_788_1540)">
<path d="M428.001 72.333C428.473 72.333 428.869 72.173 429.189 71.853C429.508 71.5341 429.667 71.1386 429.667 70.6663V63.958C429.667 63.4858 429.508 63.0969 429.189 62.7913C428.869 62.4858 428.473 62.333 428.001 62.333C427.528 62.333 427.133 62.4925 426.814 62.8113C426.494 63.1313 426.334 63.5275 426.334 63.9997V70.708C426.334 71.1802 426.494 71.5691 426.814 71.8747C427.133 72.1802 427.528 72.333 428.001 72.333ZM428.001 58.9997C428.473 58.9997 428.869 58.8397 429.189 58.5197C429.508 58.2008 429.667 57.8052 429.667 57.333C429.667 56.8608 429.508 56.4647 429.189 56.1447C428.869 55.8258 428.473 55.6663 428.001 55.6663C427.528 55.6663 427.133 55.8258 426.814 56.1447C426.494 56.4647 426.334 56.8608 426.334 57.333C426.334 57.8052 426.494 58.2008 426.814 58.5197C427.133 58.8397 427.528 58.9997 428.001 58.9997ZM428.001 80.6663C425.695 80.6663 423.528 80.2286 421.501 79.353C419.473 78.4786 417.709 77.2913 416.209 75.7913C414.709 74.2913 413.522 72.5275 412.647 70.4997C411.772 68.4719 411.334 66.3052 411.334 63.9997C411.334 61.6941 411.772 59.5275 412.647 57.4997C413.522 55.4719 414.709 53.708 416.209 52.208C417.709 50.708 419.473 49.5202 421.501 48.6447C423.528 47.7702 425.695 47.333 428.001 47.333C430.306 47.333 432.473 47.7702 434.501 48.6447C436.528 49.5202 438.292 50.708 439.792 52.208C441.292 53.708 442.48 55.4719 443.354 57.4997C444.23 59.5275 444.667 61.6941 444.667 63.9997C444.667 66.3052 444.23 68.4719 443.354 70.4997C442.48 72.5275 441.292 74.2913 439.792 75.7913C438.292 77.2913 436.528 78.4786 434.501 79.353C432.473 80.2286 430.306 80.6663 428.001 80.6663Z" fill="#666666"/>
<path d="M428.001 72.333C428.473 72.333 428.869 72.173 429.189 71.853C429.508 71.5341 429.667 71.1386 429.667 70.6663V63.958C429.667 63.4858 429.508 63.0969 429.189 62.7913C428.869 62.4858 428.473 62.333 428.001 62.333C427.528 62.333 427.133 62.4925 426.814 62.8113C426.494 63.1313 426.334 63.5275 426.334 63.9997V70.708C426.334 71.1802 426.494 71.5691 426.814 71.8747C427.133 72.1802 427.528 72.333 428.001 72.333Z" fill="#52AADD" fill-opacity="0.2"/>
<path d="M428.001 58.9997C428.473 58.9997 428.869 58.8397 429.189 58.5197C429.508 58.2008 429.667 57.8052 429.667 57.333C429.667 56.8608 429.508 56.4647 429.189 56.1447C428.869 55.8258 428.473 55.6663 428.001 55.6663C427.528 55.6663 427.133 55.8258 426.814 56.1447C426.494 56.4647 426.334 56.8608 426.334 57.333C426.334 57.8052 426.494 58.2008 426.814 58.5197C427.133 58.8397 427.528 58.9997 428.001 58.9997Z" fill="#52AADD" fill-opacity="0.2"/>
</g>
</g>
<defs>
<filter id="filter0_d_788_1540" x="0" y="0" width="496" height="432" filterUnits="userSpaceOnUse" color-interpolation-filters="sRGB">
<feFlood flood-opacity="0" result="BackgroundImageFix"/>
<feColorMatrix in="SourceAlpha" type="matrix" values="0 0 0 0 0 0 0 0 0 0 0 0 0 0 0 0 0 0 127 0" result="hardAlpha"/>
<feOffset dy="4"/>
<feGaussianBlur stdDeviation="8"/>
<feComposite in2="hardAlpha" operator="out"/>
<feColorMatrix type="matrix" values="0 0 0 0 0.286275 0 0 0 0 0.27451 0 0 0 0 0.27451 0 0 0 0.2 0"/>
<feBlend mode="normal" in2="BackgroundImageFix" result="effect1_dropShadow_788_1540"/>
<feBlend mode="normal" in="SourceGraphic" in2="effect1_dropShadow_788_1540" result="shape"/>
</filter>
<filter id="filter1_d_788_1540" x="407.334" y="45.333" width="41.334" height="41.3335" filterUnits="userSpaceOnUse" color-interpolation-filters="sRGB">
<feFlood flood-opacity="0" result="BackgroundImageFix"/>
<feColorMatrix in="SourceAlpha" type="matrix" values="0 0 0 0 0 0 0 0 0 0 0 0 0 0 0 0 0 0 127 0" result="hardAlpha"/>
<feOffset dy="2"/>
<feGaussianBlur stdDeviation="2"/>
<feComposite in2="hardAlpha" operator="out"/>
<feColorMatrix type="matrix" values="0 0 0 0 0.286275 0 0 0 0 0.27451 0 0 0 0 0.27451 0 0 0 0.1 0"/>
<feBlend mode="normal" in2="BackgroundImageFix" result="effect1_dropShadow_788_1540"/>
<feBlend mode="normal" in="SourceGraphic" in2="effect1_dropShadow_788_1540" result="shape"/>
</filter>
</defs>
</svg>
