<svg width="50" height="70" viewBox="0 0 50 70" fill="none" xmlns="http://www.w3.org/2000/svg">
<path d="M3.58356 59.66H8.57556V60.428H4.43556V65.936H5.85156C6.46756 65.936 7.07156 65.916 7.66356 65.876C8.26356 65.828 8.90356 65.748 9.58356 65.636L9.69156 66.392C9.05156 66.504 8.38356 66.584 7.68756 66.632C6.99956 66.68 6.31556 66.704 5.63556 66.704H3.58356V59.66ZM11.4796 62.732H13.3036V63.488H11.4796V69.632H10.6276V58.664H11.4796V62.732ZM22.3438 69.632H21.4918V58.664H22.3438V69.632ZM15.4078 64.352C15.5998 64.136 15.7518 63.94 15.8638 63.764C15.9758 63.588 16.0638 63.416 16.1278 63.248C16.1918 63.072 16.2318 62.892 16.2478 62.708C16.2718 62.524 16.2838 62.312 16.2838 62.072V59.456H17.1598V62.012C17.1598 62.244 17.1678 62.448 17.1838 62.624C17.1998 62.792 17.2318 62.956 17.2798 63.116C17.3278 63.268 17.3998 63.42 17.4958 63.572C17.5918 63.724 17.7198 63.892 17.8798 64.076C18.1198 64.356 18.4118 64.672 18.7558 65.024C19.1078 65.376 19.5118 65.756 19.9678 66.164L19.4158 66.74C19.0318 66.38 18.6758 66.04 18.3478 65.72C18.0278 65.392 17.7478 65.1 17.5078 64.844C17.3238 64.652 17.1558 64.468 17.0038 64.292C16.8598 64.116 16.7718 63.988 16.7398 63.908H16.7278C16.7198 63.948 16.6878 64.012 16.6318 64.1C16.5758 64.18 16.5038 64.272 16.4158 64.376C16.3358 64.48 16.2478 64.592 16.1518 64.712C16.0558 64.824 15.9638 64.928 15.8758 65.024C15.7718 65.136 15.6438 65.268 15.4918 65.42C15.3478 65.572 15.1918 65.732 15.0238 65.9C14.8558 66.068 14.6798 66.24 14.4958 66.416C14.3118 66.592 14.1318 66.756 13.9558 66.908L13.3918 66.32C13.7918 65.968 14.1558 65.632 14.4838 65.312C14.8198 64.992 15.1278 64.672 15.4078 64.352ZM29.86 67.112C29.444 67.112 29.076 67.048 28.756 66.92C28.436 66.784 28.164 66.612 27.94 66.404C27.724 66.188 27.556 65.944 27.436 65.672C27.324 65.4 27.268 65.124 27.268 64.844V64.196C27.268 63.916 27.324 63.64 27.436 63.368C27.556 63.096 27.724 62.852 27.94 62.636C28.164 62.42 28.436 62.248 28.756 62.12C29.076 61.984 29.444 61.916 29.86 61.916C30.276 61.916 30.644 61.984 30.964 62.12C31.284 62.248 31.552 62.42 31.768 62.636C31.992 62.852 32.16 63.096 32.272 63.368C32.392 63.64 32.452 63.916 32.452 64.196V64.844C32.452 65.124 32.392 65.4 32.272 65.672C32.16 65.944 31.992 66.188 31.768 66.404C31.552 66.612 31.284 66.784 30.964 66.92C30.644 67.048 30.276 67.112 29.86 67.112ZM29.86 62.672C29.588 62.672 29.34 62.712 29.116 62.792C28.9 62.872 28.712 62.984 28.552 63.128C28.4 63.272 28.28 63.444 28.192 63.644C28.112 63.836 28.072 64.044 28.072 64.268V64.772C28.072 64.996 28.112 65.208 28.192 65.408C28.28 65.6 28.4 65.768 28.552 65.912C28.712 66.056 28.9 66.168 29.116 66.248C29.34 66.328 29.588 66.368 29.86 66.368C30.132 66.368 30.376 66.328 30.592 66.248C30.816 66.168 31.004 66.056 31.156 65.912C31.316 65.768 31.436 65.6 31.516 65.408C31.604 65.208 31.648 64.996 31.648 64.772V64.268C31.648 64.044 31.604 63.836 31.516 63.644C31.436 63.444 31.316 63.272 31.156 63.128C31.004 62.984 30.816 62.872 30.592 62.792C30.376 62.712 30.132 62.672 29.86 62.672ZM35.164 63.152H36.988V63.908H35.164V69.632H34.312V58.664H35.164V63.152ZM29.44 60.392V58.724H30.292V60.392H33.028V61.136H26.668V60.392H29.44ZM45.9682 69.632H45.1162V58.664H45.9682V69.632ZM37.5082 66.452C38.4282 65.924 39.1602 65.472 39.7042 65.096C40.2482 64.712 40.6602 64.356 40.9402 64.028C41.2202 63.692 41.4002 63.356 41.4802 63.02C41.5682 62.684 41.6122 62.292 41.6122 61.844V60.464H37.6282V59.696H42.4402V61.856C42.4402 62.224 42.4202 62.556 42.3802 62.852C42.3402 63.148 42.2602 63.428 42.1402 63.692C42.0282 63.956 41.8682 64.212 41.6602 64.46C41.4522 64.708 41.1802 64.968 40.8442 65.24C40.5162 65.512 40.1122 65.804 39.6322 66.116C39.1602 66.42 38.6002 66.76 37.9522 67.136L37.5082 66.452Z" fill="#494646"/>
<circle cx="25" cy="25" r="25" fill="#D9D9D9"/>
<mask id="mask0_289_691" style="mask-type:alpha" maskUnits="userSpaceOnUse" x="8" y="8" width="34" height="34">
<rect x="8.33398" y="8.33333" width="33.3333" height="33.3333" fill="#D9D9D9"/>
</mask>
<g mask="url(#mask0_289_691)">
<path d="M24.9994 38.8889C21.7587 38.8889 18.9638 37.8241 16.6147 35.6945C14.2647 33.5648 12.9161 30.9259 12.5689 27.7778C12.5226 27.4074 12.6328 27.0833 12.8994 26.8056C13.1652 26.5278 13.4948 26.3889 13.8883 26.3889C14.2587 26.3889 14.5888 26.5218 14.8786 26.7875C15.1675 27.0542 15.3351 27.3843 15.3814 27.7778C15.7054 30.1621 16.7703 32.1472 18.5758 33.7333C20.3814 35.3185 22.5226 36.1111 24.9994 36.1111C27.7078 36.1111 30.005 35.1676 31.8911 33.2806C33.7781 31.3945 34.7216 29.0972 34.7216 26.3889C34.7216 23.6806 33.7781 21.3829 31.8911 19.4958C30.005 17.6097 27.7078 16.6667 24.9994 16.6667H24.7911L26.0064 17.882C26.261 18.1366 26.3883 18.4607 26.3883 18.8542C26.3883 19.2477 26.261 19.5718 26.0064 19.8264C25.7286 20.1042 25.3929 20.2431 24.9994 20.2431C24.6059 20.2431 24.2818 20.1042 24.0272 19.8264L20.4161 16.25C20.2772 16.1111 20.1791 15.9607 20.1216 15.7986C20.0633 15.6366 20.0341 15.463 20.0341 15.2778C20.0341 15.0926 20.0633 14.919 20.1216 14.757C20.1791 14.5949 20.2772 14.4445 20.4161 14.3056L24.0272 10.6945C24.2818 10.4398 24.6059 10.3125 24.9994 10.3125C25.3929 10.3125 25.7286 10.4398 26.0064 10.6945C26.261 10.9722 26.3883 11.3079 26.3883 11.7014C26.3883 12.0949 26.261 12.419 26.0064 12.6736L24.7911 13.8889H24.9994C26.7355 13.8889 28.3619 14.219 29.8786 14.8792C31.3943 15.5384 32.7138 16.4292 33.8369 17.5514C34.9591 18.6746 35.8503 19.994 36.5105 21.5097C37.1698 23.0264 37.4994 24.6528 37.4994 26.3889C37.4994 28.125 37.1698 29.7509 36.5105 31.2667C35.8503 32.7833 34.9591 34.1028 33.8369 35.225C32.7138 36.3482 31.3943 37.2398 29.8786 37.9C28.3619 38.5593 26.7355 38.8889 24.9994 38.8889Z" fill="#666666"/>
</g>
</svg>
