<svg width="220" height="220" viewBox="0 0 220 220" fill="none" xmlns="http://www.w3.org/2000/svg">
<circle cx="110" cy="110" r="110" fill="#F4F4C8"/>
<path d="M40.6146 54.4487C40.9388 54.2544 41.251 54.1897 41.5632 54.2415C41.8754 54.2933 42.0915 54.4487 42.2236 54.7206C46.6543 63.5897 48.8637 68.0308 53.2944 76.8999C53.4385 77.1848 53.4625 77.4696 53.3664 77.7415C53.2704 78.0134 53.0903 78.2335 52.8261 78.3889C51.1811 79.36 50.3766 79.8649 48.7556 80.9137C48.4914 81.082 48.2273 81.1468 47.9631 81.082C47.6989 81.0302 47.4948 80.8619 47.3387 80.59C42.4517 72.0057 40.0142 67.7071 35.1272 59.1228C34.9831 58.8638 34.9591 58.579 35.0672 58.2682C35.1752 57.9575 35.3794 57.6985 35.7036 57.4914C37.6487 56.2225 38.6334 55.6139 40.6146 54.4487Z" fill="#8CC63F"/>
<path d="M65.6126 72.7954C63.8715 73.5593 62.3466 74.0514 61.0137 74.2326C59.6809 74.4139 58.4922 74.3103 57.4596 73.9737C56.3909 73.6241 55.4183 73.0155 54.5658 72.1092C53.7253 71.2029 52.9568 70.0246 52.2604 68.5615L51.0716 66.0497C50.3872 64.6125 49.9669 63.24 49.8108 61.9453C49.6548 60.6505 49.8469 59.3946 50.3392 58.2293C50.8195 57.0899 51.636 55.9505 52.8247 54.8888C54.0134 53.8271 55.6344 52.8172 57.6757 51.9238C58.4922 51.5612 58.9125 51.38 59.729 51.0304C61.7582 50.1758 63.5473 49.7097 65.0843 49.5932C66.6092 49.4767 67.966 49.6579 69.0587 50.1499C70.1274 50.6161 71.0279 51.4188 71.7484 52.4676C72.4688 53.5163 73.0331 54.824 73.4654 56.3778L74.2099 59.0709C74.6421 60.6376 74.8343 62.0747 74.8102 63.3566C74.7742 64.6384 74.5101 65.8166 73.9937 66.8395C73.4654 67.8883 72.6249 68.8334 71.5562 69.688C70.4876 70.5425 69.0947 71.3194 67.3657 72.0445C66.6572 72.3423 66.309 72.4976 65.6126 72.8084V72.7954ZM59.9331 56.9086C59.2847 57.1935 58.7684 57.569 58.3961 58.0221C58.0239 58.4753 57.7357 58.9803 57.5796 59.5241C57.4235 60.0549 57.3875 60.6376 57.4355 61.2331C57.4836 61.8287 57.6277 62.4114 57.8558 62.9681L58.6483 64.8973C59.1286 66.0756 59.849 66.9172 60.7616 67.4351C61.2419 67.707 61.7462 67.8624 62.2625 67.9012C62.7908 67.94 63.3432 67.8365 63.9436 67.5646C64.4479 67.3445 64.7 67.2279 65.2163 67.0208C65.8167 66.7618 66.297 66.4252 66.6452 66.0108C66.9934 65.5836 67.2576 65.1045 67.4257 64.5478C67.7619 63.499 67.7379 62.3596 67.3296 61.1425L66.6692 59.1615C66.4771 58.5918 66.2129 58.0739 65.8647 57.5948C65.5165 57.1287 65.1203 56.7274 64.664 56.4684C64.2077 56.1965 63.6794 56.0411 63.115 55.9893C62.5627 55.9375 61.9503 56.0541 61.3019 56.326C60.7496 56.559 60.4734 56.6756 59.9211 56.9216L59.9331 56.9086Z" fill="#8CC63F"/>
<path d="M77.034 51.4578C76.7098 51.5485 76.4216 51.5226 76.1694 51.3931C75.9173 51.2507 75.7492 51.0435 75.6771 50.7457L74.7766 47.1463C74.7045 46.8485 74.7525 46.5766 74.9206 46.3176C75.0888 46.0586 75.3409 45.8774 75.6771 45.7867C80.9243 44.3107 83.578 43.7151 88.9093 42.7829C91.1426 42.3945 93.0998 42.7829 94.6848 43.8705C96.2458 44.9451 97.1103 46.5248 97.3024 48.5317C97.6386 51.9628 97.8067 53.6719 98.1309 57.0901C98.227 58.1 98.203 58.9934 98.0709 59.7832C97.9268 60.573 97.6146 61.2463 97.1824 61.8289C96.7501 62.3986 96.1497 62.9165 95.3572 63.292C94.5647 63.6804 93.5801 63.9653 92.3914 64.1725C89.1134 64.7292 87.4804 65.0788 84.2264 65.8815C82.3052 66.3606 80.7202 66.257 79.4234 65.519C78.1266 64.7939 77.2021 63.4733 76.6977 61.5441L76.3856 60.3658C76.1334 59.3948 76.0614 58.4496 76.1934 57.5432C76.3255 56.6369 76.6377 55.7953 77.142 54.9925C77.6463 54.2027 78.2947 53.5165 79.0992 52.9598C79.9037 52.403 80.8403 51.9887 81.8849 51.7297C85.1509 50.9399 86.784 50.6033 90.086 50.0336C89.9899 49.7487 89.8578 49.5157 89.6777 49.3474C89.4976 49.179 89.2935 49.0366 89.1014 48.9589C88.8973 48.8812 88.6571 48.8553 88.453 48.8424C88.2489 48.8424 88.0687 48.8424 87.9367 48.8683C83.554 49.6969 81.3686 50.2019 77.034 51.419V51.4578ZM90.2421 59.2394C90.3742 59.2135 90.5062 59.1747 90.6623 59.1358C90.8064 59.084 90.9385 58.9934 91.0226 58.9027C91.1066 58.8121 91.2027 58.6956 91.2507 58.5402C91.2987 58.3719 91.3107 58.1647 91.2747 57.8799L90.8905 55.2903C88.3689 55.7306 87.1202 55.9766 84.6226 56.5463C84.4905 56.5722 84.3224 56.6369 84.1183 56.7405C83.9142 56.8441 83.7341 56.9994 83.554 57.1548C83.3859 57.3102 83.2418 57.5173 83.1457 57.7634C83.0497 58.0223 83.0376 58.3201 83.1097 58.6826L83.2898 59.5372C83.3979 60.0421 83.626 60.327 83.9742 60.4047C84.1423 60.4306 84.3104 60.4306 84.4905 60.4047C84.6707 60.3788 84.8267 60.3529 84.9828 60.327C87.0721 59.8479 88.1288 59.6278 90.2301 59.2394H90.2421Z" fill="#8CC63F"/>
<path d="M109.704 62.1913C108.288 62.2172 107.039 62.1137 105.946 61.8935C104.853 61.6605 103.917 61.2332 103.124 60.5988C102.332 59.9643 101.707 59.1357 101.239 58.1258C100.783 57.1029 100.483 55.8081 100.351 54.2415L100.171 51.9886C100.038 50.3701 100.207 48.9847 100.675 47.8065C101.143 46.6282 101.876 45.6183 102.896 44.8026C103.905 43.974 105.142 43.3654 106.607 42.977C108.059 42.5886 109.704 42.3814 111.494 42.3814C113.319 42.3814 114.231 42.3943 116.056 42.4591L116.26 36.0241C116.26 35.7004 116.405 35.4414 116.669 35.2602C116.933 35.0789 117.245 34.9883 117.593 35.0012C119.671 35.0919 120.715 35.1695 122.792 35.3379C123.153 35.3638 123.441 35.4932 123.645 35.7004C123.861 35.9205 123.957 36.1795 123.921 36.5031C123.225 45.2558 122.865 49.645 122.168 58.3977C122.048 59.8996 121.568 60.9484 120.763 61.5569C119.947 62.1655 118.998 62.4244 117.869 62.3597C114.603 62.1655 112.958 62.1396 109.692 62.1913H109.704ZM115.612 56.6497C115.72 53.2186 115.768 51.5095 115.876 48.0784C114.039 48.0136 113.115 48.0007 111.277 48.0007C109.848 48.0007 108.804 48.3632 108.155 49.0495C107.507 49.7357 107.207 50.5514 107.231 51.5095L107.279 53.3222C107.339 55.5492 108.6 56.5979 111.049 56.585C112.874 56.585 113.787 56.585 115.612 56.6627V56.6497Z" fill="#8CC63F"/>
<path d="M134.79 36.8786C135.139 36.9434 135.427 37.0988 135.631 37.3448C135.835 37.5908 135.919 37.8627 135.871 38.1605L135.295 41.8247C135.247 42.1225 135.091 42.3555 134.826 42.5109C134.562 42.6663 134.262 42.7181 133.926 42.6663C131.837 42.3037 130.792 42.1484 128.691 41.8635C128.342 41.8117 128.078 41.6822 127.874 41.4492C127.67 41.2161 127.586 40.9572 127.622 40.6464C127.778 39.1704 127.862 38.4324 128.018 36.9434C128.054 36.6456 128.186 36.3996 128.438 36.2313C128.691 36.0629 128.991 35.9982 129.351 36.037C131.524 36.3219 132.617 36.4902 134.79 36.8657V36.8786ZM133.686 44.2977C134.022 44.3624 134.286 44.5048 134.49 44.7508C134.682 44.9968 134.766 45.2687 134.718 45.5665C133.614 52.5324 133.073 56.0153 131.969 62.9941C131.921 63.3178 131.776 63.5509 131.548 63.7062C131.32 63.8616 131.056 63.9134 130.768 63.8616C128.967 63.5509 128.066 63.4084 126.265 63.1754C125.965 63.1365 125.737 63.0071 125.569 62.787C125.401 62.5668 125.329 62.2949 125.365 61.9842C126.109 54.9666 126.481 51.4448 127.238 44.4271C127.274 44.1293 127.406 43.8833 127.646 43.715C127.886 43.5338 128.174 43.469 128.51 43.5208C130.588 43.7927 131.62 43.961 133.686 44.3106V44.2977Z" fill="#8CC63F"/>
<path d="M147.385 50.9009C146.713 50.7067 146.149 50.642 145.68 50.7197C145.212 50.7844 144.816 51.0045 144.468 51.3153C144.131 51.626 143.831 52.0662 143.591 52.6359C143.351 53.2056 143.135 53.9178 142.943 54.7852C142.006 58.8767 141.55 60.9095 140.613 65.001C140.541 65.2988 140.397 65.5189 140.169 65.6613C139.941 65.8167 139.677 65.8555 139.389 65.7778C137.623 65.3247 136.747 65.1175 134.97 64.742C134.682 64.6773 134.453 64.5219 134.285 64.2888C134.117 64.0428 134.069 63.7709 134.117 63.4861C134.862 59.2263 135.234 57.0899 135.978 52.8301C136.279 51.0952 136.723 49.6321 137.311 48.4409C137.9 47.2497 138.692 46.3434 139.677 45.7348C140.661 45.1133 141.874 44.7767 143.291 44.7378C144.708 44.699 146.413 44.945 148.382 45.5147C149.235 45.7607 149.655 45.8902 150.507 46.1491C152.453 46.7447 154.038 47.4828 155.262 48.3244C156.487 49.166 157.376 50.137 157.94 51.2246C158.504 52.3122 158.732 53.5164 158.672 54.8629C158.6 56.1965 158.276 57.6985 157.7 59.3558C156.295 63.4213 155.586 65.4541 154.182 69.5197C154.086 69.8046 153.905 69.9988 153.665 70.1282C153.413 70.2448 153.149 70.2577 152.873 70.1412C151.156 69.4679 150.291 69.1442 148.562 68.5486C148.274 68.445 148.07 68.2767 147.926 68.0048C147.794 67.7459 147.758 67.474 147.842 67.1762C149.006 63.1624 149.583 61.1555 150.748 57.1288C151.216 55.4974 151.336 54.2285 151.096 53.3222C150.856 52.4029 150.087 51.7425 148.79 51.3412C148.226 51.1728 147.938 51.0822 147.373 50.9139L147.385 50.9009Z" fill="#8CC63F"/>
<path d="M176.935 77.9358C175.974 79.6319 174.666 80.5642 173.032 80.8102C172.24 80.9137 171.424 80.8619 170.571 80.6548C169.718 80.4606 168.866 80.111 168.001 79.606C165.576 78.2077 164.351 77.5344 161.878 76.2914C160.089 75.3851 158.804 74.2068 158.023 72.692C157.639 71.941 157.423 71.1382 157.363 70.2837C157.303 69.4291 157.447 68.5358 157.795 67.5906L157.915 67.2539C158.023 66.9561 158.215 66.749 158.504 66.6454C158.792 66.5418 159.068 66.5548 159.356 66.6842C161.097 67.4482 161.974 67.8625 163.691 68.7041C163.979 68.8465 164.171 69.0537 164.279 69.3256C164.387 69.5975 164.375 69.8953 164.243 70.1801V70.206C164.111 70.4779 164.087 70.7239 164.159 70.9181C164.231 71.1253 164.339 71.3195 164.483 71.4749C164.615 71.6173 164.783 71.7468 164.976 71.8504C165.168 71.9669 165.336 72.0575 165.48 72.1223C166.825 72.8214 167.497 73.184 168.818 73.922C168.938 73.9867 169.094 74.0644 169.286 74.168C169.478 74.2586 169.682 74.3493 169.887 74.3752C170.091 74.414 170.307 74.3752 170.499 74.3234C170.691 74.2586 170.859 74.1033 170.991 73.8314L171.616 72.5754C169.526 71.3584 168.47 70.7757 166.332 69.6752C164.964 68.963 163.787 68.3156 162.79 67.6812C161.794 67.0597 161.037 66.3347 160.485 65.5448C159.944 64.755 159.608 63.8616 159.548 62.8258C159.488 61.803 159.692 60.5211 160.197 58.9933L160.449 58.2941C161.049 56.6498 161.71 55.4327 162.454 54.6429C163.186 53.8531 164.075 53.3611 165.072 53.2187C166.056 53.0762 167.185 53.2187 168.41 53.633C169.634 54.0473 171.051 54.6688 172.648 55.4845C177.415 57.9446 179.757 59.3041 184.343 62.282C184.656 62.4762 184.848 62.7352 184.944 63.033C185.04 63.3308 185.016 63.6286 184.848 63.9005C181.678 69.4809 180.081 72.2776 176.911 77.871L176.935 77.9358ZM167.197 61.6864C166.873 62.5021 166.873 63.1366 167.173 63.5768C167.473 64.03 168.025 64.4572 168.83 64.8716C170.943 65.9721 171.988 66.5418 174.065 67.7589L176.118 63.6545C173.969 62.4115 172.888 61.8159 170.715 60.6765C169.863 60.2363 169.166 60.0421 168.626 60.1068C168.085 60.1716 167.629 60.6636 167.245 61.557L167.197 61.6735V61.6864Z" fill="#8CC63F"/>
<path d="M47.8926 118.19C47.8926 155.091 75.6297 185 109.851 185C144.072 185 171.809 155.091 171.809 118.19" fill="#F15A24"/>
<path d="M47.8926 118.19C47.8926 155.091 75.6297 185 109.851 185C144.072 185 171.809 155.091 171.809 118.19" stroke="#F7931E" stroke-width="12" stroke-miterlimit="10"/>
<path d="M107.926 138.66C116.235 138.66 122.971 131.397 122.971 122.437C122.971 113.477 116.235 106.213 107.926 106.213C99.6169 106.213 92.8809 113.477 92.8809 122.437C92.8809 131.397 99.6169 138.66 107.926 138.66Z" fill="#F15A24" stroke="white" stroke-width="3" stroke-miterlimit="10"/>
<path d="M86.3873 93.0716C89.8556 93.0716 92.6672 90.0398 92.6672 86.3C92.6672 82.5601 89.8556 79.5283 86.3873 79.5283C82.919 79.5283 80.1074 82.5601 80.1074 86.3C80.1074 90.0398 82.919 93.0716 86.3873 93.0716Z" fill="#8CC63F"/>
<path d="M107.95 93.0716C111.418 93.0716 114.23 90.0398 114.23 86.3C114.23 82.5601 111.418 79.5283 107.95 79.5283C104.482 79.5283 101.67 82.5601 101.67 86.3C101.67 90.0398 104.482 93.0716 107.95 93.0716Z" fill="#8CC63F"/>
<path d="M129.518 93.0716C132.986 93.0716 135.798 90.0398 135.798 86.3C135.798 82.5601 132.986 79.5283 129.518 79.5283C126.05 79.5283 123.238 82.5601 123.238 86.3C123.238 90.0398 126.05 93.0716 129.518 93.0716Z" fill="#8CC63F"/>
</svg>
