<svg width="242" height="58" viewBox="0 0 242 58" fill="none" xmlns="http://www.w3.org/2000/svg">
<path d="M8.29896 32.4712C7.86994 31.2802 7.79597 30.0735 8.07705 28.8511C8.35814 27.6444 8.92031 26.4691 9.76356 25.3564C10.6068 24.2437 11.6868 23.2094 13.0034 22.3005C14.3201 21.3759 15.8143 20.6236 17.4712 20.0281C19.0986 19.4483 20.7111 19.1035 22.2793 19.0095C23.8622 18.8998 25.2972 19.0251 26.6139 19.3856C27.9306 19.746 29.0401 20.3102 29.9574 21.1094C30.8746 21.893 31.4959 22.9117 31.8362 24.134L32.3392 25.9833C32.6499 27.1116 32.6646 28.2399 32.3836 29.3526C32.1025 30.481 31.5995 31.5309 30.8746 32.5026C30.1497 33.4899 29.2324 34.3988 28.1377 35.2451C27.0429 36.0913 25.815 36.7965 24.454 37.3764C25.3268 40.1816 25.7559 41.5763 26.6287 44.3659C32.3244 42.3756 35.1944 41.4666 40.9641 39.7898C41.2008 40.7144 41.3191 41.1689 41.5558 42.0935C29.0401 45.7449 22.8414 47.9233 10.666 53.0322L9.83753 50.8068C15.4445 48.4561 18.2701 47.3591 23.9658 45.3061C23.0781 42.5166 22.6195 41.1219 21.7319 38.3323C20.2821 38.7398 18.8915 38.9592 17.5304 38.9905C16.1694 39.0219 14.9267 38.8652 13.7875 38.5518C12.6484 38.2383 11.6424 37.7055 10.7991 36.9846C9.94109 36.2637 9.31975 35.3548 8.9351 34.2578L8.29896 32.4556V32.4712ZM18.2405 22.4415C16.9386 22.896 15.7847 23.4758 14.7639 24.1654C13.7431 24.8549 12.9147 25.6071 12.2785 26.4221C11.6276 27.237 11.1986 28.0832 10.9619 28.9452C10.7252 29.8071 10.7548 30.669 11.0506 31.4996L11.598 33.0824C11.8939 33.913 12.3821 34.5869 13.0774 35.0884C13.7727 35.5898 14.6012 35.9503 15.5628 36.154C16.5244 36.3577 17.5748 36.4048 18.7435 36.2951C19.8974 36.1854 21.1105 35.9033 22.3532 35.4645C23.5811 35.0257 24.6907 34.4928 25.6819 33.8346C26.6879 33.1764 27.5016 32.4712 28.1525 31.6877C28.8034 30.9198 29.262 30.1048 29.5283 29.2586C29.7946 28.4123 29.8094 27.5661 29.5727 26.7041L29.1141 25.09C28.8774 24.2437 28.4188 23.5385 27.7383 22.99C27.0577 22.4415 26.2293 22.0497 25.2677 21.8147C24.2913 21.5796 23.1965 21.5012 21.9834 21.5953C20.7703 21.6893 19.5128 21.9714 18.2405 22.4258V22.4415Z" fill="#494646"/>
<path d="M71.6182 19.2602C71.7513 20.1848 71.8253 20.655 71.9732 21.5796C58.6882 23.8206 52.0901 25.3094 39.0418 29.0705C38.8051 28.1616 38.6868 27.7071 38.4648 26.7982C51.6019 23.0057 58.2592 21.5012 71.633 19.2445L71.6182 19.2602ZM67.6386 26.1243C68.2008 29.4937 68.4818 31.1705 69.0292 34.5399C61.1144 36.013 57.1644 36.8906 49.3384 38.9279L50.2113 42.689C58.348 40.5734 62.4459 39.6644 70.6714 38.1756L71.0412 40.495C61.8393 42.1719 57.268 43.2062 48.1845 45.6509C47.3856 42.3442 46.9862 40.6831 46.1873 37.3764C54.0577 35.2451 58.0225 34.3361 65.9965 32.769C65.7302 31.2489 65.597 30.481 65.3307 28.9608C57.194 30.5593 53.1405 31.4996 45.0925 33.6779L44.5452 31.4056C53.7174 28.9295 58.3332 27.8795 67.609 26.14L67.6386 26.1243ZM44.8558 18.6647C53.2144 16.502 57.4307 15.5618 65.8781 13.9946L66.2775 16.3923C56.7502 18.1632 52.0013 19.2289 42.5924 21.7676C41.616 17.6931 41.1278 15.6558 40.1514 11.5969C41.3201 11.2835 41.897 11.1267 43.0658 10.829C43.7907 13.9633 44.1457 15.5304 44.8706 18.6647H44.8558Z" fill="#494646"/>
<path d="M106.206 19.2132L106.31 21.5952C93.0689 22.2691 86.4412 22.9743 73.3189 25.1527C73.1858 24.2124 73.1118 23.7422 72.9639 22.7863C86.1897 20.5923 92.8618 19.8714 106.206 19.2132ZM82.3876 35.6055C90.5539 34.4772 94.6518 34.054 102.848 33.5212L102.981 35.9503C93.7642 36.5458 89.1633 37.0316 80.0058 38.395C79.4584 34.2264 79.1773 32.1265 78.63 27.9578C79.7247 27.8011 80.2869 27.7228 81.3816 27.5661C81.7811 30.7787 81.9734 32.3929 82.3728 35.6055H82.3876ZM89.2373 17.2543C87.6099 17.4266 86.0861 17.4423 84.6511 17.3169C83.2161 17.1759 81.9586 16.8938 80.8491 16.4707C79.7543 16.0476 78.8519 15.4677 78.1566 14.7312C77.4612 13.9946 77.047 13.1483 76.9139 12.161L76.7215 10.6879C76.5884 9.70062 76.7807 8.76034 77.2689 7.86706C77.7719 6.95812 78.5116 6.15888 79.5028 5.43799C80.494 4.71711 81.7071 4.12159 83.1273 3.62011C84.5476 3.13429 86.1157 2.78952 87.817 2.60146C89.5183 2.4134 91.1161 2.4134 92.5955 2.60146C94.0749 2.77385 95.3768 3.11862 96.4863 3.60443C97.5959 4.09025 98.4835 4.73278 99.1344 5.50068C99.8002 6.28425 100.155 7.16185 100.214 8.14915L100.303 9.63794C100.362 10.6252 100.126 11.5499 99.5782 12.4118C99.0309 13.2737 98.2616 14.0259 97.2704 14.6841C96.2792 15.3423 95.0957 15.8908 93.7198 16.3296C92.344 16.7684 90.8498 17.0819 89.2225 17.2543H89.2373ZM88.0537 4.93651C86.8406 5.06188 85.6867 5.31262 84.6215 5.65739C83.5564 6.00216 82.6243 6.42529 81.8551 6.92678C81.071 7.42826 80.4792 7.97677 80.0502 8.58795C79.6212 9.19914 79.4584 9.82599 79.5324 10.4685L79.6655 11.5499C79.7395 12.1924 80.065 12.7566 80.6124 13.2424C81.1597 13.7282 81.8698 14.1043 82.7131 14.3864C83.5712 14.6685 84.5328 14.8565 85.6127 14.9506C86.6927 15.0446 87.8318 15.0289 89.0153 14.9035C90.1989 14.7782 91.3084 14.5588 92.344 14.2297C93.3796 13.9006 94.2968 13.5088 95.0809 13.0543C95.865 12.5998 96.4715 12.067 96.9301 11.4872C97.3739 10.9073 97.5811 10.2805 97.5367 9.63794L97.4627 8.54094C97.4183 7.89841 97.1372 7.30289 96.6047 6.80141C96.0721 6.29992 95.3768 5.87679 94.5187 5.56336C93.6607 5.24993 92.6695 5.03053 91.5599 4.90516C90.4504 4.79546 89.2816 4.79546 88.0685 4.92083L88.0537 4.93651Z" fill="#494646"/>
<path d="M141.83 21.4699C139.981 21.5169 138.147 21.5639 136.342 21.5796C134.537 21.5952 132.51 21.6109 130.247 21.6109C130.099 26.8922 130.025 29.525 129.877 34.8063C128.782 34.7749 128.249 34.7592 127.155 34.7279L127.406 21.6109C126.016 21.6109 124.521 21.6109 122.938 21.6109C121.355 21.6109 119.61 21.6109 117.716 21.6422L117.687 19.2132C120.542 19.1818 123.16 19.1662 125.527 19.1662C127.894 19.1662 130.054 19.1662 132.007 19.1662C133.96 19.1662 135.735 19.1662 137.333 19.1662C138.945 19.1662 140.41 19.1191 141.742 19.0565C141.771 20.0124 141.801 20.4982 141.83 21.4542V21.4699ZM138.872 2.241C138.605 7.44392 138.472 10.0297 138.206 15.2326C131.016 14.8095 127.421 14.7155 120.231 14.7311C120.231 9.52822 120.216 6.92676 120.201 1.72385C127.672 1.70818 131.415 1.8022 138.886 2.241H138.872ZM135.883 4.56038C130.75 4.30963 128.19 4.24695 123.057 4.19993C123.042 7.42825 123.027 9.04241 123.012 12.2707C128.028 12.3021 130.528 12.3804 135.528 12.6155C135.661 9.38718 135.735 7.77302 135.883 4.56038ZM144.049 26.0773C144.774 16.0475 145.129 11.0327 145.839 1.00296C147.023 1.09699 147.63 1.144 148.813 1.2537C147.674 15.5304 147.097 22.6609 145.958 36.9376C144.893 36.8435 144.36 36.7965 143.295 36.7182C143.532 33.4585 143.65 31.813 143.872 28.5533C140.469 28.2869 138.783 28.1772 135.38 28.0049C135.425 27.0175 135.439 26.5317 135.484 25.5444C138.916 25.7168 140.617 25.8265 144.049 26.1086V26.0773Z" fill="#494646"/>
<path d="M180.679 26.8452C179.584 26.6101 179.036 26.5004 177.956 26.2967C178.622 22.5355 178.948 20.655 179.613 16.8938C176.063 16.1886 174.288 15.8595 170.722 15.264C170.308 18.0065 170.116 19.3699 169.701 22.1124C163.192 21.0154 159.937 20.5766 153.398 19.84C154.035 13.4618 154.345 10.2805 154.967 3.90219C161.816 4.65442 165.248 5.14024 172.054 6.28425C171.654 8.91705 171.462 10.2335 171.077 12.8663C174.657 13.4618 176.462 13.7909 180.028 14.5118C180.634 11.0954 180.93 9.3872 181.537 5.95515C182.691 6.19022 183.282 6.29992 184.436 6.55066C182.927 14.6685 182.173 18.7274 180.664 26.8452H180.679ZM168.947 8.24318C164.376 7.52229 162.083 7.19319 157.496 6.64469C157.023 11.0797 156.786 13.3051 156.313 17.7401C160.751 18.2729 162.97 18.5863 167.394 19.2759C168.015 14.8565 168.326 12.6469 168.947 8.22751V8.24318ZM157.422 25.1057C166.609 26.2653 171.181 27.0332 180.294 28.9295C179.332 34.1481 178.844 36.7495 177.868 41.9681C176.832 41.7487 176.314 41.639 175.264 41.4353C176.018 37.1727 176.403 35.0413 177.158 30.763C169.184 29.1802 165.189 28.5377 157.156 27.5191C157.26 26.5474 157.319 26.0773 157.422 25.1057Z" fill="#494646"/>
<path d="M209.527 18.8057C206.199 17.8028 204.542 17.3326 201.198 16.4237C200.666 18.6333 200.399 19.746 199.852 21.9714C199.674 22.7079 199.541 23.3504 199.467 23.8833C199.393 24.4318 199.379 24.9646 199.408 25.4818C199.453 25.9989 199.556 26.5474 199.748 27.0959C199.926 27.6444 200.207 28.2869 200.592 29.0078C201.124 30.0735 201.82 31.3115 202.648 32.722C203.476 34.1324 204.438 35.6682 205.518 37.3607C204.63 37.8622 204.187 38.0973 203.299 38.6144C202.308 37.0159 201.465 35.6055 200.754 34.3831C200.044 33.1451 199.408 32.0168 198.831 30.9981C198.417 30.2615 198.032 29.5563 197.692 28.9138C197.352 28.2713 197.159 27.7855 197.115 27.5034H197.071C196.982 27.6601 196.804 27.8481 196.538 28.0832C196.272 28.3183 195.976 28.5534 195.621 28.8041C195.266 29.0705 194.911 29.3213 194.511 29.5877C194.127 29.8541 193.757 30.1048 193.402 30.3242C193.076 30.5436 192.647 30.81 192.115 31.1392C191.582 31.4683 190.99 31.8444 190.354 32.2361C189.718 32.6279 189.038 33.0354 188.313 33.4742C187.588 33.8973 186.907 34.2891 186.242 34.6496C185.679 33.7563 185.398 33.3175 184.821 32.4399C186.256 31.6406 187.632 30.8571 188.919 30.0735C190.206 29.2899 191.419 28.5063 192.559 27.7541C193.328 27.2213 193.964 26.7355 194.452 26.281C194.94 25.8265 195.355 25.3564 195.665 24.8862C195.991 24.4004 196.242 23.8989 196.435 23.3504C196.627 22.8176 196.819 22.1751 196.982 21.4385L198.313 15.6871C194.926 14.7938 193.224 14.3864 189.807 13.6028C189.999 12.6468 190.103 12.1767 190.295 11.2364C198.269 13.0856 202.249 14.1356 210.134 16.5177L209.512 18.8527L209.527 18.8057ZM209.734 50.2896C208.699 49.9449 208.181 49.7725 207.145 49.4434C211.095 35.7466 213.078 28.8981 217.028 15.2013C218.182 15.5774 218.759 15.7655 219.913 16.1416C215.844 29.8071 213.803 36.6242 209.734 50.2896Z" fill="#494646"/>
<path d="M223.567 43.7703L224.159 42.0308C224.366 41.4196 224.602 40.8868 224.884 40.448C225.165 40.0092 225.52 39.6174 225.964 39.257C226.407 38.8965 226.955 38.5674 227.591 38.2383C228.227 37.9092 229.026 37.5644 229.973 37.1883C230.579 36.9533 231.156 36.7182 231.718 36.4988C232.281 36.2794 232.813 36.013 233.301 35.7309C233.804 35.4488 234.248 35.0884 234.633 34.6809C235.017 34.2578 235.328 33.7406 235.565 33.1138L235.772 32.5339C236.245 31.2175 236.157 29.9795 235.476 28.8355C234.796 27.6758 233.627 26.7825 231.97 26.14C230.624 25.6228 229.322 25.4034 228.049 25.4974C226.777 25.5915 225.594 25.9206 224.499 26.5004C224.011 25.5601 223.759 25.09 223.271 24.1654C223.744 23.8833 224.307 23.6325 224.972 23.4131C225.638 23.1781 226.378 23.0213 227.191 22.9587C228.005 22.8803 228.878 22.896 229.81 23.0213C230.742 23.131 231.718 23.3818 232.724 23.7736C235.373 24.7922 237.207 26.234 238.213 28.0049C239.219 29.7914 239.337 31.6877 238.583 33.6779L238.346 34.2891C238.006 35.1824 237.562 35.9189 237.015 36.4674C236.467 37.0316 235.846 37.4861 235.18 37.8779C234.5 38.254 233.775 38.5831 233.005 38.8495C232.236 39.1316 231.467 39.4293 230.698 39.7271C230.135 39.9465 229.632 40.1659 229.218 40.3696C228.804 40.5734 228.419 40.8084 228.094 41.0592C227.768 41.3099 227.487 41.6077 227.251 41.9368C227.014 42.2816 226.822 42.689 226.659 43.1435L226.097 44.7576C225.091 44.3659 224.573 44.1778 223.567 43.786V43.7703ZM221.851 47.1554C223.271 47.6882 223.966 47.9546 225.387 48.5031L224.129 52.1075C222.738 51.559 222.043 51.2926 220.638 50.7755L221.851 47.1554Z" fill="#494646"/>
</svg>
