<svg width="50" height="477" viewBox="0 0 50 477" fill="none" xmlns="http://www.w3.org/2000/svg">
<path d="M46.504 213C35.3546 213 12.5565 213.5 10.5596 215.5C8.56266 217.5 33.6905 216.667 46.504 216" stroke="#494646" stroke-linecap="round" stroke-linejoin="round"/>
<path d="M46.6153 219C35.4659 219 12.6678 219.5 10.6709 221.5C8.67399 223.5 33.8018 222.667 46.6153 222" stroke="#494646" stroke-linecap="round" stroke-linejoin="round"/>
<rect x="20.5449" y="217" width="11.9815" height="13" fill="#FFFEFB"/>
<path d="M20.5449 217V230" stroke="#494646" stroke-linecap="round" stroke-linejoin="round"/>
<path d="M23.5391 217V230" stroke="#494646" stroke-linecap="round" stroke-linejoin="round"/>
<path d="M27.5332 217V230" stroke="#494646" stroke-linecap="round" stroke-linejoin="round"/>
<path d="M32.5254 217V230" stroke="#494646" stroke-linecap="round" stroke-linejoin="round"/>
<path d="M48.5003 230.5H1.07365C0.40801 238.167 3.96917 253.4 23.5389 253C34.5224 253 46.5039 252 49 229" stroke="#494646" stroke-linecap="round" stroke-linejoin="round"/>
<path d="M16.049 252.5C15.8826 254.167 15.8506 257.2 17.0487 258H33.5227C34.0219 257.167 34.9205 254.8 34.5211 252" stroke="#494646" stroke-linecap="round" stroke-linejoin="round"/>
<path d="M25 266L25 476" stroke="#494646" stroke-linecap="round"/>
<path d="M25 205V1" stroke="#494646" stroke-linecap="round"/>
</svg>
