<svg width="40" height="40" viewBox="0 0 40 40" fill="none" xmlns="http://www.w3.org/2000/svg">
<mask id="mask0_71_68" style="mask-type:alpha" maskUnits="userSpaceOnUse" x="0" y="0" width="40" height="40">
<rect width="40" height="40" fill="#D9D9D9"/>
</mask>
<g mask="url(#mask0_71_68)">
<path d="M19.9998 36.6667C16.1109 36.6667 12.757 35.3889 9.93813 32.8333C7.11813 30.2778 5.49979 27.1111 5.08313 23.3333C5.02757 22.8889 5.1598 22.5 5.4798 22.1667C5.79868 21.8333 6.19424 21.6667 6.66646 21.6667C7.11091 21.6667 7.50702 21.8261 7.85479 22.145C8.20146 22.465 8.40257 22.8611 8.45813 23.3333C8.84702 26.1944 10.1248 28.5767 12.2915 30.48C14.4581 32.3822 17.0276 33.3333 19.9998 33.3333C23.2498 33.3333 26.0065 32.2011 28.2698 29.9367C30.5342 27.6733 31.6665 24.9167 31.6665 21.6667C31.6665 18.4167 30.5342 15.6594 28.2698 13.395C26.0065 11.1317 23.2498 10 19.9998 10H19.7498L21.2081 11.4583C21.5137 11.7639 21.6665 12.1528 21.6665 12.625C21.6665 13.0972 21.5137 13.4861 21.2081 13.7917C20.8748 14.125 20.472 14.2917 19.9998 14.2917C19.5276 14.2917 19.1387 14.125 18.8331 13.7917L14.4998 9.5C14.3331 9.33333 14.2154 9.15278 14.1465 8.95833C14.0765 8.76389 14.0415 8.55556 14.0415 8.33333C14.0415 8.11111 14.0765 7.90278 14.1465 7.70833C14.2154 7.51389 14.3331 7.33333 14.4998 7.16667L18.8331 2.83333C19.1387 2.52778 19.5276 2.375 19.9998 2.375C20.472 2.375 20.8748 2.52778 21.2081 2.83333C21.5137 3.16667 21.6665 3.56944 21.6665 4.04167C21.6665 4.51389 21.5137 4.90278 21.2081 5.20833L19.7498 6.66667H19.9998C22.0831 6.66667 24.0348 7.06278 25.8548 7.855C27.6737 8.64611 29.257 9.715 30.6048 11.0617C31.9515 12.4094 33.0209 13.9928 33.8131 15.8117C34.6042 17.6317 34.9998 19.5833 34.9998 21.6667C34.9998 23.75 34.6042 25.7011 33.8131 27.52C33.0209 29.34 31.9515 30.9233 30.6048 32.27C29.257 33.6178 27.6737 34.6878 25.8548 35.48C24.0348 36.2711 22.0831 36.6667 19.9998 36.6667Z" fill="#1C1B1F"/>
</g>
</svg>
