<svg width="304" height="75" viewBox="0 0 304 75" fill="none" xmlns="http://www.w3.org/2000/svg">
<rect width="304" height="75" rx="37.5" fill="#E06437"/>
<path d="M126.282 48.5V25.45H128.757V48.5H126.282ZM116.882 36.975C116.766 37.2583 116.591 37.5417 116.357 37.825C116.141 38.1083 115.832 38.4667 115.432 38.9C114.916 39.4667 114.324 40.0833 113.657 40.75C112.991 41.4 112.232 42.1167 111.382 42.9L109.757 41.225C111.274 39.875 112.591 38.5833 113.707 37.35C114.091 36.9167 114.407 36.5167 114.657 36.15C114.907 35.7833 115.099 35.425 115.232 35.075C115.382 34.7083 115.482 34.3417 115.532 33.975C115.599 33.5917 115.632 33.175 115.632 32.725V27.1H118.132V32.725C118.132 33.225 118.166 33.675 118.232 34.075C118.299 34.4583 118.407 34.8333 118.557 35.2C118.707 35.55 118.907 35.9083 119.157 36.275C119.424 36.625 119.749 37.0083 120.132 37.425C120.666 38.0083 121.224 38.5833 121.807 39.15C122.391 39.7 123.057 40.3083 123.807 40.975L122.207 42.675C121.341 41.875 120.607 41.1833 120.007 40.6C119.424 40 118.891 39.4417 118.407 38.925C118.057 38.5417 117.741 38.1833 117.457 37.85C117.191 37.5167 117.007 37.225 116.907 36.975H116.882ZM138.291 33.75C138.208 33.9667 138.008 34.2667 137.691 34.65C137.375 35.0167 137.016 35.3667 136.616 35.7C136.083 36.1667 135.483 36.6583 134.816 37.175C134.166 37.6917 133.491 38.1917 132.791 38.675L131.341 36.9C132.141 36.3333 132.891 35.7833 133.591 35.25C134.291 34.7 134.866 34.2083 135.316 33.775C135.616 33.475 135.875 33.1833 136.091 32.9C136.308 32.6167 136.475 32.325 136.591 32.025C136.725 31.7083 136.816 31.375 136.866 31.025C136.933 30.6583 136.966 30.25 136.966 29.8V28.925H132.116V26.8H144.041V28.925H139.466V29.7C139.466 30.1 139.483 30.4583 139.516 30.775C139.55 31.0917 139.608 31.3833 139.691 31.65C139.791 31.9167 139.925 32.175 140.091 32.425C140.258 32.6583 140.483 32.9 140.766 33.15C141.35 33.6833 141.966 34.2 142.616 34.7C143.266 35.1833 143.966 35.6667 144.716 36.15L143.316 37.95C142.666 37.5 142.058 37.0583 141.491 36.625C140.925 36.1917 140.341 35.725 139.741 35.225C139.358 34.9083 139.041 34.6333 138.791 34.4C138.558 34.15 138.4 33.9333 138.316 33.75H138.291ZM134.791 40.05H149.366V48.725H146.891V42.175H134.791V40.05ZM152.641 33.1H149.366V38.85H146.916V25.45H149.366V30.95H152.641V33.1ZM159.5 43.35C158.617 43.35 157.833 43.2167 157.15 42.95C156.467 42.6667 155.883 42.3 155.4 41.85C154.917 41.4 154.55 40.8833 154.3 40.3C154.05 39.7167 153.925 39.125 153.925 38.525V37.075C153.925 36.475 154.05 35.8833 154.3 35.3C154.55 34.7167 154.917 34.2 155.4 33.75C155.883 33.2833 156.467 32.9167 157.15 32.65C157.833 32.3667 158.617 32.225 159.5 32.225C160.367 32.225 161.142 32.3667 161.825 32.65C162.525 32.9167 163.117 33.2833 163.6 33.75C164.083 34.2 164.45 34.7167 164.7 35.3C164.95 35.8833 165.075 36.475 165.075 37.075V38.525C165.075 39.125 164.95 39.7167 164.7 40.3C164.45 40.8833 164.083 41.4 163.6 41.85C163.117 42.3 162.525 42.6667 161.825 42.95C161.142 43.2167 160.367 43.35 159.5 43.35ZM174.275 36.75H170.725V48.5H168.25V25.45H170.725V34.6H174.275V36.75ZM159.5 34.3C158.5 34.3 157.708 34.5833 157.125 35.15C156.542 35.7 156.25 36.4333 156.25 37.35V38.25C156.25 39.1667 156.542 39.9 157.125 40.45C157.708 41 158.5 41.275 159.5 41.275C160.5 41.275 161.292 41 161.875 40.45C162.458 39.9 162.75 39.1667 162.75 38.25V37.35C162.75 36.4333 162.458 35.7 161.875 35.15C161.292 34.5833 160.5 34.3 159.5 34.3ZM158.275 28.85V25.6H160.75V28.85H166.1V30.95H152.775V28.85H158.275ZM175.159 41.5C176.492 40.7167 177.617 40.025 178.534 39.425C179.467 38.8083 180.242 38.25 180.859 37.75C181.475 37.2333 181.959 36.7583 182.309 36.325C182.659 35.875 182.917 35.4333 183.084 35C183.267 34.55 183.375 34.0833 183.409 33.6C183.459 33.1167 183.484 32.575 183.484 31.975V29.7H175.609V27.575H185.934V32C185.934 32.75 185.909 33.4333 185.859 34.05C185.825 34.65 185.709 35.225 185.509 35.775C185.309 36.3083 185.009 36.8417 184.609 37.375C184.225 37.8917 183.675 38.45 182.959 39.05C182.259 39.65 181.375 40.3083 180.309 41.025C179.259 41.7417 177.975 42.5583 176.459 43.475L175.159 41.5ZM190.809 48.5V25.45H193.284V48.5H190.809Z" fill="#FFFEFB"/>
</svg>
