<svg width="757" height="10" viewBox="0 0 757 10" fill="none" xmlns="http://www.w3.org/2000/svg">
<circle cx="14.5" cy="5" r="5" fill="#E9E9E9"/>
<circle cx="40.5" cy="5" r="5" fill="#E9E9E9"/>
<circle cx="66.5" cy="5" r="5" fill="#E9E9E9"/>
<circle cx="92.5" cy="5" r="5" fill="#E9E9E9"/>
<circle cx="118.5" cy="5" r="5" fill="#E9E9E9"/>
<circle cx="144.5" cy="5" r="5" fill="#E9E9E9"/>
<circle cx="170.5" cy="5" r="5" fill="#E9E9E9"/>
<circle cx="196.5" cy="5" r="5" fill="#E9E9E9"/>
<circle cx="222.5" cy="5" r="5" fill="#E9E9E9"/>
<circle cx="248.5" cy="5" r="5" fill="#E9E9E9"/>
<circle cx="274.5" cy="5" r="5" fill="#E9E9E9"/>
<circle cx="300.5" cy="5" r="5" fill="#E9E9E9"/>
<circle cx="326.5" cy="5" r="5" fill="#E9E9E9"/>
<circle cx="352.5" cy="5" r="5" fill="#E9E9E9"/>
<circle cx="378.5" cy="5" r="5" fill="#E9E9E9"/>
<circle cx="404.5" cy="5" r="5" fill="#E9E9E9"/>
<circle cx="430.5" cy="5" r="5" fill="#E9E9E9"/>
<circle cx="456.5" cy="5" r="5" fill="#E9E9E9"/>
<circle cx="482.5" cy="5" r="5" fill="#E9E9E9"/>
<circle cx="508.5" cy="5" r="5" fill="#E9E9E9"/>
<circle cx="534.5" cy="5" r="5" fill="#E9E9E9"/>
<circle cx="560.5" cy="5" r="5" fill="#E9E9E9"/>
<circle cx="586.5" cy="5" r="5" fill="#E9E9E9"/>
<circle cx="612.5" cy="5" r="5" fill="#E9E9E9"/>
<circle cx="638.5" cy="5" r="5" fill="#E9E9E9"/>
<circle cx="664.5" cy="5" r="5" fill="#E9E9E9"/>
<circle cx="690.5" cy="5" r="5" fill="#E9E9E9"/>
<circle cx="716.5" cy="5" r="5" fill="#E9E9E9"/>
<circle cx="742.5" cy="5" r="5" fill="#E9E9E9"/>
</svg>
