<svg width="325" height="70" viewBox="0 0 325 70" fill="none" xmlns="http://www.w3.org/2000/svg">
<path d="M11.1457 39.1894C10.5695 37.752 10.4702 36.2956 10.8477 34.8203C11.2252 33.364 11.9801 31.9454 13.1126 30.6026C14.2451 29.2597 15.6955 28.0114 17.4637 26.9144C19.2319 25.7984 21.2386 24.8906 23.4638 24.1719C25.6493 23.472 27.8149 23.0559 29.9209 22.9425C32.0468 22.8101 33.974 22.9614 35.7422 23.3964C37.5105 23.8314 39.0006 24.5123 40.2324 25.4769C41.4642 26.4226 42.2986 27.652 42.7556 29.1273L43.4311 31.3591C43.8483 32.7209 43.8682 34.0827 43.4907 35.4256C43.1132 36.7874 42.4377 38.0546 41.4642 39.2272C40.4907 40.4188 39.2588 41.5158 37.7886 42.5372C36.3184 43.5585 34.6693 44.4096 32.8415 45.1094C34.0137 48.495 34.5899 50.1783 35.7621 53.545C43.4112 51.1429 47.2656 50.0459 55.0141 48.0222C55.332 49.1381 55.491 49.6866 55.8089 50.8025C39.0006 55.2094 30.6759 57.8384 14.3246 64.0043L13.212 61.3186C20.7419 58.4815 24.5367 57.1575 32.1859 54.6798C30.9938 51.3132 30.3779 49.6298 29.1858 46.2632C27.2387 46.7549 25.3711 47.0197 23.5433 47.0576C21.7154 47.0954 20.0465 46.9063 18.5167 46.528C16.9869 46.1497 15.6358 45.5066 14.5034 44.6366C13.351 43.7666 12.5166 42.6696 12 41.3456L11.1457 39.1705V39.1894ZM24.497 27.0846C22.7486 27.6331 21.1989 28.3329 19.828 29.1651C18.4571 29.9973 17.3445 30.9052 16.4902 31.8887C15.616 32.8722 15.0398 33.8936 14.7219 34.9338C14.404 35.9741 14.4438 37.0143 14.8411 38.0168L15.5762 39.9271C15.9736 40.9295 16.6292 41.7428 17.563 42.348C18.4968 42.9533 19.6094 43.3883 20.9009 43.6342C22.1923 43.88 23.6029 43.9368 25.1725 43.8044C26.7222 43.672 28.3513 43.3315 30.0202 42.802C31.6693 42.2724 33.1594 41.6293 34.4905 40.8349C35.8416 40.0405 36.9343 39.1894 37.8085 38.2437C38.6827 37.3169 39.2986 36.3334 39.6562 35.3121C40.0138 34.2907 40.0337 33.2694 39.7158 32.2291L39.0999 30.281C38.782 29.2597 38.1661 28.4085 37.2522 27.7466C36.3383 27.0846 35.2256 26.6117 33.9342 26.328C32.6229 26.0443 31.1527 25.9498 29.5235 26.0632C27.8944 26.1767 26.2056 26.5172 24.497 27.0657V27.0846Z" fill="#494646"/>
<path d="M96.1808 23.2451C96.3596 24.361 96.459 24.9284 96.6577 26.0443C78.8162 28.749 69.9551 30.5458 52.4316 35.0851C52.1137 33.9881 51.9548 33.4396 51.6567 32.3426C69.2995 27.7655 78.2401 25.9497 96.2007 23.2261L96.1808 23.2451ZM90.8363 31.5293C91.5913 35.5958 91.9688 37.6196 92.7039 41.686C82.0746 43.4639 76.7698 44.5231 66.2597 46.9819L67.4319 51.5212C78.3593 48.9678 83.8627 47.8708 94.9093 46.074L95.406 48.8733C83.0481 50.897 76.9089 52.1454 64.71 55.0959C63.6371 51.1051 63.1007 49.1002 62.0278 45.1094C72.5976 42.5371 77.9222 41.4401 88.631 39.5488C88.2734 37.7141 88.0946 36.7873 87.7369 34.9527C76.8096 36.8819 71.3657 38.0167 60.5576 40.6458L59.8225 37.9033C72.1406 34.9149 78.3394 33.6477 90.7966 31.5482L90.8363 31.5293ZM60.2397 22.5263C71.4651 19.9162 77.1275 18.7814 88.4721 16.89L89.0085 19.7838C76.2135 21.9211 69.8359 23.2072 57.1999 26.2713C55.8886 21.3537 55.233 18.8949 53.9217 13.9962C55.4913 13.6179 56.2661 13.4288 57.8357 13.0694C58.8092 16.8522 59.286 18.7436 60.2596 22.5263H60.2397Z" fill="#494646"/>
<path d="M142.632 23.1883L142.771 26.0632C124.989 26.8765 116.088 27.7277 98.4656 30.3567C98.2868 29.2218 98.1874 28.6544 97.9888 27.5007C115.751 24.8528 124.711 23.9827 142.632 23.1883ZM110.645 42.9722C121.612 41.6104 127.115 41.0997 138.122 40.4566L138.301 43.3883C125.923 44.107 119.744 44.6933 107.446 46.3388C106.711 41.3078 106.333 38.7733 105.598 33.7422C107.068 33.5531 107.823 33.4585 109.294 33.2694C109.83 37.1467 110.088 39.0949 110.625 42.9722H110.645ZM119.844 20.8241C117.658 21.0322 115.612 21.0511 113.684 20.8998C111.757 20.7295 110.068 20.3891 108.578 19.8784C107.108 19.3678 105.896 18.6679 104.962 17.779C104.029 16.89 103.472 15.8687 103.294 14.6771L103.035 12.8992C102.856 11.7077 103.115 10.5728 103.77 9.49475C104.446 8.39775 105.439 7.43314 106.77 6.56311C108.102 5.69307 109.731 4.97435 111.638 4.3691C113.545 3.78278 115.651 3.36667 117.936 3.13971C120.221 2.91274 122.367 2.91274 124.354 3.13971C126.34 3.34776 128.089 3.76386 129.579 4.35019C131.069 4.93652 132.261 5.71198 133.135 6.63876C134.029 7.58445 134.506 8.64362 134.586 9.83519L134.705 11.632C134.784 12.8236 134.466 13.9395 133.731 14.9798C132.996 16.02 131.963 16.9279 130.632 17.7223C129.301 18.5166 127.711 19.1786 125.864 19.7082C124.016 20.2378 122.009 20.6161 119.824 20.8241H119.844ZM118.254 5.95786C116.625 6.10917 115.075 6.4118 113.645 6.8279C112.214 7.244 110.963 7.75468 109.929 8.35992C108.876 8.96516 108.082 9.62714 107.506 10.3648C106.929 11.1024 106.711 11.859 106.81 12.6344L106.989 13.9395C107.088 14.715 107.525 15.3959 108.261 15.9822C108.996 16.5685 109.949 17.0224 111.082 17.3629C112.234 17.7033 113.526 17.9303 114.976 18.0438C116.426 18.1573 117.956 18.1384 119.545 17.987C121.135 17.8357 122.625 17.5709 124.016 17.1738C125.407 16.7766 126.638 16.3037 127.691 15.7552C128.744 15.2067 129.559 14.5636 130.175 13.8638C130.771 13.164 131.049 12.4075 130.989 11.632L130.89 10.308C130.83 9.53257 130.453 8.81385 129.738 8.20861C129.023 7.60337 128.089 7.09269 126.936 6.71442C125.784 6.33614 124.453 6.07135 122.963 5.92004C121.473 5.78764 119.903 5.78764 118.274 5.93895L118.254 5.95786Z" fill="#494646"/>
<path d="M190.474 25.9119C187.991 25.9687 185.527 26.0254 183.103 26.0443C180.679 26.0632 177.957 26.0821 174.918 26.0821C174.719 32.4561 174.62 35.6336 174.421 42.0076C172.951 41.9697 172.236 41.9508 170.765 41.913L171.103 26.0821C169.235 26.0821 167.229 26.0821 165.103 26.0821C162.977 26.0821 160.633 26.0821 158.09 26.12L158.05 23.1883C161.884 23.1505 165.401 23.1316 168.58 23.1316C171.759 23.1316 174.659 23.1316 177.282 23.1316C179.905 23.1316 182.289 23.1316 184.434 23.1316C186.6 23.1316 188.567 23.0748 190.355 22.9992C190.395 24.1529 190.435 24.7393 190.474 25.893V25.9119ZM186.501 2.70467C186.143 8.98405 185.964 12.1048 185.607 18.3842C175.951 17.8735 171.123 17.7601 161.467 17.779C161.467 11.4996 161.447 8.3599 161.427 2.08051C171.461 2.0616 176.487 2.17508 186.521 2.70467H186.501ZM182.487 5.50391C175.593 5.20129 172.156 5.12564 165.262 5.0689C165.242 8.96514 165.222 10.9133 165.202 14.8095C171.938 14.8473 175.295 14.9419 182.011 15.2256C182.189 11.3294 182.289 9.38124 182.487 5.50391ZM193.455 31.4726C194.428 19.3677 194.905 13.3153 195.859 1.21048C197.448 1.32396 198.263 1.3807 199.852 1.5131C198.322 18.7436 197.547 27.3494 196.017 44.5798C194.587 44.4664 193.872 44.4096 192.441 44.315C192.759 40.381 192.918 38.395 193.216 34.461C188.646 34.1394 186.382 34.007 181.812 33.799C181.871 32.6074 181.891 32.0211 181.951 30.8295C186.56 31.0376 188.845 31.17 193.455 31.5104V31.4726Z" fill="#494646"/>
<path d="M242.647 32.3993C241.177 32.1156 240.442 31.9832 238.992 31.7374C239.886 27.1981 240.323 24.9284 241.217 20.3891C236.448 19.538 234.064 19.1408 229.276 18.422C228.72 21.732 228.462 23.3775 227.905 26.6874C219.163 25.3634 214.792 24.8338 206.011 23.9449C206.865 16.247 207.282 12.4075 208.117 4.70953C217.316 5.6174 221.925 6.20372 231.064 7.58443C230.528 10.762 230.27 12.3507 229.753 15.5282C234.561 16.247 236.985 16.6441 241.773 17.5142C242.588 13.391 242.985 11.3294 243.8 7.18724C245.349 7.47095 246.144 7.60335 247.694 7.90597C245.667 17.7033 244.654 22.602 242.627 32.3993H242.647ZM226.892 9.94866C220.753 9.07862 217.673 8.68143 211.514 8.01945C210.878 13.3721 210.561 16.0578 209.925 21.4104C215.885 22.0535 218.865 22.4318 224.806 23.264C225.64 17.9303 226.057 15.2634 226.892 9.92975V9.94866ZM211.415 30.2999C223.753 31.6995 229.892 32.6263 242.131 34.9149C240.839 41.2132 240.184 44.3529 238.872 50.6512C237.482 50.3864 236.786 50.254 235.376 50.0081C236.389 44.8636 236.905 42.2913 237.919 37.1278C227.21 35.2175 221.846 34.442 211.057 33.2126C211.196 32.04 211.276 31.4726 211.415 30.2999Z" fill="#494646"/>
<path d="M281.39 22.6966C276.92 21.4861 274.694 20.9187 270.204 19.8217C269.489 22.4885 269.131 23.8314 268.396 26.5171C268.158 27.4061 267.979 28.1816 267.88 28.8246C267.78 29.4866 267.761 30.1297 267.8 30.7538C267.86 31.378 267.999 32.04 268.257 32.702C268.496 33.3639 268.873 34.1394 269.39 35.0094C270.105 36.2956 271.039 37.7898 272.151 39.492C273.264 41.1943 274.555 43.0478 276.006 45.0905C274.814 45.6958 274.218 45.9795 273.026 46.6036C271.694 44.6744 270.562 42.9722 269.608 41.4969C268.655 40.0027 267.8 38.6409 267.025 37.4115C266.469 36.5226 265.953 35.6714 265.496 34.896C265.039 34.1205 264.78 33.5342 264.721 33.1937H264.661C264.542 33.3829 264.304 33.6098 263.946 33.8935C263.588 34.1772 263.191 34.4609 262.714 34.7636C262.237 35.0851 261.76 35.3877 261.224 35.7093C260.707 36.0308 260.211 36.3334 259.734 36.5982C259.297 36.863 258.721 37.1845 258.005 37.5817C257.29 37.9789 256.495 38.4328 255.641 38.9057C254.787 39.3785 253.873 39.8703 252.899 40.3999C251.926 40.9106 251.012 41.3834 250.118 41.8184C249.363 40.7403 248.985 40.2107 248.21 39.1516C250.138 38.187 251.985 37.2413 253.714 36.2956C255.442 35.3499 257.072 34.4042 258.601 33.4963C259.635 32.8533 260.489 32.2669 261.144 31.7184C261.8 31.1699 262.356 30.6025 262.774 30.0351C263.211 29.4488 263.549 28.8435 263.807 28.1816C264.065 27.5385 264.323 26.763 264.542 25.8741L266.33 18.9327C261.78 17.8546 259.495 17.3629 254.906 16.4172C255.164 15.2634 255.303 14.696 255.562 13.5612C266.27 15.793 271.615 17.0602 282.205 19.9351L281.37 22.7533L281.39 22.6966ZM281.668 60.6944C280.277 60.2783 279.582 60.0702 278.191 59.6731C283.496 43.1424 286.158 34.8771 291.463 18.3464C293.013 18.8003 293.788 19.0273 295.337 19.4812C289.874 35.9741 287.132 44.2016 281.668 60.6944Z" fill="#494646"/>
<path d="M300.244 52.8263L301.039 50.7268C301.317 49.9892 301.635 49.3461 302.013 48.8166C302.39 48.287 302.867 47.8141 303.463 47.3791C304.059 46.9441 304.794 46.5469 305.648 46.1497C306.503 45.7525 307.576 45.3364 308.847 44.8825C309.662 44.5988 310.437 44.3151 311.192 44.0503C311.947 43.7855 312.662 43.4639 313.318 43.1235C313.993 42.783 314.589 42.348 315.106 41.8563C315.622 41.3456 316.039 40.7214 316.357 39.9649L316.635 39.2651C317.271 37.6763 317.152 36.1821 316.238 34.8014C315.324 33.4018 313.755 32.3237 311.529 31.5482C309.721 30.9241 307.973 30.6593 306.264 30.7728C304.556 30.8863 302.966 31.2835 301.496 31.9833C300.84 30.8484 300.503 30.281 299.847 29.1651C300.483 28.8247 301.238 28.522 302.132 28.2572C303.026 27.9735 304.019 27.7844 305.112 27.7087C306.205 27.6142 307.377 27.6331 308.629 27.7844C309.88 27.9168 311.192 28.2194 312.543 28.6923C316.099 29.9217 318.563 31.6617 319.914 33.799C321.265 35.9552 321.424 38.2437 320.41 40.6458L320.092 41.3834C319.636 42.4615 319.04 43.3505 318.304 44.0124C317.569 44.6933 316.735 45.2418 315.841 45.7147C314.927 46.1686 313.953 46.5658 312.92 46.8873C311.887 47.2278 310.854 47.5872 309.821 47.9465C309.066 48.2113 308.39 48.4761 307.834 48.722C307.278 48.9679 306.761 49.2516 306.324 49.5542C305.887 49.8568 305.509 50.2162 305.192 50.6134C304.874 51.0295 304.615 51.5212 304.397 52.0697L303.642 54.0178C302.291 53.545 301.595 53.318 300.244 52.8452V52.8263ZM297.94 56.9117C299.847 57.5547 300.781 57.8763 302.688 58.5383L300.999 62.8884C299.132 62.2264 298.198 61.9049 296.311 61.2808L297.94 56.9117Z" fill="#494646"/>
</svg>
