<svg width="464" height="400" viewBox="0 0 464 400" fill="none" xmlns="http://www.w3.org/2000/svg">
<g clip-path="url(#clip0_383_972)">
<g filter="url(#filter0_d_383_972)">
<rect width="464" height="400" rx="24" fill="#F4F4C7"/>
</g>
<rect x="132" y="297" width="200" height="30" rx="15" fill="#FFFEFB" fill-opacity="0.8"/>
<path d="M159.885 295.76H142.525V278.76H159.885V295.76ZM154.885 282.96H147.525V291.56H154.885V282.96ZM170.645 284.96H175.525V289.36H170.645V300.64H165.605V276.56H170.645V284.96ZM158.925 307.6C158.792 307.973 158.378 308.387 157.685 308.84C157.018 309.293 156.138 309.8 155.045 310.36C153.765 311.027 152.418 311.68 151.005 312.32C149.592 312.987 148.205 313.6 146.845 314.16L144.845 310C146.338 309.387 147.858 308.733 149.405 308.04C150.952 307.347 152.312 306.693 153.485 306.08C154.418 305.573 155.112 304.987 155.565 304.32C156.018 303.653 156.245 302.813 156.245 301.8V298.6H161.365V301.8C161.365 302.813 161.565 303.653 161.965 304.32C162.392 304.96 163.098 305.547 164.085 306.08C164.645 306.373 165.285 306.693 166.005 307.04C166.725 307.387 167.458 307.733 168.205 308.08C168.978 308.427 169.752 308.76 170.525 309.08C171.325 309.427 172.072 309.733 172.765 310L170.805 314.04C169.338 313.4 167.925 312.76 166.565 312.12C165.232 311.507 163.925 310.88 162.645 310.24C161.605 309.707 160.765 309.213 160.125 308.76C159.485 308.333 159.098 307.947 158.965 307.6H158.925ZM206.459 297.48V313.8H182.779V297.48H187.779V301.64H201.459V297.48H206.459ZM206.459 295.8H201.419V276.56H206.459V295.8ZM201.459 309.64V305.8H187.779V309.64H201.459ZM177.779 278.6H197.059V282.88H190.099V284.6C190.099 285.053 190.139 285.467 190.219 285.84C190.299 286.213 190.432 286.573 190.619 286.92C190.832 287.24 191.126 287.573 191.499 287.92C191.872 288.24 192.352 288.6 192.939 289C193.712 289.533 194.579 290.107 195.539 290.72C196.526 291.333 197.486 291.907 198.419 292.44L195.859 296.08C195.006 295.547 194.152 295.013 193.299 294.48C192.446 293.947 191.606 293.413 190.779 292.88C189.099 291.787 188.139 291.013 187.899 290.56H187.859C187.672 291.013 186.686 291.893 184.899 293.2C184.072 293.813 183.192 294.44 182.259 295.08C181.326 295.72 180.232 296.44 178.979 297.24L176.219 293.44C178.779 291.84 180.979 290.32 182.819 288.88C183.672 288.187 184.259 287.533 184.579 286.92C184.899 286.307 185.059 285.533 185.059 284.6V282.88H177.779V278.6ZM251.273 313.76H246.193V276.56H251.273V313.76ZM227.553 300.64H231.433C233.273 300.64 235.18 300.587 237.153 300.48C239.126 300.347 241.046 300.16 242.913 299.92L243.473 304.16C241.58 304.453 239.513 304.653 237.273 304.76C235.033 304.867 232.686 304.92 230.233 304.92H222.553V289.8H234.553V283.72H222.553V279.44H239.553V293.92H227.553V300.64ZM288.447 304.8V309.08H254.367V304.8H288.447ZM271.527 291.32C271.314 291.773 270.86 292.267 270.167 292.8C269.5 293.307 268.66 293.907 267.647 294.6C266.554 295.32 265.287 296.12 263.847 297C262.407 297.853 260.727 298.827 258.807 299.92L256.327 295.92C257.794 295.093 259.274 294.24 260.767 293.36C262.26 292.453 263.594 291.6 264.767 290.8C265.567 290.267 266.22 289.733 266.727 289.2C267.26 288.667 267.674 288.107 267.967 287.52C268.287 286.907 268.514 286.253 268.647 285.56C268.78 284.867 268.847 284.08 268.847 283.2V279.08H273.967V283.2C273.967 284.08 274.034 284.867 274.167 285.56C274.3 286.253 274.514 286.907 274.807 287.52C275.127 288.107 275.54 288.667 276.047 289.2C276.58 289.733 277.247 290.267 278.047 290.8C279.22 291.6 280.554 292.453 282.047 293.36C283.54 294.24 285.02 295.093 286.487 295.92L284.047 299.84C282.127 298.747 280.447 297.773 279.007 296.92C277.567 296.04 276.3 295.24 275.207 294.52C274.194 293.827 273.38 293.24 272.767 292.76C272.18 292.253 271.78 291.773 271.567 291.32H271.527ZM322.861 304.8V309.08H288.781V304.8H322.861ZM318.501 299.72H293.181V279.32H318.101V283.56H298.181V287.4H317.781V291.64H298.181V295.48H318.501V299.72Z" fill="#9BC558"/>
<path d="M183.775 245.16V246.36H176.075V248.5H181.275V252.72H170.855V254.62H181.815V255.8H169.475V251.56H179.895V249.68H169.375V248.5H174.675V246.36H166.975V245.16H183.775ZM175.355 241.4C175.249 241.613 175.009 241.827 174.635 242.04C174.262 242.24 173.762 242.467 173.135 242.72C172.575 242.947 171.942 243.18 171.235 243.42C170.529 243.66 169.749 243.913 168.895 244.18L168.375 243.06C169.255 242.793 170.049 242.54 170.755 242.3C171.475 242.047 172.089 241.82 172.595 241.62C173.009 241.46 173.349 241.307 173.615 241.16C173.882 241 174.089 240.833 174.235 240.66C174.395 240.487 174.502 240.3 174.555 240.1C174.622 239.9 174.655 239.673 174.655 239.42V239.18H169.175V237.98H181.575V239.18H176.075V239.42C176.075 239.673 176.102 239.9 176.155 240.1C176.222 240.3 176.329 240.487 176.475 240.66C176.635 240.833 176.842 241 177.095 241.16C177.362 241.307 177.702 241.46 178.115 241.62C178.369 241.727 178.655 241.84 178.975 241.96C179.309 242.067 179.655 242.187 180.015 242.32C180.389 242.44 180.769 242.56 181.155 242.68C181.555 242.8 181.949 242.92 182.335 243.04L181.855 244.16C181.095 243.933 180.355 243.7 179.635 243.46C178.915 243.207 178.235 242.953 177.595 242.7C176.982 242.46 176.489 242.24 176.115 242.04C175.742 241.827 175.495 241.613 175.375 241.4H175.355ZM199.322 255.72H197.922V244.52H193.582V243.24H197.922V237.44H199.322V255.72ZM187.482 246.88C187.802 246.52 188.056 246.193 188.242 245.9C188.429 245.607 188.576 245.32 188.682 245.04C188.789 244.747 188.856 244.447 188.882 244.14C188.922 243.833 188.942 243.48 188.942 243.08V238.78H190.402V242.98C190.402 243.367 190.416 243.707 190.442 244C190.469 244.28 190.522 244.553 190.602 244.82C190.682 245.073 190.802 245.327 190.962 245.58C191.122 245.833 191.336 246.113 191.602 246.42C192.002 246.887 192.489 247.413 193.062 248C193.649 248.587 194.322 249.22 195.082 249.9L194.162 250.86C193.522 250.26 192.929 249.693 192.382 249.16C191.849 248.613 191.382 248.127 190.982 247.7C190.676 247.38 190.396 247.073 190.142 246.78C189.902 246.487 189.756 246.273 189.702 246.14H189.682C189.669 246.207 189.616 246.313 189.522 246.46C189.429 246.593 189.309 246.747 189.162 246.92C189.029 247.093 188.882 247.28 188.722 247.48C188.562 247.667 188.409 247.84 188.262 248C188.089 248.187 187.876 248.407 187.622 248.66C187.382 248.913 187.122 249.18 186.842 249.46C186.562 249.74 186.269 250.027 185.962 250.32C185.656 250.613 185.356 250.887 185.062 251.14L184.122 250.16C184.789 249.573 185.396 249.013 185.942 248.48C186.502 247.947 187.016 247.413 187.482 246.88ZM218.189 246.9V248.12H201.389V246.9H218.189ZM205.289 254.26H216.069V255.5H203.869V250.04H205.289V254.26ZM205.369 243.12H215.809V244.36H203.949V238.14H205.369V243.12ZM226.856 249.1H238.616V255.86H237.216V250.34H226.856V249.1ZM238.616 248.02H237.216V237.44H238.616V248.02ZM229.296 243.4C229.27 243.573 229.11 243.813 228.816 244.12C228.536 244.413 228.176 244.773 227.736 245.2C227.39 245.533 226.936 245.933 226.376 246.4C225.816 246.867 225.263 247.32 224.716 247.76L223.836 246.74C224.383 246.34 224.95 245.893 225.536 245.4C226.136 244.907 226.663 244.433 227.116 243.98C227.436 243.66 227.683 243.38 227.856 243.14C228.043 242.9 228.183 242.667 228.276 242.44C228.383 242.2 228.45 241.947 228.476 241.68C228.503 241.4 228.516 241.073 228.516 240.7V238.2H229.956V240.66C229.956 241.033 229.97 241.353 229.996 241.62C230.023 241.873 230.083 242.113 230.176 242.34C230.283 242.567 230.43 242.8 230.616 243.04C230.816 243.267 231.083 243.527 231.416 243.82C231.91 244.247 232.416 244.667 232.936 245.08C233.456 245.493 233.936 245.86 234.376 246.18L233.536 247.16C233.003 246.76 232.51 246.38 232.056 246.02C231.616 245.66 231.223 245.333 230.876 245.04C229.93 244.24 229.41 243.693 229.316 243.4H229.296ZM249.844 248.6C250.59 248.6 251.29 248.68 251.944 248.84C252.61 249 253.19 249.227 253.684 249.52C254.177 249.813 254.564 250.173 254.844 250.6C255.137 251.027 255.284 251.5 255.284 252.02V252.78C255.284 253.3 255.137 253.773 254.844 254.2C254.564 254.627 254.177 254.987 253.684 255.28C253.19 255.573 252.61 255.8 251.944 255.96C251.29 256.12 250.59 256.2 249.844 256.2C249.097 256.2 248.39 256.12 247.724 255.96C247.07 255.8 246.497 255.573 246.004 255.28C245.51 254.987 245.117 254.627 244.824 254.2C244.544 253.773 244.404 253.3 244.404 252.78V252.02C244.404 251.487 244.544 251.007 244.824 250.58C245.117 250.153 245.51 249.793 246.004 249.5C246.497 249.207 247.07 248.987 247.724 248.84C248.39 248.68 249.097 248.6 249.844 248.6ZM249.844 255C250.377 255 250.89 254.947 251.384 254.84C251.877 254.733 252.31 254.58 252.684 254.38C253.057 254.193 253.357 253.96 253.584 253.68C253.81 253.4 253.924 253.08 253.924 252.72V252.08C253.924 251.72 253.81 251.4 253.584 251.12C253.357 250.84 253.057 250.607 252.684 250.42C252.31 250.22 251.877 250.067 251.384 249.96C250.89 249.853 250.377 249.8 249.844 249.8C249.31 249.8 248.797 249.853 248.304 249.96C247.81 250.067 247.377 250.22 247.004 250.42C246.63 250.607 246.33 250.84 246.104 251.12C245.877 251.4 245.764 251.72 245.764 252.08V252.72C245.764 253.08 245.877 253.4 246.104 253.68C246.33 253.96 246.63 254.193 247.004 254.38C247.377 254.58 247.81 254.733 248.304 254.84C248.797 254.947 249.31 255 249.844 255ZM241.784 238.6H250.164V239.84H243.204V245.46C244.204 245.46 245.077 245.46 245.824 245.46C246.584 245.447 247.284 245.427 247.924 245.4C248.577 245.36 249.204 245.313 249.804 245.26C250.417 245.207 251.084 245.14 251.804 245.06L251.964 246.3C251.47 246.353 251.004 246.407 250.564 246.46C250.124 246.5 249.684 246.54 249.244 246.58C248.804 246.607 248.337 246.633 247.844 246.66C247.364 246.673 246.83 246.687 246.244 246.7C245.657 246.7 244.997 246.707 244.264 246.72C243.544 246.72 242.717 246.72 241.784 246.72V238.6ZM255.184 241.86H257.984V243.1H255.184V248.2H253.784V237.44H255.184V241.86ZM277.311 239.02V247.38H272.111V251.92H279.811V253.14H263.011V251.92H270.711V247.38H265.511V239.02H277.311ZM266.911 246.14H275.911V240.26H266.911V246.14ZM288.618 244.86C287.871 244.86 287.151 244.793 286.458 244.66C285.764 244.513 285.151 244.307 284.618 244.04C284.084 243.773 283.658 243.44 283.338 243.04C283.031 242.64 282.878 242.18 282.878 241.66V240.98C282.878 240.46 283.031 240 283.338 239.6C283.658 239.2 284.084 238.867 284.618 238.6C285.151 238.333 285.764 238.133 286.458 238C287.151 237.853 287.871 237.78 288.618 237.78C289.364 237.78 290.084 237.853 290.778 238C291.471 238.133 292.078 238.333 292.598 238.6C293.131 238.867 293.558 239.2 293.878 239.6C294.198 240 294.358 240.46 294.358 240.98V241.66C294.358 242.18 294.198 242.64 293.878 243.04C293.558 243.44 293.131 243.773 292.598 244.04C292.078 244.307 291.471 244.513 290.778 244.66C290.084 244.793 289.364 244.86 288.618 244.86ZM288.618 238.98C288.071 238.98 287.538 239.033 287.018 239.14C286.498 239.233 286.031 239.373 285.618 239.56C285.204 239.733 284.871 239.953 284.618 240.22C284.364 240.473 284.238 240.76 284.238 241.08V241.56C284.238 241.88 284.364 242.173 284.618 242.44C284.871 242.693 285.204 242.913 285.618 243.1C286.031 243.273 286.498 243.413 287.018 243.52C287.538 243.613 288.071 243.66 288.618 243.66C289.151 243.66 289.678 243.613 290.198 243.52C290.731 243.413 291.204 243.273 291.618 243.1C292.031 242.913 292.364 242.693 292.618 242.44C292.871 242.173 292.998 241.88 292.998 241.56V241.08C292.998 240.76 292.871 240.473 292.618 240.22C292.364 239.953 292.031 239.733 291.618 239.56C291.204 239.373 290.731 239.233 290.198 239.14C289.678 239.033 289.151 238.98 288.618 238.98ZM297.018 246.34V247.56H280.218V246.34H297.018ZM282.678 249.5H294.558V255.68H282.678V249.5ZM284.038 254.42H293.198V250.76H284.038V254.42Z" fill="#9BC558"/>
<path d="M195.415 121.036H276.824C277.963 131.999 274.026 152.338 252.681 159.922C253.792 164.052 252.575 169.089 251.062 170.623C249.516 172.189 225.815 172.711 223.238 170.623C220.662 168.535 221.521 163.854 221.693 161.253C199.853 155.152 194.844 133.187 195.415 121.036Z" fill="#DBDE50"/>
<path d="M207.104 88.9272C210.796 84.0538 250.356 83.8508 269.674 84.3584L269.161 89.4347C246.936 91.2961 203.411 93.8005 207.104 88.9272Z" fill="#DBDE50"/>
<path d="M208.151 99.7704C211.843 94.8971 251.402 94.694 270.72 95.2017L270.208 100.278C247.983 102.139 204.458 104.644 208.151 99.7704Z" fill="#DBDE50"/>
<path d="M266.368 82C246.921 82 207.157 82.9639 203.674 86.8193C200.191 90.6747 244.019 89.0683 266.368 87.7831" stroke="#494646" stroke-width="2" stroke-linecap="round" stroke-linejoin="round"/>
<path d="M266.562 93.5664C247.115 93.5664 207.351 94.5303 203.868 98.3857C200.385 102.241 244.212 100.635 266.562 99.3495" stroke="#494646" stroke-width="2" stroke-linecap="round" stroke-linejoin="round"/>
<rect x="221.09" y="89.7104" width="20.8979" height="25.0602" fill="#FFFEFB"/>
<path d="M221.09 89.7104V114.771" stroke="#494646" stroke-width="2" stroke-linecap="round" stroke-linejoin="round"/>
<path d="M226.314 89.7104V114.771" stroke="#494646" stroke-width="2" stroke-linecap="round" stroke-linejoin="round"/>
<path d="M233.279 89.7104V114.771" stroke="#494646" stroke-width="2" stroke-linecap="round" stroke-linejoin="round"/>
<path d="M241.986 89.7104V114.771" stroke="#494646" stroke-width="2" stroke-linecap="round" stroke-linejoin="round"/>
<path d="M269.849 115.735H187.128C185.967 130.514 192.179 159.88 226.312 159.109C245.469 159.109 266.367 157.181 270.721 112.844" stroke="#494646" stroke-width="2" stroke-linecap="round" stroke-linejoin="round"/>
<path d="M213.248 158.145C212.958 161.357 212.902 167.205 214.992 168.747H243.726C244.596 167.141 246.164 162.578 245.467 157.181" stroke="#494646" stroke-width="2" stroke-linecap="round" stroke-linejoin="round"/>
<g filter="url(#filter1_d_383_972)">
<mask id="mask0_383_972" style="mask-type:alpha" maskUnits="userSpaceOnUse" x="392" y="32" width="40" height="40">
<rect x="392" y="32" width="40" height="40" fill="#D9D9D9"/>
</mask>
<g mask="url(#mask0_383_972)">
<path d="M412.001 60.3333C412.473 60.3333 412.869 60.1733 413.189 59.8533C413.508 59.5344 413.667 59.1388 413.667 58.6666V51.9583C413.667 51.486 413.508 51.0971 413.189 50.7916C412.869 50.486 412.473 50.3333 412.001 50.3333C411.528 50.3333 411.133 50.4927 410.814 50.8116C410.494 51.1316 410.334 51.5277 410.334 51.9999V58.7083C410.334 59.1805 410.494 59.5694 410.814 59.8749C411.133 60.1805 411.528 60.3333 412.001 60.3333ZM412.001 46.9999C412.473 46.9999 412.869 46.8399 413.189 46.5199C413.508 46.201 413.667 45.8055 413.667 45.3333C413.667 44.861 413.508 44.4649 413.189 44.1449C412.869 43.826 412.473 43.6666 412.001 43.6666C411.528 43.6666 411.133 43.826 410.814 44.1449C410.494 44.4649 410.334 44.861 410.334 45.3333C410.334 45.8055 410.494 46.201 410.814 46.5199C411.133 46.8399 411.528 46.9999 412.001 46.9999ZM412.001 68.6666C409.695 68.6666 407.528 68.2288 405.501 67.3533C403.473 66.4788 401.709 65.2916 400.209 63.7916C398.709 62.2916 397.522 60.5277 396.647 58.4999C395.772 56.4721 395.334 54.3055 395.334 51.9999C395.334 49.6944 395.772 47.5277 396.647 45.4999C397.522 43.4721 398.709 41.7083 400.209 40.2083C401.709 38.7083 403.473 37.5205 405.501 36.6449C407.528 35.7705 409.695 35.3333 412.001 35.3333C414.306 35.3333 416.473 35.7705 418.501 36.6449C420.528 37.5205 422.292 38.7083 423.792 40.2083C425.292 41.7083 426.48 43.4721 427.354 45.4999C428.23 47.5277 428.667 49.6944 428.667 51.9999C428.667 54.3055 428.23 56.4721 427.354 58.4999C426.48 60.5277 425.292 62.2916 423.792 63.7916C422.292 65.2916 420.528 66.4788 418.501 67.3533C416.473 68.2288 414.306 68.6666 412.001 68.6666Z" fill="#666666"/>
<path d="M412.001 60.3333C412.473 60.3333 412.869 60.1733 413.189 59.8533C413.508 59.5344 413.667 59.1388 413.667 58.6666V51.9583C413.667 51.486 413.508 51.0971 413.189 50.7916C412.869 50.486 412.473 50.3333 412.001 50.3333C411.528 50.3333 411.133 50.4927 410.814 50.8116C410.494 51.1316 410.334 51.5277 410.334 51.9999V58.7083C410.334 59.1805 410.494 59.5694 410.814 59.8749C411.133 60.1805 411.528 60.3333 412.001 60.3333Z" fill="#FFFEFB"/>
<path d="M412.001 46.9999C412.473 46.9999 412.869 46.8399 413.189 46.5199C413.508 46.201 413.667 45.8055 413.667 45.3333C413.667 44.861 413.508 44.4649 413.189 44.1449C412.869 43.826 412.473 43.6666 412.001 43.6666C411.528 43.6666 411.133 43.826 410.814 44.1449C410.494 44.4649 410.334 44.861 410.334 45.3333C410.334 45.8055 410.494 46.201 410.814 46.5199C411.133 46.8399 411.528 46.9999 412.001 46.9999Z" fill="#FFFEFB"/>
</g>
</g>
<path d="M100.081 67.358C98.2176 73.7179 100.346 79.9403 104.836 81.256C109.326 82.5717 114.476 78.4825 116.34 72.1226" stroke="#DBDE50" stroke-opacity="0.6" stroke-width="5" stroke-linecap="round" stroke-linejoin="round"/>
<path d="M84.2181 62.7096C82.3543 69.0695 84.483 75.2918 88.9726 76.6075C93.4623 77.9232 98.6128 73.8341 100.477 67.4741" stroke="#DBDE50" stroke-opacity="0.6" stroke-width="5" stroke-linecap="round" stroke-linejoin="round"/>
<path d="M67.9622 57.9452C66.0984 64.3051 68.3158 70.5535 72.915 71.9012C77.5141 73.249 82.7534 69.1859 84.6172 62.8259" stroke="#DBDE50" stroke-opacity="0.6" stroke-width="5" stroke-linecap="round" stroke-linejoin="round"/>
<path d="M52.0989 53.2967C50.2351 59.6567 52.4525 65.905 57.0517 67.2528C61.6509 68.6006 66.8901 64.5374 68.7539 58.1775" stroke="#DBDE50" stroke-opacity="0.6" stroke-width="5" stroke-linecap="round" stroke-linejoin="round"/>
<path d="M36.2357 48.6483C34.3719 55.0082 36.5006 61.2306 40.9902 62.5463C45.4799 63.862 50.6303 59.7728 52.4941 53.4128" stroke="#DBDE50" stroke-opacity="0.6" stroke-width="5" stroke-linecap="round" stroke-linejoin="round"/>
<path d="M20.3763 44.0001C18.5125 50.36 20.6412 56.5824 25.1308 57.8981C29.6205 59.2138 34.771 55.1246 36.6348 48.7646" stroke="#DBDE50" stroke-opacity="0.6" stroke-width="5" stroke-linecap="round" stroke-linejoin="round"/>
<path d="M398.258 203.358C400.122 209.718 397.994 215.94 393.504 217.256C389.014 218.572 383.864 214.483 382 208.123" stroke="#DBDE50" stroke-opacity="0.6" stroke-width="5" stroke-linecap="round" stroke-linejoin="round"/>
<path d="M414.122 198.71C415.986 205.07 413.857 211.292 409.367 212.608C404.878 213.923 399.727 209.834 397.863 203.474" stroke="#DBDE50" stroke-opacity="0.6" stroke-width="5" stroke-linecap="round" stroke-linejoin="round"/>
<path d="M430.378 193.945C432.241 200.305 430.024 206.554 425.425 207.901C420.826 209.249 415.586 205.186 413.723 198.826" stroke="#DBDE50" stroke-opacity="0.6" stroke-width="5" stroke-linecap="round" stroke-linejoin="round"/>
<path d="M446.241 189.296C448.105 195.656 445.887 201.905 441.288 203.253C436.689 204.6 431.45 200.537 429.586 194.177" stroke="#DBDE50" stroke-opacity="0.6" stroke-width="5" stroke-linecap="round" stroke-linejoin="round"/>
<path d="M462.104 184.648C463.968 191.008 461.839 197.23 457.35 198.546C452.86 199.862 447.709 195.773 445.846 189.413" stroke="#DBDE50" stroke-opacity="0.6" stroke-width="5" stroke-linecap="round" stroke-linejoin="round"/>
<path d="M477.964 180C479.827 186.36 477.699 192.582 473.209 193.898C468.719 195.214 463.569 191.125 461.705 184.765" stroke="#DBDE50" stroke-opacity="0.6" stroke-width="5" stroke-linecap="round" stroke-linejoin="round"/>
<rect x="60" y="185.939" width="30" height="35" transform="rotate(-74.7177 60 185.939)" fill="#FFFEFB"/>
<rect x="345.447" y="103.262" width="18" height="24" transform="rotate(-101.039 345.447 103.262)" fill="#FFFEFB"/>
</g>
<defs>
<filter id="filter0_d_383_972" x="-16" y="-12" width="496" height="432" filterUnits="userSpaceOnUse" color-interpolation-filters="sRGB">
<feFlood flood-opacity="0" result="BackgroundImageFix"/>
<feColorMatrix in="SourceAlpha" type="matrix" values="0 0 0 0 0 0 0 0 0 0 0 0 0 0 0 0 0 0 127 0" result="hardAlpha"/>
<feOffset dy="4"/>
<feGaussianBlur stdDeviation="8"/>
<feComposite in2="hardAlpha" operator="out"/>
<feColorMatrix type="matrix" values="0 0 0 0 0.286275 0 0 0 0 0.27451 0 0 0 0 0.27451 0 0 0 0.2 0"/>
<feBlend mode="normal" in2="BackgroundImageFix" result="effect1_dropShadow_383_972"/>
<feBlend mode="normal" in="SourceGraphic" in2="effect1_dropShadow_383_972" result="shape"/>
</filter>
<filter id="filter1_d_383_972" x="391.334" y="33.3333" width="41.334" height="41.3333" filterUnits="userSpaceOnUse" color-interpolation-filters="sRGB">
<feFlood flood-opacity="0" result="BackgroundImageFix"/>
<feColorMatrix in="SourceAlpha" type="matrix" values="0 0 0 0 0 0 0 0 0 0 0 0 0 0 0 0 0 0 127 0" result="hardAlpha"/>
<feOffset dy="2"/>
<feGaussianBlur stdDeviation="2"/>
<feComposite in2="hardAlpha" operator="out"/>
<feColorMatrix type="matrix" values="0 0 0 0 0.286275 0 0 0 0 0.27451 0 0 0 0 0.27451 0 0 0 0.1 0"/>
<feBlend mode="normal" in2="BackgroundImageFix" result="effect1_dropShadow_383_972"/>
<feBlend mode="normal" in="SourceGraphic" in2="effect1_dropShadow_383_972" result="shape"/>
</filter>
<clipPath id="clip0_383_972">
<rect width="464" height="400" fill="white"/>
</clipPath>
</defs>
</svg>
