<svg width="268" height="79" viewBox="0 0 268 79" fill="none" xmlns="http://www.w3.org/2000/svg">
<path fill-rule="evenodd" clip-rule="evenodd" d="M29 32C20.1634 32 13 39.1634 13 48C13 56.8366 20.1634 64 29 64H50.1614C52.8714 72.3707 89.3713 79 134 79C178.629 79 215.129 72.3707 217.839 64H239C247.837 64 255 56.8366 255 48C255 39.1634 247.837 32 239 32H29Z" fill="#E9EB94"/>
<path d="M9.19034 35.8303C8.71522 34.5161 8.63331 33.1846 8.94459 31.8357C9.25588 30.5042 9.87845 29.2072 10.8123 27.9795C11.7462 26.7517 12.9421 25.6104 14.4003 24.6074C15.8584 23.5871 17.5131 22.7571 19.3481 22.1C21.1502 21.4602 22.936 21.0797 24.6727 20.976C26.4257 20.8549 28.0149 20.9933 29.473 21.391C30.9311 21.7887 32.1599 22.4112 33.1757 23.2932C34.1914 24.1578 34.8795 25.2818 35.2564 26.6306L35.8134 28.6712C36.1575 29.9162 36.1738 31.1613 35.8626 32.3891C35.5513 33.6342 34.9942 34.7928 34.1914 35.8649C33.3887 36.9543 32.3729 37.9573 31.1605 38.8911C29.9481 39.8249 28.5883 40.6031 27.081 41.2429C28.0477 44.3383 28.5228 45.8773 29.4894 48.9554C35.797 46.7593 38.9754 45.7563 45.3649 43.906C45.6271 44.9262 45.7581 45.4277 46.0203 46.448C32.1599 50.4772 25.2952 52.8809 11.8117 58.5182L10.8942 56.0627C17.1035 53.4688 20.2328 52.2583 26.5404 49.993C25.5574 46.9149 25.0495 45.3759 24.0665 42.2978C22.4609 42.7474 20.9209 42.9895 19.4136 43.0241C17.9063 43.0586 16.5301 42.8857 15.2686 42.5399C14.0071 42.194 12.893 41.6061 11.9591 40.8106C11.0089 40.0151 10.3208 39.0122 9.89483 37.8017L9.19034 35.813V35.8303ZM20.2 24.763C18.7583 25.2645 17.4804 25.9044 16.3499 26.6652C15.2194 27.4261 14.302 28.2562 13.5975 29.1554C12.8766 30.0546 12.4015 30.9884 12.1394 31.9395C11.8772 32.8906 11.91 33.8417 12.2377 34.7582L12.8438 36.5047C13.1715 37.4212 13.7122 38.1648 14.4822 38.7182C15.2522 39.2716 16.1697 39.6693 17.2346 39.8941C18.2995 40.1189 19.4627 40.1708 20.757 40.0497C22.0349 39.9287 23.3784 39.6174 24.7546 39.1332C26.1144 38.649 27.3432 38.0611 28.4409 37.3348C29.5549 36.6085 30.456 35.8303 31.1769 34.9657C31.8978 34.1184 32.4056 33.2191 32.7006 32.2853C32.9955 31.3515 33.0118 30.4177 32.7497 29.4666L32.2418 27.6855C31.9797 26.7517 31.4718 25.9735 30.7182 25.3683C29.9645 24.763 29.047 24.3307 27.9821 24.0713C26.9008 23.812 25.6884 23.7255 24.345 23.8292C23.0016 23.933 21.609 24.2443 20.2 24.7458V24.763Z" fill="#494646"/>
<path d="M79.3129 21.2526C79.4604 22.2729 79.5423 22.7917 79.7061 23.8119C64.9938 26.2848 57.6868 27.9276 43.2366 32.0778C42.9745 31.0748 42.8434 30.5734 42.5977 29.5704C57.1461 25.3856 64.5187 23.7255 79.3293 21.2353L79.3129 21.2526ZM74.9058 28.8268C75.5283 32.5447 75.8396 34.395 76.4458 38.1129C67.6807 39.7385 63.3063 40.7068 54.6395 42.9549L55.6061 47.1051C64.617 44.7706 69.1552 43.7676 78.2644 42.1248L78.674 44.6841C68.4835 46.5345 63.421 47.6758 53.3616 50.3734C52.4769 46.7247 52.0345 44.8917 51.1498 41.2429C59.8658 38.8911 64.2565 37.8881 73.0872 36.1589C72.7923 34.4815 72.6449 33.6342 72.35 31.9568C63.3391 33.7206 58.85 34.7582 49.9374 37.1618L49.3312 34.6544C59.489 31.9222 64.6006 30.7636 74.873 28.8441L74.9058 28.8268ZM49.6753 20.5955C58.9319 18.2091 63.6012 17.1716 72.9561 15.4423L73.3985 18.0881C62.8476 20.0422 57.5885 21.2181 47.1686 24.0195C46.0873 19.5234 45.5467 17.2753 44.4654 12.7965C45.7597 12.4507 46.3986 12.2778 47.6929 11.9492C48.4957 15.4077 48.8889 17.137 49.6917 20.5955H49.6753Z" fill="#494646"/>
<path d="M117.616 21.2008L117.731 23.8292C103.068 24.5728 95.728 25.351 81.1959 27.7547C81.0485 26.7171 80.9666 26.1983 80.8027 25.1435C95.4495 22.7225 102.838 21.927 117.616 21.2008ZM91.239 39.2888C100.283 38.0438 104.821 37.5769 113.897 36.9889L114.045 39.6693C103.838 40.3264 98.7426 40.8625 88.6012 42.3669C87.9951 37.7671 87.6838 35.4499 87.0776 30.85C88.29 30.6771 88.9125 30.5906 90.1249 30.4177C90.5673 33.9627 90.7802 35.7438 91.2226 39.2888H91.239ZM98.8245 19.0392C97.0223 19.2294 95.3348 19.2467 93.7456 19.1083C92.1564 18.9527 90.7639 18.6414 89.5351 18.1745C88.3227 17.7076 87.3233 17.0678 86.5533 16.2551C85.7833 15.4423 85.3246 14.5085 85.1771 13.4191L84.9641 11.7936C84.8167 10.7041 85.0297 9.66657 85.5703 8.68089C86.1273 7.67792 86.9465 6.79599 88.0442 6.00053C89.1419 5.20507 90.4853 4.54795 92.0581 3.99459C93.631 3.45852 95.3676 3.07808 97.2517 2.87057C99.1358 2.66306 100.905 2.66306 102.544 2.87057C104.182 3.06079 105.624 3.44123 106.852 3.9773C108.081 4.51337 109.064 5.22237 109.785 6.0697C110.522 6.93434 110.915 7.90272 110.981 8.99216L111.079 10.635C111.145 11.7244 110.883 12.7447 110.277 13.6958C109.67 14.6468 108.818 15.4769 107.721 16.2032C106.623 16.9295 105.312 17.5347 103.789 18.0189C102.265 18.5031 100.61 18.849 98.8081 19.0392H98.8245ZM97.5138 5.44717C96.1704 5.58551 94.8925 5.86219 93.7129 6.24263C92.5333 6.62307 91.5011 7.08997 90.6492 7.64333C89.7809 8.1967 89.1255 8.80194 88.6504 9.47635C88.1753 10.1508 87.9951 10.8425 88.077 11.5515L88.2244 12.7447C88.3063 13.4537 88.6668 14.0762 89.273 14.6123C89.8792 15.1483 90.6656 15.5634 91.5994 15.8746C92.5496 16.1859 93.6146 16.3934 94.8106 16.4972C96.0066 16.6009 97.2681 16.5836 98.5787 16.4453C99.8894 16.3069 101.118 16.0648 102.265 15.7017C103.412 15.3385 104.428 14.9062 105.296 14.4047C106.164 13.9033 106.836 13.3153 107.344 12.6755C107.835 12.0357 108.065 11.344 108.016 10.635L107.934 9.42447C107.885 8.71548 107.573 8.05836 106.983 7.50499C106.394 6.95163 105.624 6.48473 104.673 6.13887C103.723 5.79302 102.625 5.55093 101.397 5.41258C100.168 5.29154 98.8736 5.29154 97.5302 5.42988L97.5138 5.44717Z" fill="#494646"/>
<path d="M157.068 23.6909C155.02 23.7428 152.988 23.7947 150.99 23.812C148.991 23.8292 146.746 23.8465 144.24 23.8465C144.076 29.6741 143.994 32.5793 143.83 38.4069C142.618 38.3723 142.028 38.355 140.815 38.3205L141.094 23.8465C139.554 23.8465 137.899 23.8465 136.146 23.8465C134.393 23.8465 132.46 23.8465 130.363 23.8811L130.33 21.2008C133.492 21.1662 136.392 21.1489 139.013 21.1489C141.635 21.1489 144.027 21.1489 146.189 21.1489C148.352 21.1489 150.318 21.1489 152.087 21.1489C153.873 21.1489 155.495 21.097 156.97 21.0278C157.002 22.0827 157.035 22.6188 157.068 23.6736V23.6909ZM153.791 2.47285C153.496 8.214 153.349 11.0673 153.054 16.8084C145.092 16.3415 141.11 16.2378 133.148 16.2551C133.148 10.5139 133.132 7.64335 133.115 1.9022C141.389 1.8849 145.534 1.98866 153.808 2.47285H153.791ZM150.482 5.03216C144.797 4.75548 141.962 4.68631 136.277 4.63443C136.261 8.19671 136.244 9.97785 136.228 13.5401C141.782 13.5747 144.551 13.6612 150.088 13.9206C150.236 10.3583 150.318 8.57715 150.482 5.03216ZM159.525 28.7749C160.328 17.7077 160.721 12.174 161.508 1.10674C162.818 1.21049 163.49 1.26237 164.801 1.38342C163.539 17.137 162.9 25.0051 161.639 40.7587C160.459 40.655 159.869 40.6031 158.69 40.5166C158.952 36.9198 159.083 35.104 159.329 31.5072C155.561 31.2132 153.693 31.0921 149.925 30.9019C149.974 29.8125 149.99 29.2764 150.039 28.187C153.84 28.3772 155.724 28.4983 159.525 28.8095V28.7749Z" fill="#494646"/>
<path d="M200.09 29.6223C198.878 29.3629 198.271 29.2418 197.075 29.017C197.813 24.8668 198.173 22.7917 198.91 18.6414C194.978 17.8633 193.012 17.5001 189.064 16.843C188.605 19.8692 188.392 21.3737 187.933 24.3999C180.725 23.1894 177.12 22.7052 169.879 21.8925C170.583 14.8544 170.927 11.344 171.616 4.30586C179.201 5.13591 183.002 5.67198 190.538 6.93434C190.096 9.8395 189.883 11.2921 189.457 14.1972C193.422 14.8544 195.421 15.2175 199.369 16.013C200.041 12.2432 200.368 10.3583 201.04 6.5712C202.318 6.83059 202.973 6.95163 204.251 7.22832C202.58 16.1859 201.745 20.6647 200.074 29.6223H200.09ZM187.098 9.09592C182.035 8.30046 179.496 7.93731 174.417 7.33207C173.893 12.2259 173.631 14.6814 173.106 19.5752C178.021 20.1632 180.479 20.5091 185.378 21.2699C186.066 16.3934 186.41 13.9551 187.098 9.07863V9.09592ZM174.335 27.7028C184.509 28.9824 189.572 29.8298 199.664 31.9222C198.599 37.6806 198.058 40.5512 196.977 46.3097C195.83 46.0676 195.257 45.9465 194.094 45.7217C194.929 41.0181 195.355 38.6663 196.191 33.9454C187.36 32.1989 182.936 31.4899 174.04 30.3658C174.155 29.2937 174.221 28.7749 174.335 27.7028Z" fill="#494646"/>
<path d="M232.038 20.7512C228.352 19.6444 226.517 19.1256 222.814 18.1227C222.224 20.5609 221.929 21.7887 221.323 24.2443C221.127 25.057 220.979 25.766 220.897 26.354C220.815 26.9592 220.799 27.5472 220.832 28.1178C220.881 28.6885 220.996 29.2937 221.209 29.899C221.405 30.5042 221.716 31.2132 222.142 32.0087C222.732 33.1846 223.502 34.5507 224.42 36.107C225.337 37.6633 226.402 39.358 227.598 41.2256C226.615 41.779 226.124 42.0384 225.141 42.609C224.043 40.8452 223.109 39.2889 222.323 37.94C221.536 36.5739 220.832 35.3288 220.193 34.2048C219.734 33.3921 219.308 32.6139 218.931 31.9049C218.554 31.1959 218.342 30.6598 218.292 30.3486H218.243C218.145 30.5215 217.948 30.729 217.653 30.9884C217.359 31.2478 217.031 31.5072 216.638 31.7839C216.244 32.0778 215.851 32.3545 215.409 32.6485C214.983 32.9425 214.573 33.2191 214.18 33.4612C213.82 33.7033 213.345 33.9973 212.755 34.3605C212.165 34.7236 211.51 35.1386 210.805 35.5709C210.101 36.0033 209.347 36.4529 208.544 36.9371C207.741 37.404 206.988 37.8363 206.251 38.234C205.628 37.2483 205.317 36.7641 204.678 35.7957C206.267 34.9138 207.791 34.0492 209.216 33.1846C210.641 32.3199 211.985 31.4553 213.246 30.6252C214.098 30.0373 214.803 29.5012 215.343 28.9997C215.884 28.4983 216.343 27.9795 216.687 27.4607C217.047 26.9246 217.326 26.3713 217.539 25.766C217.752 25.1781 217.965 24.4691 218.145 23.6563L219.619 17.3099C215.868 16.3242 213.984 15.8746 210.199 15.01C210.412 13.9552 210.527 13.4364 210.74 12.3988C219.57 14.4393 223.977 15.598 232.71 18.2264L232.022 20.803L232.038 20.7512ZM232.267 55.492C231.121 55.1116 230.547 54.9214 229.4 54.5582C233.775 39.4445 235.97 31.8876 240.344 16.7739C241.622 17.1889 242.261 17.3964 243.539 17.8114C239.034 32.8906 236.773 40.4129 232.267 55.492Z" fill="#494646"/>
<path d="M247.586 48.2983L248.241 46.3788C248.47 45.7044 248.733 45.1165 249.044 44.6323C249.355 44.1481 249.748 43.7157 250.24 43.318C250.731 42.9203 251.338 42.5571 252.042 42.194C252.746 41.8309 253.631 41.4504 254.68 41.0354C255.351 40.776 255.99 40.5166 256.613 40.2745C257.236 40.0324 257.825 39.7384 258.366 39.4272C258.923 39.1159 259.415 38.7182 259.841 38.2686C260.266 37.8017 260.611 37.231 260.873 36.5393L261.102 35.8995C261.626 34.4469 261.528 33.0808 260.774 31.8184C260.021 30.5388 258.726 29.5531 256.892 28.8441C255.401 28.2734 253.959 28.0313 252.55 28.1351C251.141 28.2389 249.83 28.602 248.618 29.2418C248.077 28.2043 247.799 27.6855 247.258 26.6652C247.782 26.354 248.405 26.0773 249.142 25.8352C249.879 25.5758 250.699 25.4029 251.6 25.3337C252.501 25.2472 253.467 25.2645 254.5 25.4029C255.532 25.5239 256.613 25.8006 257.727 26.2329C260.66 27.3569 262.691 28.9478 263.805 30.9019C264.919 32.8733 265.05 34.9657 264.215 37.1618L263.953 37.8363C263.576 38.8219 263.084 39.6347 262.478 40.2399C261.872 40.8625 261.184 41.364 260.447 41.7963C259.693 42.2113 258.89 42.5744 258.038 42.8684C257.186 43.1797 256.334 43.5082 255.483 43.8368C254.86 44.0789 254.303 44.321 253.844 44.5458C253.385 44.7706 252.959 45.03 252.599 45.3067C252.239 45.5834 251.927 45.9119 251.665 46.2751C251.403 46.6555 251.19 47.1051 251.01 47.6066L250.387 49.3877C249.273 48.9554 248.7 48.7479 247.586 48.3156V48.2983ZM245.685 52.0335C247.258 52.6215 248.028 52.9154 249.601 53.5207L248.208 57.498C246.668 56.8927 245.898 56.5988 244.342 56.0281L245.685 52.0335Z" fill="#494646"/>
</svg>
