<svg width="240" height="90" viewBox="0 0 240 90" fill="none" xmlns="http://www.w3.org/2000/svg">
<g filter="url(#filter0_d_383_953)">
<rect x="8" y="6" width="220" height="70" rx="35" fill="#DBDE50"/>
<path d="M117.672 46.44C117.032 46.88 116.279 47.2067 115.412 47.42C114.559 47.6333 113.679 47.74 112.772 47.74C111.812 47.74 110.952 47.6067 110.192 47.34C109.432 47.0867 108.785 46.6933 108.252 46.16C107.732 45.6267 107.325 44.9667 107.032 44.18C106.752 43.3933 106.612 42.4667 106.612 41.4V39.22C106.612 38.1667 106.752 37.2467 107.032 36.46C107.312 35.6733 107.712 35.0133 108.232 34.48C108.752 33.9467 109.379 33.5467 110.112 33.28C110.859 33.0133 111.692 32.88 112.612 32.88C113.545 32.88 114.405 33 115.192 33.24C115.979 33.48 116.712 33.8667 117.392 34.4L116.372 36C115.745 35.5067 115.132 35.1667 114.532 34.98C113.932 34.78 113.292 34.68 112.612 34.68C111.359 34.68 110.372 35.0667 109.652 35.84C108.945 36.6 108.592 37.8133 108.592 39.48V41.14C108.592 42.8067 108.972 44.0267 109.732 44.8C110.505 45.56 111.539 45.94 112.832 45.94C113.379 45.94 113.892 45.8933 114.372 45.8C114.865 45.6933 115.305 45.5467 115.692 45.36V41.3H112.492V39.6H117.672V46.44ZM124.71 36.38C126.217 36.38 127.403 36.8133 128.27 37.68C129.15 38.5467 129.59 39.7733 129.59 41.36V42.7C129.59 44.2867 129.15 45.5133 128.27 46.38C127.403 47.2467 126.217 47.68 124.71 47.68C123.203 47.68 122.01 47.2467 121.13 46.38C120.263 45.5133 119.83 44.2867 119.83 42.7V41.36C119.83 39.76 120.263 38.5333 121.13 37.68C122.01 36.8133 123.203 36.38 124.71 36.38ZM124.71 45.98C125.577 45.98 126.277 45.7 126.81 45.14C127.357 44.5667 127.63 43.7 127.63 42.54V41.52C127.63 40.36 127.357 39.5 126.81 38.94C126.277 38.3667 125.577 38.08 124.71 38.08C123.843 38.08 123.137 38.3667 122.59 38.94C122.057 39.5 121.79 40.36 121.79 41.52V42.54C121.79 43.7 122.057 44.5667 122.59 45.14C123.137 45.7 123.843 45.98 124.71 45.98Z" fill="#FFFEFB"/>
</g>
<defs>
<filter id="filter0_d_383_953" x="0" y="0" width="240" height="90" filterUnits="userSpaceOnUse" color-interpolation-filters="sRGB">
<feFlood flood-opacity="0" result="BackgroundImageFix"/>
<feColorMatrix in="SourceAlpha" type="matrix" values="0 0 0 0 0 0 0 0 0 0 0 0 0 0 0 0 0 0 127 0" result="hardAlpha"/>
<feOffset dx="2" dy="4"/>
<feGaussianBlur stdDeviation="5"/>
<feComposite in2="hardAlpha" operator="out"/>
<feColorMatrix type="matrix" values="0 0 0 0 0.858824 0 0 0 0 0.870588 0 0 0 0 0.313726 0 0 0 0.4 0"/>
<feBlend mode="normal" in2="BackgroundImageFix" result="effect1_dropShadow_383_953"/>
<feBlend mode="normal" in="SourceGraphic" in2="effect1_dropShadow_383_953" result="shape"/>
</filter>
</defs>
</svg>
