<svg width="304" height="75" viewBox="0 0 304 75" fill="none" xmlns="http://www.w3.org/2000/svg">
<rect width="304" height="75" rx="37.5" fill="#E06437"/>
<path d="M142.916 29.675H134.791V40.275H136.116C137.75 40.275 139.275 40.225 140.691 40.125C142.125 40.0083 143.55 39.8417 144.966 39.625L145.291 41.7C143.808 41.9667 142.283 42.1583 140.716 42.275C139.166 42.375 137.458 42.425 135.591 42.425H132.316V27.525H142.916V29.675ZM152.766 35.925H149.216V48.5H146.741V25.45H149.216V33.775H152.766V35.925ZM170.8 48.475H155.7V40.55H170.8V48.475ZM168.35 42.625H158.15V46.4H168.35V42.625ZM173.825 36.375V38.475H152.675V36.375H173.825ZM163.25 25.775C164.35 25.775 165.35 25.875 166.25 26.075C167.167 26.2583 167.95 26.5333 168.6 26.9C169.25 27.25 169.75 27.6917 170.1 28.225C170.467 28.7417 170.65 29.325 170.65 29.975V30.675C170.65 31.325 170.467 31.9167 170.1 32.45C169.75 32.9667 169.25 33.4083 168.6 33.775C167.95 34.125 167.167 34.4 166.25 34.6C165.35 34.7833 164.35 34.875 163.25 34.875C162.15 34.875 161.142 34.7833 160.225 34.6C159.325 34.4 158.55 34.125 157.9 33.775C157.25 33.4083 156.742 32.9667 156.375 32.45C156.025 31.9167 155.85 31.325 155.85 30.675V29.975C155.85 29.325 156.025 28.7417 156.375 28.225C156.742 27.6917 157.25 27.25 157.9 26.9C158.55 26.5333 159.325 26.2583 160.225 26.075C161.142 25.875 162.15 25.775 163.25 25.775ZM163.25 32.825C163.967 32.825 164.633 32.775 165.25 32.675C165.867 32.5583 166.392 32.4 166.825 32.2C167.258 32 167.6 31.7667 167.85 31.5C168.1 31.2167 168.225 30.9083 168.225 30.575V30.075C168.225 29.7417 168.1 29.4417 167.85 29.175C167.6 28.8917 167.258 28.65 166.825 28.45C166.392 28.25 165.867 28.1 165.25 28C164.633 27.8833 163.967 27.825 163.25 27.825C162.517 27.825 161.842 27.8833 161.225 28C160.625 28.1 160.108 28.25 159.675 28.45C159.242 28.65 158.9 28.8917 158.65 29.175C158.4 29.4417 158.275 29.7417 158.275 30.075V30.575C158.275 30.9083 158.4 31.2167 158.65 31.5C158.9 31.7667 159.242 32 159.675 32.2C160.108 32.4 160.625 32.5583 161.225 32.675C161.842 32.775 162.517 32.825 163.25 32.825Z" fill="#FFFEFB"/>
</svg>
