<svg width="50" height="50" viewBox="0 0 50 50" fill="none" xmlns="http://www.w3.org/2000/svg">
<mask id="mask0_372_377" style="mask-type:alpha" maskUnits="userSpaceOnUse" x="0" y="0" width="50" height="50">
<rect width="50" height="50" fill="#D9D9D9"/>
</mask>
<g mask="url(#mask0_372_377)">
<path d="M24.9987 27.9166L14.7904 38.125C14.4084 38.5069 13.9223 38.6979 13.332 38.6979C12.7418 38.6979 12.2556 38.5069 11.8737 38.125C11.4918 37.743 11.3008 37.2569 11.3008 36.6666C11.3008 36.0764 11.4918 35.5903 11.8737 35.2083L22.082 25L11.8737 14.7916C11.4918 14.4097 11.3008 13.9236 11.3008 13.3333C11.3008 12.743 11.4918 12.2569 11.8737 11.875C12.2556 11.493 12.7418 11.3021 13.332 11.3021C13.9223 11.3021 14.4084 11.493 14.7904 11.875L24.9987 22.0833L35.207 11.875C35.589 11.493 36.0751 11.3021 36.6654 11.3021C37.2556 11.3021 37.7418 11.493 38.1237 11.875C38.5056 12.2569 38.6966 12.743 38.6966 13.3333C38.6966 13.9236 38.5056 14.4097 38.1237 14.7916L27.9154 25L38.1237 35.2083C38.5056 35.5903 38.6966 36.0764 38.6966 36.6666C38.6966 37.2569 38.5056 37.743 38.1237 38.125C37.7418 38.5069 37.2556 38.6979 36.6654 38.6979C36.0751 38.6979 35.589 38.5069 35.207 38.125L24.9987 27.9166Z" fill="#666666"/>
</g>
</svg>
