<svg width="1062" height="90" viewBox="0 0 1062 90" fill="none" xmlns="http://www.w3.org/2000/svg">
<rect width="1062" height="90" fill="#9B9B9B" fill-opacity="0.5"/>
<path d="M428.48 42.584C428.352 42.808 428.072 43.104 427.64 43.472C427.224 43.824 426.616 44.256 425.816 44.768C425 45.28 424.208 45.76 423.44 46.208C422.672 46.64 421.832 47.088 420.92 47.552L419.744 45.656C420.768 45.128 421.664 44.656 422.432 44.24C423.216 43.808 423.992 43.344 424.76 42.848C425.688 42.256 426.336 41.656 426.704 41.048C427.088 40.424 427.28 39.656 427.28 38.744V38.168H420.848V36.104H436.112V38.168H429.68V38.744C429.68 39.192 429.72 39.6 429.8 39.968C429.88 40.336 430.016 40.68 430.208 41C430.4 41.304 430.656 41.608 430.976 41.912C431.296 42.2 431.696 42.496 432.176 42.8C432.64 43.088 433.064 43.352 433.448 43.592C433.848 43.832 434.24 44.064 434.624 44.288C435.024 44.496 435.424 44.712 435.824 44.936C436.24 45.144 436.704 45.376 437.216 45.632L436.04 47.528C435.528 47.256 435.056 47.008 434.624 46.784C434.208 46.544 433.808 46.32 433.424 46.112C433.04 45.888 432.656 45.664 432.272 45.44C431.904 45.216 431.52 44.976 431.12 44.72C430.32 44.208 429.712 43.776 429.296 43.424C428.896 43.072 428.632 42.792 428.504 42.584H428.48ZM438.632 51.392V53.408H418.328V51.392H427.28V46.664H429.68V51.392H438.632ZM456.377 56.336H441.881V47.936H456.377V56.336ZM441.617 35.168H456.233V38.576C456.233 39.248 456.193 40.008 456.113 40.856C456.033 41.688 455.913 42.52 455.753 43.352H459.281V45.368H438.977V43.352H453.305C453.497 42.472 453.633 41.624 453.713 40.808C453.793 39.976 453.833 39.2 453.833 38.48V37.184H441.617V35.168ZM454.025 49.928H444.233V54.344H454.025V49.928ZM470.689 46.208H460.585V35.576H470.689V46.208ZM480.241 42.488H477.097V50.024H474.745V34.232H477.097V40.424H480.241V42.488ZM465.961 54.056H477.697V56.12H463.585V48.776H465.961V54.056ZM462.913 44.192H468.361V37.592H462.913V44.192ZM497.913 38.264H490.233V48.56H491.505C493.073 48.56 494.537 48.512 495.897 48.416C497.273 48.304 498.641 48.144 500.001 47.936L500.313 49.928C498.889 50.184 497.425 50.368 495.921 50.48C494.433 50.576 492.793 50.624 491.001 50.624H487.857V36.2H497.913V38.264ZM502.377 56.36V43.952H496.641V41.888H502.377V34.232H504.753V56.36H502.377ZM519.69 42.512C519.626 42.72 519.434 43.008 519.114 43.376C518.794 43.744 518.45 44.096 518.082 44.432C517.586 44.896 517.01 45.408 516.354 45.968C515.698 46.512 515.05 47.04 514.41 47.552L512.994 45.872C513.762 45.28 514.49 44.688 515.178 44.096C515.882 43.504 516.442 43 516.858 42.584C517.162 42.28 517.41 41.992 517.602 41.72C517.81 41.432 517.97 41.144 518.082 40.856C518.21 40.552 518.298 40.232 518.346 39.896C518.394 39.56 518.418 39.184 518.418 38.768V35.264H520.818V38.672C520.818 39.04 520.826 39.376 520.842 39.68C520.874 39.968 520.93 40.24 521.01 40.496C521.09 40.752 521.21 41.008 521.37 41.264C521.546 41.504 521.778 41.752 522.066 42.008C522.626 42.52 523.234 43.048 523.89 43.592C524.562 44.12 525.258 44.64 525.978 45.152L524.586 46.808C523.962 46.344 523.362 45.88 522.786 45.416C522.226 44.952 521.658 44.48 521.082 44C520.714 43.696 520.41 43.416 520.17 43.16C519.946 42.904 519.794 42.688 519.714 42.512H519.69ZM528.954 49.976V41.288H524.514V39.248H528.954V34.232H531.306V49.976H528.954ZM519.858 54.056H531.762V56.12H517.482V48.68H519.858V54.056ZM550.106 34.232H552.386V47.552H550.106V41.456H547.754V47.504H545.498V34.52H547.754V39.416H550.106V34.232ZM544.226 45.8C543.666 45.896 543.13 45.976 542.618 46.04C542.122 46.088 541.522 46.128 540.818 46.16C540.13 46.192 539.282 46.216 538.274 46.232C537.266 46.248 535.986 46.256 534.434 46.256V35.432H542.882V37.376H536.666V39.872H542.738V41.768H536.666V44.312C537.562 44.312 538.338 44.304 538.994 44.288C539.666 44.272 540.274 44.248 540.818 44.216C541.362 44.184 541.882 44.144 542.378 44.096C542.874 44.032 543.402 43.96 543.962 43.88L544.226 45.8ZM537.866 48.68H552.386V56.576H550.01V50.72H537.866V48.68ZM566.651 34.688H568.979V42.44H571.355V34.232H573.683V56.36H571.355V44.504H568.979V55.28H566.651V34.688ZM559.979 41.048C560.715 41.048 561.379 41.168 561.971 41.408C562.579 41.632 563.099 41.944 563.531 42.344C563.963 42.744 564.291 43.2 564.515 43.712C564.755 44.224 564.875 44.768 564.875 45.344V46.496C564.875 47.072 564.755 47.616 564.515 48.128C564.291 48.64 563.963 49.096 563.531 49.496C563.099 49.896 562.579 50.216 561.971 50.456C561.379 50.68 560.715 50.792 559.979 50.792C559.243 50.792 558.571 50.68 557.963 50.456C557.371 50.216 556.859 49.896 556.427 49.496C555.995 49.096 555.659 48.64 555.419 48.128C555.195 47.616 555.083 47.072 555.083 46.496V45.344C555.083 44.768 555.195 44.224 555.419 43.712C555.659 43.2 555.995 42.744 556.427 42.344C556.859 41.944 557.371 41.632 557.963 41.408C558.571 41.168 559.243 41.048 559.979 41.048ZM565.235 39.944H554.291V37.952H558.731V34.856H561.059V37.952H565.235V39.944ZM559.979 48.848C560.427 48.848 560.819 48.776 561.155 48.632C561.507 48.472 561.795 48.272 562.019 48.032C562.259 47.792 562.435 47.528 562.547 47.24C562.675 46.952 562.739 46.664 562.739 46.376V45.464C562.739 45.176 562.675 44.888 562.547 44.6C562.435 44.312 562.259 44.048 562.019 43.808C561.795 43.568 561.507 43.376 561.155 43.232C560.819 43.072 560.427 42.992 559.979 42.992C559.531 42.992 559.131 43.072 558.779 43.232C558.443 43.376 558.155 43.568 557.915 43.808C557.691 44.048 557.515 44.312 557.387 44.6C557.275 44.888 557.219 45.176 557.219 45.464V46.376C557.219 46.664 557.275 46.952 557.387 47.24C557.515 47.528 557.691 47.792 557.915 48.032C558.155 48.272 558.443 48.472 558.779 48.632C559.131 48.776 559.531 48.848 559.979 48.848ZM587.707 42.8C586.907 42.4 586.299 42.048 585.883 41.744C585.467 41.44 585.187 41.152 585.043 40.88H585.019C584.891 41.152 584.611 41.448 584.179 41.768C583.763 42.072 583.155 42.424 582.355 42.824C581.699 43.144 580.963 43.496 580.147 43.88C579.347 44.264 578.443 44.648 577.435 45.032L576.499 43.088C577.395 42.752 578.275 42.392 579.139 42.008C580.003 41.608 580.819 41.2 581.587 40.784C582.067 40.528 582.451 40.272 582.739 40.016C583.043 39.744 583.275 39.472 583.435 39.2C583.595 38.928 583.699 38.656 583.747 38.384C583.811 38.096 583.843 37.808 583.843 37.52H577.483V35.504H592.603V37.52H586.219C586.219 37.808 586.243 38.096 586.291 38.384C586.355 38.656 586.459 38.928 586.603 39.2C586.763 39.472 586.987 39.744 587.275 40.016C587.579 40.272 587.971 40.528 588.451 40.784C589.219 41.2 590.035 41.608 590.899 42.008C591.763 42.392 592.643 42.752 593.539 43.088L592.627 45.008C591.619 44.624 590.707 44.24 589.891 43.856C589.091 43.472 588.363 43.12 587.707 42.8ZM583.819 56.36V48.776H574.867V46.76H595.171V48.776H586.219V56.36H583.819ZM608.068 34.688H610.396V55.28H608.068V43.448H604.516V41.384H608.068V34.688ZM601.036 45.416C600.956 45.656 600.82 45.912 600.628 46.184C600.452 46.456 600.244 46.736 600.004 47.024C599.524 47.6 598.98 48.216 598.372 48.872C597.78 49.512 597.156 50.16 596.5 50.816L594.892 49.208C595.612 48.504 596.3 47.8 596.956 47.096C597.628 46.392 598.22 45.704 598.732 45.032C598.972 44.712 599.164 44.4 599.308 44.096C599.468 43.776 599.588 43.448 599.668 43.112C599.748 42.776 599.796 42.424 599.812 42.056C599.844 41.672 599.86 41.264 599.86 40.832V36.032H602.164V40.832C602.164 41.264 602.172 41.656 602.188 42.008C602.22 42.36 602.276 42.704 602.356 43.04C602.436 43.36 602.548 43.672 602.692 43.976C602.836 44.28 603.036 44.592 603.292 44.912C603.804 45.584 604.364 46.256 604.972 46.928C605.596 47.584 606.268 48.264 606.988 48.968L605.356 50.528C604.716 49.888 604.124 49.288 603.58 48.728C603.052 48.152 602.548 47.576 602.068 47C601.828 46.712 601.62 46.44 601.444 46.184C601.268 45.912 601.14 45.656 601.06 45.416H601.036ZM614.788 56.36H612.46V34.232H614.788V56.36ZM636.468 51.392V53.408H616.164V51.392H621.228V46.04C620.508 45.576 619.932 45.008 619.5 44.336C619.084 43.648 618.876 42.864 618.876 41.984V40.832C618.876 40 619.068 39.256 619.452 38.6C619.852 37.928 620.388 37.36 621.06 36.896C621.748 36.416 622.54 36.056 623.436 35.816C624.348 35.56 625.308 35.432 626.316 35.432C627.324 35.432 628.276 35.56 629.172 35.816C630.084 36.056 630.876 36.416 631.548 36.896C632.236 37.36 632.772 37.928 633.156 38.6C633.556 39.256 633.756 40 633.756 40.832V41.984C633.756 42.864 633.54 43.648 633.108 44.336C632.692 45.008 632.124 45.576 631.404 46.04V51.392H636.468ZM626.316 37.496C625.628 37.496 624.972 37.576 624.348 37.736C623.74 37.896 623.196 38.128 622.716 38.432C622.252 38.72 621.884 39.08 621.612 39.512C621.34 39.944 621.204 40.424 621.204 40.952V41.864C621.204 42.392 621.34 42.872 621.612 43.304C621.884 43.736 622.252 44.104 622.716 44.408C623.196 44.696 623.74 44.92 624.348 45.08C624.972 45.24 625.628 45.32 626.316 45.32C627.004 45.32 627.652 45.24 628.26 45.08C628.884 44.92 629.428 44.696 629.892 44.408C630.372 44.104 630.748 43.736 631.02 43.304C631.292 42.872 631.428 42.392 631.428 41.864V40.952C631.428 40.424 631.292 39.944 631.02 39.512C630.748 39.08 630.372 38.72 629.892 38.432C629.428 38.128 628.884 37.896 628.26 37.736C627.652 37.576 627.004 37.496 626.316 37.496ZM626.316 47.36C625.356 47.36 624.444 47.248 623.58 47.024V51.392H629.052V47.024C628.156 47.248 627.244 47.36 626.316 47.36ZM638.877 51.848H641.613V54.608H638.877V51.848ZM639.237 49.376L638.901 35.384H641.589L641.253 49.376H639.237Z" fill="#DFDEDC"/>
</svg>
