<svg width="490" height="80" viewBox="0 0 490 80" fill="none" xmlns="http://www.w3.org/2000/svg">
<rect width="490" height="80" rx="40" fill="#E9E9E9"/>
<path d="M137.271 31.78V33.32C137.271 36.44 135.351 39.52 132.691 40.8L133.631 42.08C136.491 40.66 138.571 37.14 138.571 33.32V31.78H137.271ZM137.591 31.78V33.32C137.591 36.92 139.551 40.34 142.371 41.74L143.291 40.46C140.711 39.18 138.891 36.24 138.891 33.32V31.78H137.591ZM133.191 30.62V31.96H142.891V30.62H133.191ZM137.251 27.8V31.36H138.891V27.8H137.251ZM145.091 27.48V45.56H146.771V27.48H145.091ZM146.371 34.9V36.28H149.731V34.9H146.371ZM163.49 27.46V45.56H165.17V27.46H163.49ZM164.71 34.8V36.18H168.05V34.8H164.71ZM158.87 29.42V29.68C158.87 34.46 156.37 38.32 151.37 40.86L152.29 42.14C158.13 39.2 160.49 34.56 160.49 29.42H158.87ZM152.21 29.42V30.78H159.73V29.42H152.21ZM169.648 36.64V38H186.048V36.64H169.648ZM177.128 37.5V41.66H178.808V37.5H177.128ZM171.728 43.78V45.16H184.228V43.78H171.728ZM171.728 39.88V44.16H173.388V39.88H171.728ZM177.828 27.92C173.988 27.92 171.488 29.32 171.488 31.56C171.488 33.8 173.988 35.2 177.828 35.2C181.648 35.2 184.168 33.8 184.168 31.56C184.168 29.32 181.648 27.92 177.828 27.92ZM177.828 29.28C180.588 29.28 182.408 30.16 182.408 31.56C182.408 32.98 180.588 33.84 177.828 33.84C175.068 33.84 173.248 32.98 173.248 31.56C173.248 30.16 175.068 29.28 177.828 29.28ZM195.771 28.32V29.68H207.411V28.32H195.771ZM193.691 34.8V36.16H210.071V34.8H193.691ZM201.031 35.72V39.98H202.671V35.72H201.031ZM206.331 28.32V29.66C206.331 31.12 206.331 32.84 205.731 35.26L207.351 35.46C207.951 32.98 207.951 31.16 207.951 29.66V28.32H206.331ZM195.391 39.44V40.8H206.411V45.56H208.071V39.44H195.391ZM219.41 36.02V38.8H221.05V36.02H219.41ZM212.07 35.1V36.44H228.41V35.1H212.07ZM214.19 28.08V33.58H226.29V28.08H214.19ZM224.67 29.4V32.26H215.83V29.4H224.67ZM214.05 38.2V39.48H224.69V41.06H214.09V44.46H215.73V42.26H226.33V38.2H214.05ZM214.09 44.06V45.36H226.87V44.06H214.09ZM238.648 27.78C234.648 27.78 232.288 28.9 232.288 30.92C232.288 32.94 234.648 34.06 238.648 34.06C242.628 34.06 245.008 32.94 245.008 30.92C245.008 28.9 242.628 27.78 238.648 27.78ZM238.648 29.04C241.588 29.04 243.288 29.72 243.288 30.92C243.288 32.12 241.588 32.8 238.648 32.8C235.688 32.8 233.988 32.12 233.988 30.92C233.988 29.72 235.688 29.04 238.648 29.04ZM230.468 35.26V36.6H246.808V35.26H230.468ZM232.448 38.14V39.42H243.088V41.02H232.488V44.42H234.128V42.22H244.728V38.14H232.448ZM232.488 44.06V45.36H245.268V44.06H232.488ZM257.312 39.16V40.48H267.712V45.58H269.372V39.16H257.312ZM267.712 27.48V38.14H269.372V27.48H267.712ZM263.272 32V33.38H268.212V32H263.272ZM255.332 28.84V36.92H263.592V28.84H255.332ZM261.952 30.16V35.6H256.952V30.16H261.952ZM274.63 29.28V30.66H286.27V29.28H274.63ZM272.91 41.66V43.04H289.25V41.66H272.91ZM279.25 35.2V42.34H280.91V35.2H279.25ZM285.65 29.28V31.08C285.65 33.24 285.65 35.78 284.97 39.24L286.63 39.46C287.29 35.8 287.29 33.32 287.29 31.08V29.28H285.65ZM310.074 27.5V37.52H311.754V27.5H310.074ZM301.634 28.14V29.9C301.634 32.5 299.754 34.9 297.034 35.86L297.874 37.16C300.934 36.06 303.014 33.24 303.014 29.9V28.14H301.634ZM301.934 28.14V29.9C301.934 33.14 304.014 35.8 307.054 36.84L307.874 35.52C305.194 34.64 303.294 32.42 303.294 29.9V28.14H301.934ZM299.794 38.6V39.96H311.854V38.6H299.794ZM299.614 43.98V45.32H312.054V43.98H299.614ZM302.274 39.18V44.76H303.894V39.18H302.274ZM307.754 39.18V44.76H309.394V39.18H307.754ZM320.152 28.86C317.512 28.86 315.652 31.32 315.652 35.16C315.652 39.02 317.512 41.48 320.152 41.48C322.772 41.48 324.652 39.02 324.652 35.16C324.652 31.32 322.772 28.86 320.152 28.86ZM320.152 30.36C321.892 30.36 323.072 32.24 323.072 35.16C323.072 38.1 321.892 40.02 320.152 40.02C318.412 40.02 317.232 38.1 317.232 35.16C317.232 32.24 318.412 30.36 320.152 30.36ZM328.572 27.46V45.58H330.212V27.46H328.572ZM324.112 34.36V35.72H329.292V34.36H324.112ZM337.73 36.78V42.2H339.37V36.78H337.73ZM344.41 36.78V42.2H346.07V36.78H344.41ZM333.73 41.88V43.26H350.11V41.88H333.73ZM341.89 28.62C338.05 28.62 335.31 30.44 335.31 33.28C335.31 36.1 338.05 37.92 341.89 37.92C345.71 37.92 348.45 36.1 348.45 33.28C348.45 30.44 345.71 28.62 341.89 28.62ZM341.89 29.94C344.79 29.94 346.85 31.26 346.85 33.28C346.85 35.28 344.79 36.6 341.89 36.6C338.99 36.6 336.91 35.28 336.91 33.28C336.91 31.26 338.99 29.94 341.89 29.94Z" fill="black"/>
</svg>
