<svg width="1000" height="90" viewBox="0 0 1000 90" fill="none" xmlns="http://www.w3.org/2000/svg">
<rect width="1000" height="90" fill="#E06437"/>
<path d="M437.858 55.36V33.232H440.234V55.36H437.858ZM428.594 34.72C429.41 34.72 430.154 34.856 430.826 35.128C431.514 35.4 432.106 35.808 432.602 36.352C433.098 36.896 433.482 37.568 433.754 38.368C434.042 39.168 434.186 40.096 434.186 41.152V43.648C434.186 44.704 434.042 45.632 433.754 46.432C433.482 47.232 433.098 47.904 432.602 48.448C432.106 48.976 431.514 49.376 430.826 49.648C430.154 49.92 429.41 50.056 428.594 50.056C427.778 50.056 427.026 49.92 426.338 49.648C425.666 49.376 425.082 48.976 424.586 48.448C424.09 47.904 423.698 47.232 423.41 46.432C423.138 45.632 423.002 44.704 423.002 43.648V41.152C423.002 40.096 423.138 39.168 423.41 38.368C423.698 37.552 424.09 36.88 424.586 36.352C425.082 35.808 425.666 35.4 426.338 35.128C427.026 34.856 427.778 34.72 428.594 34.72ZM428.594 47.92C429.026 47.92 429.442 47.84 429.842 47.68C430.242 47.52 430.594 47.256 430.898 46.888C431.202 46.52 431.442 46.048 431.618 45.472C431.81 44.88 431.906 44.16 431.906 43.312V41.488C431.906 40.64 431.81 39.928 431.618 39.352C431.442 38.76 431.194 38.28 430.874 37.912C430.57 37.544 430.218 37.28 429.818 37.12C429.434 36.96 429.026 36.88 428.594 36.88C428.162 36.88 427.746 36.96 427.346 37.12C426.946 37.28 426.594 37.544 426.29 37.912C425.986 38.28 425.738 38.76 425.546 39.352C425.37 39.928 425.282 40.64 425.282 41.488V43.312C425.282 44.16 425.37 44.88 425.546 45.472C425.738 46.048 425.986 46.52 426.29 46.888C426.594 47.256 426.946 47.52 427.346 47.68C427.746 47.84 428.162 47.92 428.594 47.92ZM461.843 55.36H459.515V43H456.899V54.28H454.571V33.688H456.899V40.936H459.515V33.232H461.843V55.36ZM451.979 37.408H445.859V47.368H447.083C447.627 47.368 448.139 47.36 448.619 47.344C449.099 47.328 449.571 47.304 450.035 47.272C450.499 47.24 450.979 47.2 451.475 47.152C451.971 47.088 452.499 47.008 453.059 46.912L453.299 48.904C452.675 49 452.091 49.088 451.547 49.168C451.003 49.232 450.467 49.288 449.939 49.336C449.411 49.368 448.875 49.392 448.331 49.408C447.803 49.424 447.227 49.432 446.603 49.432H443.459V35.344H451.979V37.408ZM466.051 46.792V39.856H478.195V37H465.955V34.984H480.547V41.872H468.403V44.776H481.075V46.792H474.523V50.392H483.499V52.408H463.195V50.392H472.171V46.792H466.051ZM492.412 37.552V35.536H498.796V33.112H501.172V35.536H507.58V37.552H501.172V37.72C501.172 37.96 501.196 38.2 501.244 38.44C501.308 38.664 501.42 38.888 501.58 39.112C501.74 39.32 501.964 39.536 502.252 39.76C502.556 39.968 502.94 40.184 503.404 40.408C504.204 40.776 505.012 41.128 505.828 41.464C506.644 41.784 507.508 42.104 508.42 42.424L507.628 44.272C506.604 43.904 505.684 43.56 504.868 43.24C504.052 42.904 503.316 42.592 502.66 42.304C501.86 41.952 501.26 41.648 500.86 41.392C500.46 41.12 500.172 40.848 499.996 40.576H499.972C499.796 40.88 499.508 41.16 499.108 41.416C498.708 41.672 498.108 41.976 497.308 42.328C496.652 42.616 495.916 42.92 495.1 43.24C494.284 43.56 493.364 43.904 492.34 44.272L491.5 42.424C492.412 42.104 493.284 41.784 494.116 41.464C494.948 41.128 495.756 40.776 496.54 40.408C497.004 40.2 497.38 39.984 497.668 39.76C497.956 39.536 498.18 39.312 498.34 39.088C498.516 38.864 498.636 38.64 498.7 38.416C498.764 38.176 498.796 37.944 498.796 37.72V37.552H492.412ZM498.82 55.36V48.064H489.868V46.048H510.172V48.064H501.22V55.36H498.82ZM517.668 42.232C517.588 42.44 517.396 42.728 517.092 43.096C516.788 43.448 516.444 43.784 516.06 44.104C515.548 44.552 514.972 45.024 514.332 45.52C513.708 46.016 513.06 46.496 512.388 46.96L510.996 45.256C511.764 44.712 512.484 44.184 513.156 43.672C513.828 43.144 514.38 42.672 514.812 42.256C515.1 41.968 515.348 41.688 515.556 41.416C515.764 41.144 515.924 40.864 516.036 40.576C516.164 40.288 516.252 39.976 516.3 39.64C516.364 39.304 516.396 38.92 516.396 38.488V37.768H511.62V35.728H516.396V33.088H518.796V35.728H523.26V37.768H518.796V38.392C518.796 38.76 518.812 39.096 518.844 39.4C518.876 39.688 518.932 39.96 519.012 40.216C519.108 40.472 519.236 40.72 519.396 40.96C519.556 41.184 519.772 41.416 520.044 41.656C520.604 42.168 521.196 42.664 521.82 43.144C522.444 43.608 523.116 44.072 523.836 44.536L522.492 46.264C521.868 45.832 521.284 45.408 520.74 44.992C520.196 44.576 519.636 44.128 519.06 43.648C518.692 43.344 518.388 43.08 518.148 42.856C517.924 42.616 517.772 42.408 517.692 42.232H517.668ZM526.62 49V41.536H522.636V39.496H526.62V33.232H528.972V49H526.62ZM517.524 53.056H529.428V55.12H515.148V48.016H517.524V53.056ZM538.221 44.392V34.24H540.549V37.6H546.237V34.24H548.565V44.392H538.221ZM554.661 47.008V49.048H543.453V53.296H555.069V55.336H541.077V47.008H554.661ZM557.757 40.456H554.613V45.928H552.261V33.232H554.613V38.392H557.757V40.456ZM540.549 42.376H546.237V39.592H540.549V42.376ZM558.725 48.64C560.005 47.888 561.085 47.224 561.965 46.648C562.861 46.056 563.605 45.52 564.197 45.04C564.789 44.544 565.253 44.088 565.589 43.672C565.925 43.24 566.173 42.816 566.333 42.4C566.509 41.968 566.613 41.52 566.645 41.056C566.693 40.592 566.717 40.072 566.717 39.496V37.312H559.157V35.272H569.069V39.52C569.069 40.24 569.045 40.896 568.997 41.488C568.965 42.064 568.853 42.616 568.661 43.144C568.469 43.656 568.181 44.168 567.797 44.68C567.429 45.176 566.901 45.712 566.213 46.288C565.541 46.864 564.693 47.496 563.669 48.184C562.661 48.872 561.429 49.656 559.973 50.536L558.725 48.64ZM573.749 55.36V33.232H576.125V55.36H573.749Z" fill="#FFFEFB"/>
</svg>
