<svg width="1000" height="440" viewBox="0 0 1000 440" fill="none" xmlns="http://www.w3.org/2000/svg">
<rect width="1000" height="440" fill="#CBE5F2"/>
<g filter="url(#filter0_d_383_971)">
<rect x="732" y="328" width="220" height="70" rx="35" fill="#EA973E"/>
<path d="M841.672 368.44C841.032 368.88 840.279 369.207 839.412 369.42C838.559 369.633 837.679 369.74 836.772 369.74C835.812 369.74 834.952 369.607 834.192 369.34C833.432 369.087 832.785 368.693 832.252 368.16C831.732 367.627 831.325 366.967 831.032 366.18C830.752 365.393 830.612 364.467 830.612 363.4V361.22C830.612 360.167 830.752 359.247 831.032 358.46C831.312 357.673 831.712 357.013 832.232 356.48C832.752 355.947 833.379 355.547 834.112 355.28C834.859 355.013 835.692 354.88 836.612 354.88C837.545 354.88 838.405 355 839.192 355.24C839.979 355.48 840.712 355.867 841.392 356.4L840.372 358C839.745 357.507 839.132 357.167 838.532 356.98C837.932 356.78 837.292 356.68 836.612 356.68C835.359 356.68 834.372 357.067 833.652 357.84C832.945 358.6 832.592 359.813 832.592 361.48V363.14C832.592 364.807 832.972 366.027 833.732 366.8C834.505 367.56 835.539 367.94 836.832 367.94C837.379 367.94 837.892 367.893 838.372 367.8C838.865 367.693 839.305 367.547 839.692 367.36V363.3H836.492V361.6H841.672V368.44ZM848.71 358.38C850.217 358.38 851.403 358.813 852.27 359.68C853.15 360.547 853.59 361.773 853.59 363.36V364.7C853.59 366.287 853.15 367.513 852.27 368.38C851.403 369.247 850.217 369.68 848.71 369.68C847.203 369.68 846.01 369.247 845.13 368.38C844.263 367.513 843.83 366.287 843.83 364.7V363.36C843.83 361.76 844.263 360.533 845.13 359.68C846.01 358.813 847.203 358.38 848.71 358.38ZM848.71 367.98C849.577 367.98 850.277 367.7 850.81 367.14C851.357 366.567 851.63 365.7 851.63 364.54V363.52C851.63 362.36 851.357 361.5 850.81 360.94C850.277 360.367 849.577 360.08 848.71 360.08C847.843 360.08 847.137 360.367 846.59 360.94C846.057 361.5 845.79 362.36 845.79 363.52V364.54C845.79 365.7 846.057 366.567 846.59 367.14C847.137 367.7 847.843 367.98 848.71 367.98Z" fill="#FFFEFB"/>
</g>
<path d="M427.885 107.76H410.525V90.76H427.885V107.76ZM422.885 94.96H415.525V103.56H422.885V94.96ZM438.645 96.96H443.525V101.36H438.645V112.64H433.605V88.56H438.645V96.96ZM426.925 119.6C426.792 119.973 426.378 120.387 425.685 120.84C425.018 121.293 424.138 121.8 423.045 122.36C421.765 123.027 420.418 123.68 419.005 124.32C417.592 124.987 416.205 125.6 414.845 126.16L412.845 122C414.338 121.387 415.858 120.733 417.405 120.04C418.952 119.347 420.312 118.693 421.485 118.08C422.418 117.573 423.112 116.987 423.565 116.32C424.018 115.653 424.245 114.813 424.245 113.8V110.6H429.365V113.8C429.365 114.813 429.565 115.653 429.965 116.32C430.392 116.96 431.098 117.547 432.085 118.08C432.645 118.373 433.285 118.693 434.005 119.04C434.725 119.387 435.458 119.733 436.205 120.08C436.978 120.427 437.752 120.76 438.525 121.08C439.325 121.427 440.072 121.733 440.765 122L438.805 126.04C437.338 125.4 435.925 124.76 434.565 124.12C433.232 123.507 431.925 122.88 430.645 122.24C429.605 121.707 428.765 121.213 428.125 120.76C427.485 120.333 427.098 119.947 426.965 119.6H426.925ZM474.459 109.48V125.8H450.779V109.48H455.779V113.64H469.459V109.48H474.459ZM474.459 107.8H469.419V88.56H474.459V107.8ZM469.459 121.64V117.8H455.779V121.64H469.459ZM445.779 90.6H465.059V94.88H458.099V96.6C458.099 97.0533 458.139 97.4667 458.219 97.84C458.299 98.2133 458.432 98.5733 458.619 98.92C458.832 99.24 459.126 99.5733 459.499 99.92C459.872 100.24 460.352 100.6 460.939 101C461.712 101.533 462.579 102.107 463.539 102.72C464.526 103.333 465.486 103.907 466.419 104.44L463.859 108.08C463.006 107.547 462.152 107.013 461.299 106.48C460.446 105.947 459.606 105.413 458.779 104.88C457.099 103.787 456.139 103.013 455.899 102.56H455.859C455.672 103.013 454.686 103.893 452.899 105.2C452.072 105.813 451.192 106.44 450.259 107.08C449.326 107.72 448.232 108.44 446.979 109.24L444.219 105.44C446.779 103.84 448.979 102.32 450.819 100.88C451.672 100.187 452.259 99.5333 452.579 98.92C452.899 98.3067 453.059 97.5333 453.059 96.6V94.88H445.779V90.6ZM519.273 125.76H514.193V88.56H519.273V125.76ZM495.553 112.64H499.433C501.273 112.64 503.18 112.587 505.153 112.48C507.126 112.347 509.046 112.16 510.913 111.92L511.473 116.16C509.58 116.453 507.513 116.653 505.273 116.76C503.033 116.867 500.686 116.92 498.233 116.92H490.553V101.8H502.553V95.72H490.553V91.44H507.553V105.92H495.553V112.64ZM556.447 116.8V121.08H522.367V116.8H556.447ZM539.527 103.32C539.314 103.773 538.86 104.267 538.167 104.8C537.5 105.307 536.66 105.907 535.647 106.6C534.554 107.32 533.287 108.12 531.847 109C530.407 109.853 528.727 110.827 526.807 111.92L524.327 107.92C525.794 107.093 527.274 106.24 528.767 105.36C530.26 104.453 531.594 103.6 532.767 102.8C533.567 102.267 534.22 101.733 534.727 101.2C535.26 100.667 535.674 100.107 535.967 99.52C536.287 98.9067 536.514 98.2533 536.647 97.56C536.78 96.8667 536.847 96.08 536.847 95.2V91.08H541.967V95.2C541.967 96.08 542.034 96.8667 542.167 97.56C542.3 98.2533 542.514 98.9067 542.807 99.52C543.127 100.107 543.54 100.667 544.047 101.2C544.58 101.733 545.247 102.267 546.047 102.8C547.22 103.6 548.554 104.453 550.047 105.36C551.54 106.24 553.02 107.093 554.487 107.92L552.047 111.84C550.127 110.747 548.447 109.773 547.007 108.92C545.567 108.04 544.3 107.24 543.207 106.52C542.194 105.827 541.38 105.24 540.767 104.76C540.18 104.253 539.78 103.773 539.567 103.32H539.527ZM590.861 116.8V121.08H556.781V116.8H590.861ZM586.501 111.72H561.181V91.32H586.101V95.56H566.181V99.4H585.781V103.64H566.181V107.48H586.501V111.72Z" fill="#1F1818"/>
<path d="M437.355 54.88C437.355 54.2267 437.515 53.64 437.835 53.12C438.155 52.5867 438.589 52.1333 439.135 51.76C439.682 51.3733 440.315 51.08 441.035 50.88C441.769 50.6667 442.549 50.56 443.375 50.56C444.189 50.56 444.955 50.6667 445.675 50.88C446.409 51.08 447.049 51.3733 447.595 51.76C448.155 52.1333 448.595 52.5867 448.915 53.12C449.235 53.64 449.395 54.2267 449.395 54.88V55.86C449.395 56.46 449.255 57.0133 448.975 57.52C448.695 58.0267 448.315 58.4667 447.835 58.84C447.355 59.2 446.795 59.5 446.155 59.74C445.515 59.9667 444.829 60.1067 444.095 60.16V63.92H451.775V65.14H434.975V63.92H442.655V60.16C441.909 60.1067 441.215 59.9667 440.575 59.74C439.935 59.5 439.375 59.2 438.895 58.84C438.415 58.4667 438.035 58.0267 437.755 57.52C437.489 57.0133 437.355 56.46 437.355 55.86V54.88ZM443.375 51.86C442.722 51.86 442.115 51.94 441.555 52.1C440.995 52.2467 440.509 52.46 440.095 52.74C439.682 53.0067 439.355 53.3267 439.115 53.7C438.875 54.0733 438.755 54.4867 438.755 54.94V55.8C438.755 56.2533 438.875 56.6667 439.115 57.04C439.355 57.4133 439.682 57.74 440.095 58.02C440.509 58.2867 440.995 58.5 441.555 58.66C442.115 58.8067 442.722 58.88 443.375 58.88C444.015 58.88 444.615 58.8067 445.175 58.66C445.749 58.5 446.242 58.2867 446.655 58.02C447.069 57.74 447.395 57.4133 447.635 57.04C447.875 56.6667 447.995 56.2533 447.995 55.8V54.94C447.995 54.4867 447.875 54.0733 447.635 53.7C447.395 53.3267 447.069 53.0067 446.655 52.74C446.242 52.46 445.749 52.2467 445.175 52.1C444.615 51.94 444.015 51.86 443.375 51.86ZM468.982 57.16V58.36H452.182V57.16H468.982ZM466.482 60.26V64.62H456.062V66.6H467.022V67.8H454.682V63.44H465.102V61.46H454.582V60.26H466.482ZM456.162 54H466.602V55.24H454.742V49.88H456.162V54ZM484.849 52.38H480.749V55.24C480.749 55.6267 480.763 55.96 480.789 56.24C480.816 56.52 480.869 56.7867 480.949 57.04C481.029 57.2933 481.143 57.5467 481.289 57.8C481.449 58.04 481.663 58.3133 481.929 58.62C482.316 59.0733 482.796 59.5867 483.369 60.16C483.956 60.7333 484.623 61.3533 485.369 62.02L484.449 62.96C483.756 62.32 483.156 61.7467 482.649 61.24C482.156 60.7333 481.709 60.2667 481.309 59.84C481.016 59.5333 480.749 59.24 480.509 58.96C480.269 58.68 480.123 58.4733 480.069 58.34H480.049C480.023 58.4333 479.956 58.5533 479.849 58.7C479.756 58.8467 479.636 59.0067 479.489 59.18C479.356 59.3533 479.209 59.5333 479.049 59.72C478.889 59.8933 478.736 60.06 478.589 60.22C478.456 60.3667 478.276 60.56 478.049 60.8C477.823 61.0267 477.569 61.28 477.289 61.56C477.023 61.8267 476.729 62.1133 476.409 62.42C476.103 62.7133 475.803 62.9867 475.509 63.24L474.569 62.3C475.209 61.74 475.803 61.1867 476.349 60.64C476.909 60.0933 477.423 59.56 477.889 59.04C478.209 58.68 478.463 58.36 478.649 58.08C478.836 57.7867 478.976 57.5 479.069 57.22C479.176 56.94 479.243 56.6533 479.269 56.36C479.309 56.0667 479.329 55.7267 479.329 55.34V52.38H475.129V51.14H484.849V52.38ZM488.109 55.76V49.44H489.529V67.72H488.109V57.04H483.969V55.76H488.109ZM505.336 51.52V49.44H506.716V60.18H505.336V55.82H499.816V54.6H505.336V52.74H499.816V51.52H505.336ZM494.276 50.4V57.86C495.25 57.86 496.103 57.8533 496.836 57.84C497.57 57.8267 498.256 57.8067 498.896 57.78C499.55 57.74 500.19 57.6933 500.816 57.64C501.443 57.5733 502.136 57.4867 502.896 57.38L503.056 58.64C502.27 58.7467 501.55 58.8333 500.896 58.9C500.243 58.9667 499.55 59.02 498.816 59.06C498.083 59.0867 497.243 59.1067 496.296 59.12C495.363 59.1333 494.216 59.14 492.856 59.14V50.4H494.276ZM494.936 61.26H506.716V67.86H505.336V62.52H494.936V61.26ZM525.604 59.06V60.28H508.804V59.06H525.604ZM512.704 66.26H523.504V67.5H511.284V62.12H512.704V66.26ZM517.204 57.38C516.39 57.38 515.63 57.3 514.924 57.14C514.23 56.98 513.624 56.7533 513.104 56.46C512.597 56.1667 512.197 55.8133 511.904 55.4C511.61 54.9733 511.464 54.5067 511.464 54V53.24C511.464 52.7333 511.61 52.2733 511.904 51.86C512.197 51.4333 512.597 51.0733 513.104 50.78C513.624 50.4867 514.23 50.26 514.924 50.1C515.63 49.94 516.39 49.86 517.204 49.86C518.017 49.86 518.77 49.94 519.464 50.1C520.17 50.26 520.777 50.4867 521.284 50.78C521.804 51.0733 522.21 51.4333 522.504 51.86C522.797 52.2733 522.944 52.7333 522.944 53.24V54C522.944 54.5067 522.797 54.9733 522.504 55.4C522.21 55.8133 521.804 56.1667 521.284 56.46C520.777 56.7533 520.17 56.98 519.464 57.14C518.77 57.3 518.017 57.38 517.204 57.38ZM517.204 51.06C516.617 51.06 516.057 51.12 515.524 51.24C515.004 51.3467 514.544 51.5 514.144 51.7C513.744 51.9 513.424 52.14 513.184 52.42C512.944 52.7 512.824 53.0067 512.824 53.34V53.9C512.824 54.2333 512.944 54.54 513.184 54.82C513.424 55.1 513.744 55.34 514.144 55.54C514.544 55.74 515.004 55.9 515.524 56.02C516.057 56.1267 516.617 56.18 517.204 56.18C517.79 56.18 518.344 56.1267 518.864 56.02C519.397 55.9 519.864 55.74 520.264 55.54C520.664 55.34 520.984 55.1 521.224 54.82C521.464 54.54 521.584 54.2333 521.584 53.9V53.34C521.584 53.0067 521.464 52.7 521.224 52.42C520.984 52.14 520.664 51.9 520.264 51.7C519.864 51.5 519.397 51.3467 518.864 51.24C518.344 51.12 517.79 51.06 517.204 51.06ZM546.171 67.74H544.791V60.06H540.371C540.077 61.0733 539.571 61.8533 538.851 62.4C538.144 62.9333 537.251 63.2 536.171 63.2C534.757 63.2 533.651 62.74 532.851 61.82C532.064 60.8867 531.671 59.58 531.671 57.9V56.02C531.671 54.3533 532.064 53.06 532.851 52.14C533.651 51.2067 534.757 50.74 536.171 50.74C537.237 50.74 538.124 51.0133 538.831 51.56C539.551 52.0933 540.064 52.86 540.371 53.86H544.791V49.44H546.171V67.74ZM539.291 56.28C539.291 55.52 539.217 54.8733 539.071 54.34C538.924 53.8067 538.711 53.3733 538.431 53.04C538.164 52.6933 537.837 52.4467 537.451 52.3C537.064 52.14 536.637 52.06 536.171 52.06C535.704 52.06 535.277 52.14 534.891 52.3C534.504 52.4467 534.171 52.6933 533.891 53.04C533.624 53.3733 533.417 53.8067 533.271 54.34C533.124 54.8733 533.051 55.52 533.051 56.28V57.66C533.051 58.42 533.124 59.0733 533.271 59.62C533.417 60.1533 533.624 60.5933 533.891 60.94C534.171 61.2733 534.504 61.52 534.891 61.68C535.277 61.8267 535.704 61.9 536.171 61.9C536.637 61.9 537.064 61.8267 537.451 61.68C537.837 61.52 538.164 61.2733 538.431 60.94C538.711 60.5933 538.924 60.1533 539.071 59.62C539.217 59.0733 539.291 58.42 539.291 57.66V56.28ZM540.671 57.9C540.671 58.0467 540.664 58.1933 540.651 58.34C540.651 58.4867 540.644 58.6333 540.631 58.78H544.791V55.14H540.631C540.644 55.2867 540.651 55.44 540.651 55.6C540.664 55.7467 540.671 55.8933 540.671 56.04V57.9ZM563.258 67.72H561.838V49.44H563.258V67.72ZM549.158 62.42C550.691 61.54 551.911 60.7867 552.818 60.16C553.724 59.52 554.411 58.9267 554.878 58.38C555.344 57.82 555.644 57.26 555.778 56.7C555.924 56.14 555.998 55.4867 555.998 54.74V52.44H549.358V51.16H557.378V54.76C557.378 55.3733 557.344 55.9267 557.278 56.42C557.211 56.9133 557.078 57.38 556.878 57.82C556.691 58.26 556.424 58.6867 556.078 59.1C555.731 59.5133 555.278 59.9467 554.718 60.4C554.171 60.8533 553.498 61.34 552.698 61.86C551.911 62.3667 550.978 62.9333 549.898 63.56L549.158 62.42Z" fill="#1F1818"/>
<defs>
<filter id="filter0_d_383_971" x="724" y="322" width="240" height="90" filterUnits="userSpaceOnUse" color-interpolation-filters="sRGB">
<feFlood flood-opacity="0" result="BackgroundImageFix"/>
<feColorMatrix in="SourceAlpha" type="matrix" values="0 0 0 0 0 0 0 0 0 0 0 0 0 0 0 0 0 0 127 0" result="hardAlpha"/>
<feOffset dx="2" dy="4"/>
<feGaussianBlur stdDeviation="5"/>
<feComposite in2="hardAlpha" operator="out"/>
<feColorMatrix type="matrix" values="0 0 0 0 0.917647 0 0 0 0 0.592157 0 0 0 0 0.243137 0 0 0 0.4 0"/>
<feBlend mode="normal" in2="BackgroundImageFix" result="effect1_dropShadow_383_971"/>
<feBlend mode="normal" in="SourceGraphic" in2="effect1_dropShadow_383_971" result="shape"/>
</filter>
</defs>
</svg>
