<svg width="82" height="82" viewBox="0 0 82 82" fill="none" xmlns="http://www.w3.org/2000/svg">
<g filter="url(#filter0_d_602_2035)">
<circle cx="41" cy="37" r="25" fill="#FFFEFB"/>
</g>
<mask id="mask0_602_2035" style="mask-type:alpha" maskUnits="userSpaceOnUse" x="29" y="25" width="24" height="24">
<rect x="29" y="25" width="24" height="24" fill="#D9D9D9"/>
</mask>
<g mask="url(#mask0_602_2035)">
<path d="M41.0004 44.9998C40.7171 44.9998 40.4797 44.9038 40.2884 44.7118C40.0964 44.5205 40.0004 44.2831 40.0004 43.9998V32.8248L35.1254 37.6998C34.9254 37.8998 34.6877 37.9998 34.4124 37.9998C34.1377 37.9998 33.9004 37.8998 33.7004 37.6998C33.5004 37.4998 33.4004 37.2665 33.4004 36.9998C33.4004 36.7331 33.5004 36.4998 33.7004 36.2998L40.3004 29.6998C40.4004 29.5998 40.5087 29.5288 40.6254 29.4868C40.7421 29.4455 40.8671 29.4248 41.0004 29.4248C41.1337 29.4248 41.2631 29.4455 41.3884 29.4868C41.5131 29.5288 41.6171 29.5998 41.7004 29.6998L48.3004 36.2998C48.5004 36.4998 48.6004 36.7331 48.6004 36.9998C48.6004 37.2665 48.5004 37.4998 48.3004 37.6998C48.1004 37.8998 47.8627 37.9998 47.5874 37.9998C47.3127 37.9998 47.0754 37.8998 46.8754 37.6998L42.0004 32.8248V43.9998C42.0004 44.2831 41.9047 44.5205 41.7134 44.7118C41.5214 44.9038 41.2837 44.9998 41.0004 44.9998Z" fill="#9B9B9B"/>
</g>
<defs>
<filter id="filter0_d_602_2035" x="0" y="0" width="82" height="82" filterUnits="userSpaceOnUse" color-interpolation-filters="sRGB">
<feFlood flood-opacity="0" result="BackgroundImageFix"/>
<feColorMatrix in="SourceAlpha" type="matrix" values="0 0 0 0 0 0 0 0 0 0 0 0 0 0 0 0 0 0 127 0" result="hardAlpha"/>
<feOffset dy="4"/>
<feGaussianBlur stdDeviation="8"/>
<feComposite in2="hardAlpha" operator="out"/>
<feColorMatrix type="matrix" values="0 0 0 0 0.286275 0 0 0 0 0.27451 0 0 0 0 0.27451 0 0 0 0.2 0"/>
<feBlend mode="normal" in2="BackgroundImageFix" result="effect1_dropShadow_602_2035"/>
<feBlend mode="normal" in="SourceGraphic" in2="effect1_dropShadow_602_2035" result="shape"/>
</filter>
</defs>
</svg>
