<svg width="38" height="38" viewBox="0 0 38 38" fill="none" xmlns="http://www.w3.org/2000/svg">
<g filter="url(#filter0_d_722_1967)">
<mask id="mask0_722_1967" style="mask-type:alpha" maskUnits="userSpaceOnUse" x="3" y="2" width="30" height="30">
<rect x="3" y="2" width="30" height="30" fill="#D9D9D9"/>
</mask>
<g mask="url(#mask0_722_1967)">
<circle cx="18" cy="17" r="15" fill="#DBDE50"/>
<mask id="mask1_722_1967" style="mask-type:alpha" maskUnits="userSpaceOnUse" x="9" y="8" width="18" height="18">
<rect x="9" y="8" width="18" height="18" fill="#D9D9D9"/>
</mask>
<g mask="url(#mask1_722_1967)">
<path d="M17.9977 18.0501L14.3227 21.7251C14.1852 21.8626 14.0102 21.9313 13.7977 21.9313C13.5852 21.9313 13.4102 21.8626 13.2727 21.7251C13.1352 21.5876 13.0664 21.4126 13.0664 21.2001C13.0664 20.9876 13.1352 20.8126 13.2727 20.6751L16.9477 17.0001L13.2727 13.3251C13.1352 13.1876 13.0664 13.0126 13.0664 12.8001C13.0664 12.5876 13.1352 12.4126 13.2727 12.2751C13.4102 12.1376 13.5852 12.0688 13.7977 12.0688C14.0102 12.0688 14.1852 12.1376 14.3227 12.2751L17.9977 15.9501L21.6727 12.2751C21.8102 12.1376 21.9852 12.0688 22.1977 12.0688C22.4102 12.0688 22.5852 12.1376 22.7227 12.2751C22.8602 12.4126 22.9289 12.5876 22.9289 12.8001C22.9289 13.0126 22.8602 13.1876 22.7227 13.3251L19.0477 17.0001L22.7227 20.6751C22.8602 20.8126 22.9289 20.9876 22.9289 21.2001C22.9289 21.4126 22.8602 21.5876 22.7227 21.7251C22.5852 21.8626 22.4102 21.9313 22.1977 21.9313C21.9852 21.9313 21.8102 21.8626 21.6727 21.7251L17.9977 18.0501Z" fill="#FFFEFB"/>
</g>
</g>
</g>
<defs>
<filter id="filter0_d_722_1967" x="0.6" y="0.8" width="37.2" height="37.2" filterUnits="userSpaceOnUse" color-interpolation-filters="sRGB">
<feFlood flood-opacity="0" result="BackgroundImageFix"/>
<feColorMatrix in="SourceAlpha" type="matrix" values="0 0 0 0 0 0 0 0 0 0 0 0 0 0 0 0 0 0 127 0" result="hardAlpha"/>
<feOffset dx="1.2" dy="2.4"/>
<feGaussianBlur stdDeviation="1.8"/>
<feComposite in2="hardAlpha" operator="out"/>
<feColorMatrix type="matrix" values="0 0 0 0 0.858824 0 0 0 0 0.870588 0 0 0 0 0.313726 0 0 0 0.1 0"/>
<feBlend mode="normal" in2="BackgroundImageFix" result="effect1_dropShadow_722_1967"/>
<feBlend mode="normal" in="SourceGraphic" in2="effect1_dropShadow_722_1967" result="shape"/>
</filter>
</defs>
</svg>
