<svg width="160" height="50" viewBox="0 0 160 50" fill="none" xmlns="http://www.w3.org/2000/svg">
<g clip-path="url(#clip0_583_1541)">
<path d="M13.0813 21.2224C12.3424 19.0397 11.9561 17.9484 11.2172 15.7657C6.26283 17.4615 3.81085 18.3849 -1.04272 20.3997C-1.42899 19.4763 -1.61373 19.0061 -2 18.0827C4.19712 15.5139 7.33767 14.3554 13.6859 12.307C14.9959 16.3701 15.6509 18.4017 16.9608 22.4648C12.1912 24.0095 9.82324 24.849 5.12081 26.7127C5.96053 28.8618 6.39719 29.9363 7.23691 32.0686C8.78199 31.4642 10.1927 30.9101 11.4523 30.4232C12.7119 29.9363 13.9043 29.4662 15.0127 29.0297C16.1211 28.5931 17.196 28.1566 18.2204 27.72C19.2449 27.2835 20.2693 26.847 21.3274 26.3769C21.764 27.2667 21.9656 27.72 22.4022 28.6267C21.277 29.1136 20.1686 29.5837 19.0601 30.0538C17.9517 30.5239 16.7425 31.0108 15.4158 31.5313C14.089 32.0518 12.6111 32.6227 10.9653 33.2775C9.31941 33.9155 7.42164 34.6878 5.25517 35.5777C3.62612 31.6321 2.80319 29.6509 1.17414 25.7053C5.89336 23.7409 8.27816 22.851 13.0981 21.2056L13.0813 21.2224ZM19.0266 43.8886C27.5077 40.9 31.8239 39.6912 40.5234 37.8275C40.7249 38.8013 40.8424 39.2882 41.044 40.262C31.3032 42.3607 26.4833 43.7543 17.0616 47.2466C15.4494 42.9148 14.6432 40.7489 13.031 36.4004C14.2234 35.9638 14.8112 35.7456 16.0036 35.3258C17.2128 38.7509 17.8174 40.4635 19.0098 43.8718L19.0266 43.8886ZM25.2909 17.2768C27.7428 16.6052 28.9688 16.303 31.4376 15.7153C30.4803 11.6858 30.0101 9.67102 29.0528 5.64147C30.3963 5.32246 31.0681 5.17136 32.4285 4.86914C34.6957 15.1613 35.8209 20.3157 38.0882 30.6079C36.9126 30.8597 36.308 30.9941 35.1324 31.2795C33.8896 26.0411 33.2682 23.4219 32.0254 18.1834C29.5902 18.7543 28.381 19.0733 25.9458 19.7281C27.2558 24.5804 27.9276 27.0149 29.2375 31.8671C28.0619 32.1861 27.4741 32.354 26.2985 32.6898C23.5274 23.0861 22.1335 18.2842 19.3624 8.68042C20.6892 8.29426 21.361 8.10957 22.7045 7.7402C23.7458 11.5515 24.2496 13.4655 25.2909 17.2768Z" fill="#494646"/>
<path d="M41.0039 5.60779C49.2164 4.09671 53.3646 3.55944 61.6778 2.87105C61.7618 3.86165 61.7953 4.36535 61.8793 5.35594C55.044 5.91001 51.618 6.32975 44.833 7.47146C45.5552 11.8368 45.9247 14.0363 46.6468 18.4016C48.9309 18.0154 50.9462 17.73 52.676 17.4782C54.4226 17.2263 56.0181 16.9913 57.496 16.773C58.9739 16.5379 60.4014 16.3197 61.7953 16.0846C63.1893 15.8496 64.7008 15.5977 66.3634 15.3459C66.5817 16.3365 66.6825 16.8234 66.884 17.814C65.7588 17.9819 64.7008 18.1666 63.7099 18.3345C62.719 18.5023 61.7282 18.6702 60.7373 18.8381C59.7464 19.006 58.7052 19.1572 57.5967 19.3251C56.4883 19.4929 55.2791 19.6608 53.9692 19.8455C52.6424 20.0302 51.1645 20.2485 49.5354 20.5171C47.8896 20.7858 46.0254 21.088 43.9429 21.4741C42.7841 15.1276 42.1963 11.9543 41.0375 5.62458L41.0039 5.60779ZM50.8958 24.9496C60.7373 23.4721 65.7084 23.0692 75.6339 22.9181C75.7179 28.4419 75.7683 31.2122 75.8522 36.7361C66.6657 36.8872 62.0473 37.2565 52.9279 38.6165C52.105 33.143 51.7019 30.4231 50.879 24.9496H50.8958ZM55.3799 35.7119C62.3999 34.7884 65.9268 34.4862 72.9804 34.268C72.8628 30.7757 72.8125 29.0295 72.6949 25.5205C65.2886 25.7555 61.577 26.0578 54.2211 27.0316C54.6745 30.5071 54.9096 32.2364 55.3799 35.6951V35.7119ZM72.0567 8.66353C71.9391 5.23841 71.8888 3.50907 71.788 0.083949C73.1819 0.0335796 73.8873 0.0167898 75.2812 0C75.4156 8.29416 75.4828 12.458 75.6003 20.7522C74.3407 20.769 73.7193 20.7858 72.4598 20.8193C72.3422 16.9745 72.275 15.0437 72.1575 11.1988C67.2199 11.3499 64.7344 11.5178 59.8136 11.9879C59.7128 10.9805 59.6625 10.4768 59.5785 9.45265C64.5664 8.98254 67.0688 8.81464 72.0903 8.66353H72.0567Z" fill="#494646"/>
<path d="M98.649 18.7374C98.8001 17.1759 98.8841 16.4036 99.0352 14.8421C100.328 14.9765 100.983 15.0436 102.277 15.1947L101.823 19.0732C108.81 19.8791 112.303 20.4499 119.205 21.9106C119.004 22.8509 118.903 23.3378 118.701 24.278C103.822 21.1383 96.2138 20.3324 81.082 20.2149C81.082 19.2411 81.082 18.771 81.0988 17.7971C88.1189 17.8475 91.6457 18.049 98.6322 18.7374H98.649ZM98.9345 14.8421C93.6106 14.3217 90.9403 14.137 85.5997 13.9691C85.7677 8.6635 85.8516 6.01071 86.0028 0.721924C87.2792 0.755503 87.9173 0.789083 89.1769 0.839452C89.0929 2.61917 89.0594 3.52582 88.9754 5.30554C92.0656 5.43986 93.6106 5.54059 96.7008 5.80923C96.852 4.02951 96.9191 3.13965 97.0703 1.35994C98.3299 1.46067 98.968 1.52783 100.244 1.64536C99.7238 6.91736 99.4551 9.55335 98.9345 14.8421ZM112.773 26.0409C111.799 31.4305 111.312 34.1336 110.338 39.5231C100.647 37.777 95.7603 37.2565 85.9524 36.8871C86.1539 31.4137 86.2547 28.6769 86.4562 23.2035C87.6822 23.2538 88.2868 23.2706 89.5128 23.3378C89.4288 25.0503 89.3785 25.8898 89.2777 27.6024C97.2046 28.0221 101.168 28.4587 109.045 29.7347C109.313 28.0557 109.465 27.1994 109.733 25.5204C110.942 25.7219 111.547 25.8227 112.756 26.0409H112.773ZM88.6731 11.8032C91.6625 11.9375 93.1572 12.0382 96.1466 12.2901C96.2809 10.6111 96.3649 9.75483 96.4993 8.07585C93.4427 7.82401 91.9144 7.72327 88.8578 7.57216C88.7739 9.26793 88.7403 10.1074 88.6563 11.8032H88.6731ZM107.936 36.5513L108.642 32.2196C100.883 30.9435 96.9695 30.5238 89.1601 30.1208C89.0594 31.8838 89.0258 32.7568 88.925 34.503C96.5665 34.9059 100.379 35.3257 107.936 36.5513ZM115.594 17.2263C110.321 16.2357 107.668 15.8327 102.361 15.2115C102.982 9.93952 103.284 7.30352 103.906 2.04832C105.165 2.19943 105.803 2.28337 107.063 2.43448C106.828 4.2142 106.71 5.08727 106.475 6.86699C109.549 7.26994 111.077 7.505 114.133 8.02548C114.436 6.26256 114.587 5.3727 114.889 3.60977C116.149 3.82804 116.77 3.94556 118.03 4.16383C117.056 9.36867 116.569 11.9879 115.594 17.1927V17.2263ZM105.619 13.3143C108.591 13.7004 110.086 13.9355 113.042 14.4392C113.327 12.777 113.478 11.9375 113.747 10.2753C110.724 9.75483 109.213 9.51978 106.173 9.13361C105.955 10.8126 105.837 11.6521 105.619 13.3311V13.3143Z" fill="#494646"/>
<path d="M120.367 30.7084C124.045 29.7178 127.068 28.9455 129.369 28.2571C131.67 27.5687 133.517 26.8636 134.878 26.108C136.221 25.3525 137.229 24.4962 137.884 23.5056C138.539 22.5318 139.093 21.3229 139.546 19.879C140.101 18.1161 140.386 17.2262 140.94 15.4633C134.743 13.5157 131.603 12.6594 125.305 11.2155C125.54 10.2081 125.657 9.70441 125.876 8.69702C133.584 10.4767 137.413 11.5345 144.971 14.053C144.047 16.8065 143.594 18.1833 142.67 20.9368C142.284 22.1121 141.847 23.1362 141.394 24.0429C140.924 24.9327 140.352 25.7387 139.647 26.4438C138.942 27.149 138.085 27.7702 137.078 28.3243C136.07 28.8784 134.827 29.4156 133.383 29.9193C131.939 30.423 130.209 30.9603 128.244 31.4976C126.279 32.0348 123.995 32.6225 121.425 33.3109C121.005 32.2699 120.804 31.7494 120.367 30.7084ZM145.911 49.9999C144.82 49.5466 144.266 49.3283 143.157 48.8918C148.565 35.1913 151.269 28.3411 156.677 14.6238C158.02 15.1443 158.692 15.4297 160.019 15.967C154.376 29.5835 151.554 36.3834 145.928 49.9999H145.911Z" fill="#494646"/>
</g>
<defs>
<clipPath id="clip0_583_1541">
<rect width="160" height="50" fill="white"/>
</clipPath>
</defs>
</svg>
